<svg width="1168" height="791" xmlns="http://www.w3.org/2000/svg" xmlns:xlink="http://www.w3.org/1999/xlink" xml:space="preserve" overflow="hidden"><g transform="translate(-92 -1978)"><g><g><g><path d="M0 0 1168 0 1168 778.667-2.23547e-05 778.667Z" fill="#FFFFFF" transform="matrix(1 0 0 1.00024 92.0001 1989.57)"/><g><path d="M0 0 1168 0 1168 778.667-2.23547e-05 778.667Z" stroke="#FFFFFF" stroke-width="4.89871" stroke-linecap="round" stroke-linejoin="round" stroke-miterlimit="10" fill="#FFFFFF" transform="matrix(1 0 0 1.00024 92.0001 1989.57)"/></g><g><path d="M501.454 628.088 508.184 624.929 514.914 621.725 521.644 618.428 528.374 615.086 535.104 611.652 541.789 608.036 548.518 604.281 555.249 600.298 561.979 596.132 568.709 591.737 575.439 587.021 582.169 582.031 588.899 576.72 595.583 571.043 602.313 565 609.043 558.545 615.773 551.723 622.503 544.444 629.233 536.707 635.963 528.557 642.693 519.905 649.423 510.748 656.107 501.088 662.837 490.879 669.567 480.165 676.297 468.857 683.027 457 689.757 444.593 696.487 431.636 703.217 418.222 709.901 404.396 716.631 390.157 723.361 375.599 730.091 360.719 736.821 345.565 743.551 330.228 750.281 314.662 757.011 299.005 763.696 283.21 770.426 267.415 777.156 251.574 783.886 235.825 790.616 220.259 797.346 204.922 804.076 189.905 810.806 175.209 817.49 161.017 824.22 147.373 830.95 134.28 837.68 121.918 844.41 110.29 851.14 99.4851 857.87 89.5961 864.6 80.7143 871.284 72.9313 878.014 66.2929 884.744 61.0279 891.474 57.0906 898.204 54.7099 904.934 53.8858 911.664 54.8015 918.394 57.5027 925.078 62.1267 931.808 68.7651 938.539 77.5095 945.268 88.4515 951.999 101.683 958.729 116.974 965.459 134.188 972.189 153.142 978.873 173.698 985.603 195.628 992.333 218.748 999.063 242.967 1005.79 268.01 1012.52 293.785 1019.25 320.065 1025.98 346.71 1032.71 373.493 1032.71 373.767 1025.98 346.939 1019.25 320.293 1012.52 294.014 1005.79 268.239 999.063 243.15 992.333 218.977 985.603 195.857 978.873 173.927 972.189 153.371 965.459 134.417 958.729 117.203 951.999 101.912 945.268 88.7262 938.539 77.7385 931.808 68.994 925.078 62.3556 918.394 57.7316 911.664 55.0304 904.934 54.1148 898.204 54.9388 891.474 57.3195 884.744 61.2568 878.014 66.5676 871.284 73.1602 864.6 80.9432 857.87 89.8708 851.14 99.7598 844.41 110.519 837.68 122.147 830.95 134.509 824.22 147.602 817.49 161.245 810.806 175.438 804.076 190.134 797.346 205.151 790.616 220.488 783.886 236.1 777.156 251.849 770.426 267.644 763.696 283.484 757.011 299.234 750.281 314.937 743.551 330.457 736.821 345.794 730.091 360.948 723.361 375.827 716.631 390.386 709.901 404.625 703.217 418.451 696.487 431.865 689.757 444.821 683.027 457.228 676.297 469.132 669.567 480.394 662.837 491.153 656.107 501.317 649.423 510.977 642.693 520.088 635.963 528.741 629.233 536.936 622.503 544.673 615.773 551.952 609.043 558.774 602.313 565.229 595.583 571.272 588.899 576.949 582.169 582.306 575.439 587.296 568.709 591.966 561.979 596.361 555.249 600.527 548.518 604.51 541.789 608.265 535.104 611.836 528.374 615.315 521.644 618.657 514.914 621.908 508.184 625.158 501.454 628.363Z" fill="#999999" fill-opacity="0.4" transform="matrix(1 0 0 1.00024 92.0001 1989.57)"/><path d="M501.454 628.226 508.184 625.021 514.914 621.816 521.644 618.566 528.374 615.178 535.104 611.744 541.789 608.127 548.518 604.373 555.249 600.436 561.979 596.27 568.709 591.829 575.439 587.159 582.169 582.169 588.899 576.858 595.583 571.181 602.313 565.092 609.043 558.682 615.773 551.815 622.503 544.535 629.233 536.844 635.963 528.649 642.693 519.996 649.423 510.84 656.107 501.18 662.837 491.016 669.567 480.257 676.297 468.995 683.027 457.137 689.757 444.684 696.487 431.773 703.217 418.359 709.901 404.533 716.631 390.295 723.361 375.69 730.091 360.857 736.821 345.703 743.551 330.32 750.281 314.8 757.011 299.096 763.696 283.347 770.426 267.506 777.156 251.711 783.886 235.962 790.616 220.396 797.346 205.059 804.076 189.997 810.806 175.346 817.49 161.154 824.22 147.465 830.95 134.417 837.68 122.01 844.41 110.381 851.14 99.6224 857.87 89.7334 864.6 80.8517 871.284 73.0229 878.014 66.4302 884.744 61.1195 891.474 57.228 898.204 54.8015 904.934 54.0232 911.664 54.9388 918.394 57.64 925.078 62.264 931.808 68.9025 938.539 77.6469 945.268 88.5889 951.999 101.774 958.729 117.111 965.459 134.325 972.189 153.279 978.873 173.79 985.603 195.72 992.333 218.885 999.063 243.059 1005.79 268.147 1012.52 293.877 1019.25 320.156 1025.98 346.801 1032.71 373.63" stroke="#0000FF" stroke-width="1.96864" stroke-linejoin="round" stroke-miterlimit="10" fill="none" transform="matrix(1 0 0 1.00024 92.0001 1989.57)"/><path d="M235.733 373.493 242.463 346.71 249.193 320.065 255.923 293.785 262.653 268.01 269.383 242.967 276.113 218.748 282.843 195.628 289.528 173.698 296.258 153.142 302.988 134.188 309.718 116.974 316.448 101.683 323.178 88.4515 329.908 77.5095 336.638 68.7651 343.322 62.1267 350.052 57.5027 356.782 54.8015 363.512 53.8858 370.242 54.7099 376.972 57.0906 383.702 61.0279 390.432 66.2929 397.162 72.9313 403.846 80.7143 410.576 89.5961 417.306 99.4851 424.036 110.29 430.766 121.918 437.496 134.28 444.226 147.373 450.956 161.017 457.641 175.209 464.371 189.905 471.101 204.922 477.831 220.259 484.561 235.825 491.291 251.574 498.021 267.415 504.751 283.21 511.435 299.005 518.165 314.662 524.895 330.228 531.625 345.565 538.355 360.719 545.085 375.599 551.815 390.157 558.545 404.396 565.229 418.222 571.959 431.636 578.689 444.593 585.419 457 592.149 468.857 598.879 480.165 605.609 490.879 612.339 501.088 619.023 510.748 625.753 519.905 632.483 528.557 639.213 536.707 645.943 544.444 652.673 551.723 659.403 558.545 666.133 565 672.818 571.043 679.548 576.72 686.278 582.031 693.008 587.021 699.738 591.737 706.468 596.132 713.198 600.298 719.928 604.281 726.612 608.036 733.342 611.652 740.072 615.086 746.802 618.428 753.532 621.725 760.262 624.929 766.992 628.088 766.992 628.363 760.262 625.158 753.532 621.908 746.802 618.657 740.072 615.315 733.342 611.836 726.612 608.265 719.928 604.51 713.198 600.527 706.468 596.361 699.738 591.966 693.008 587.296 686.278 582.306 679.548 576.949 672.818 571.272 666.133 565.229 659.403 558.774 652.673 551.952 645.943 544.673 639.213 536.936 632.483 528.741 625.753 520.088 619.023 510.977 612.339 501.317 605.609 491.153 598.879 480.394 592.149 469.132 585.419 457.228 578.689 444.821 571.959 431.865 565.229 418.451 558.545 404.625 551.815 390.386 545.085 375.827 538.355 360.948 531.625 345.794 524.895 330.457 518.165 314.937 511.435 299.234 504.751 283.484 498.021 267.644 491.291 251.849 484.561 236.1 477.831 220.488 471.101 205.151 464.371 190.134 457.641 175.438 450.956 161.245 444.226 147.602 437.496 134.509 430.766 122.147 424.036 110.519 417.306 99.7598 410.576 89.8708 403.846 80.9432 397.162 73.1602 390.432 66.5676 383.702 61.2568 376.972 57.3195 370.242 54.9388 363.512 54.1148 356.782 55.0304 350.052 57.7316 343.322 62.3556 336.638 68.994 329.908 77.7385 323.178 88.7262 316.448 101.912 309.718 117.203 302.988 134.417 296.258 153.371 289.528 173.927 282.843 195.857 276.113 218.977 269.383 243.15 262.653 268.239 255.923 294.014 249.193 320.293 242.463 346.939 235.733 373.767Z" fill="#999999" fill-opacity="0.4" transform="matrix(1 0 0 1.00024 92.0001 1989.57)"/><path d="M235.733 373.63 242.463 346.801 249.193 320.156 255.923 293.877 262.653 268.147 269.383 243.059 276.113 218.885 282.843 195.72 289.528 173.79 296.258 153.279 302.988 134.325 309.718 117.111 316.448 101.774 323.178 88.5889 329.908 77.6469 336.638 68.9025 343.322 62.264 350.052 57.64 356.782 54.9388 363.512 54.0232 370.242 54.8015 376.972 57.228 383.702 61.1195 390.432 66.4302 397.162 73.0229 403.846 80.8517 410.576 89.7334 417.306 99.6224 424.036 110.381 430.766 122.01 437.496 134.417 444.226 147.465 450.956 161.154 457.641 175.346 464.371 189.997 471.101 205.059 477.831 220.396 484.561 235.962 491.291 251.711 498.021 267.506 504.751 283.347 511.435 299.096 518.165 314.8 524.895 330.32 531.625 345.703 538.355 360.857 545.085 375.69 551.815 390.295 558.545 404.533 565.229 418.359 571.959 431.773 578.689 444.684 585.419 457.137 592.149 468.995 598.879 480.257 605.609 491.016 612.339 501.18 619.023 510.84 625.753 519.996 632.483 528.649 639.213 536.844 645.943 544.535 652.673 551.815 659.403 558.682 666.133 565.092 672.818 571.181 679.548 576.858 686.278 582.169 693.008 587.159 699.738 591.829 706.468 596.27 713.198 600.436 719.928 604.373 726.612 608.127 733.342 611.744 740.072 615.178 746.802 618.566 753.532 621.816 760.262 625.021 766.992 628.226" stroke="#FF0000" stroke-width="1.96864" stroke-linejoin="round" stroke-miterlimit="10" fill="none" transform="matrix(1 0 0 1.00024 92.0001 1989.57)"/><path d="M766.992 628.226 729.359 628.226" stroke="#000000" stroke-width="1.96864" stroke-linejoin="round" stroke-miterlimit="10" fill="none" transform="matrix(1 0 0 1.00024 92.0001 1989.57)"/><path d="M743.643 619.985 729.359 628.226 743.643 636.466" stroke="#000000" stroke-width="1.96864" stroke-linejoin="round" stroke-miterlimit="10" fill="none" transform="matrix(1 0 0 1.00024 92.0001 1989.57)"/><path d="M235.733 373.63 278.494 373.63" stroke="#000000" stroke-width="1.96864" stroke-linejoin="round" stroke-miterlimit="10" fill="none" transform="matrix(1 0 0 1.00024 92.0001 1989.57)"/><path d="M264.21 381.871 278.494 373.63 264.21 365.389" stroke="#000000" stroke-width="1.96864" stroke-linejoin="round" stroke-miterlimit="10" fill="none" transform="matrix(1 0 0 1.00024 92.0001 1989.57)"/><path d="M501.454 275.656 473.298 275.656" stroke="#000000" stroke-width="1.96864" stroke-linejoin="round" stroke-miterlimit="10" fill="none" transform="matrix(1 0 0 1.00024 92.0001 1989.57)"/><path d="M487.582 267.415 473.298 275.656 487.582 283.896" stroke="#000000" stroke-width="1.96864" stroke-linejoin="round" stroke-miterlimit="10" fill="none" transform="matrix(1 0 0 1.00024 92.0001 1989.57)"/><path d="M412.82 92.8924 383.107 92.8924" stroke="#000000" stroke-width="1.96864" stroke-linejoin="round" stroke-miterlimit="10" fill="none" transform="matrix(1 0 0 1.00024 92.0001 1989.57)"/><path d="M397.345 84.6516 383.107 92.8924 397.345 101.133" stroke="#000000" stroke-width="1.96864" stroke-linejoin="round" stroke-miterlimit="10" fill="none" transform="matrix(1 0 0 1.00024 92.0001 1989.57)"/><path d="M324.368 86.4371 312.877 86.4371" stroke="#000000" stroke-width="1.96864" stroke-linejoin="round" stroke-miterlimit="10" fill="none" transform="matrix(1 0 0 1.00024 92.0001 1989.57)"/><path d="M327.161 78.1963 312.877 86.4371 327.161 94.6779" stroke="#000000" stroke-width="1.96864" stroke-linejoin="round" stroke-miterlimit="10" fill="none" transform="matrix(1 0 0 1.00024 92.0001 1989.57)"/><path d="M678.54 575.988 637.016 575.988" stroke="#000000" stroke-width="1.96864" stroke-linejoin="round" stroke-miterlimit="10" fill="none" transform="matrix(1 0 0 1.00024 92.0001 1989.57)"/><path d="M651.254 567.747 637.016 575.988 651.254 584.229" stroke="#000000" stroke-width="1.96864" stroke-linejoin="round" stroke-miterlimit="10" fill="none" transform="matrix(1 0 0 1.00024 92.0001 1989.57)"/><path d="M589.906 465.103 571.272 465.103" stroke="#000000" stroke-width="1.96864" stroke-linejoin="round" stroke-miterlimit="10" fill="none" transform="matrix(1 0 0 1.00024 92.0001 1989.57)"/><path d="M585.556 456.862 571.272 465.103 585.556 473.344" stroke="#000000" stroke-width="1.96864" stroke-linejoin="round" stroke-miterlimit="10" fill="none" transform="matrix(1 0 0 1.00024 92.0001 1989.57)"/><path d="M501.454 628.226 519.63 628.226" stroke="#000000" stroke-width="1.96864" stroke-linejoin="round" stroke-miterlimit="10" fill="none" transform="matrix(1 0 0 1.00024 92.0001 1989.57)"/><path d="M505.346 636.466 519.63 628.226 505.346 619.985" stroke="#000000" stroke-width="1.96864" stroke-linejoin="round" stroke-miterlimit="10" fill="none" transform="matrix(1 0 0 1.00024 92.0001 1989.57)"/><path d="M1032.71 373.63 1002.31 373.63" stroke="#000000" stroke-width="1.96864" stroke-linejoin="round" stroke-miterlimit="10" fill="none" transform="matrix(1 0 0 1.00024 92.0001 1989.57)"/><path d="M1016.6 365.389 1002.31 373.63 1016.6 381.871" stroke="#000000" stroke-width="1.96864" stroke-linejoin="round" stroke-miterlimit="10" fill="none" transform="matrix(1 0 0 1.00024 92.0001 1989.57)"/><path d="M766.992 275.656 796.567 275.656" stroke="#000000" stroke-width="1.96864" stroke-linejoin="round" stroke-miterlimit="10" fill="none" transform="matrix(1 0 0 1.00024 92.0001 1989.57)"/><path d="M782.283 283.896 796.567 275.656 782.283 267.415" stroke="#000000" stroke-width="1.96864" stroke-linejoin="round" stroke-miterlimit="10" fill="none" transform="matrix(1 0 0 1.00024 92.0001 1989.57)"/><path d="M855.627 92.8924 883.188 92.8924" stroke="#000000" stroke-width="1.96864" stroke-linejoin="round" stroke-miterlimit="10" fill="none" transform="matrix(1 0 0 1.00024 92.0001 1989.57)"/><path d="M868.949 101.133 883.188 92.8924 868.949 84.6516" stroke="#000000" stroke-width="1.96864" stroke-linejoin="round" stroke-miterlimit="10" fill="none" transform="matrix(1 0 0 1.00024 92.0001 1989.57)"/><path d="M944.078 86.4371 948.977 86.4371" stroke="#000000" stroke-width="1.96864" stroke-linejoin="round" stroke-miterlimit="10" fill="none" transform="matrix(1 0 0 1.00024 92.0001 1989.57)"/><path d="M934.739 94.6779 948.977 86.4371 934.739 78.1963" stroke="#000000" stroke-width="1.96864" stroke-linejoin="round" stroke-miterlimit="10" fill="none" transform="matrix(1 0 0 1.00024 92.0001 1989.57)"/><path d="M589.906 575.988 615.956 575.988" stroke="#000000" stroke-width="1.96864" stroke-linejoin="round" stroke-miterlimit="10" fill="none" transform="matrix(1 0 0 1.00024 92.0001 1989.57)"/><path d="M601.672 584.229 615.956 575.988 601.672 567.747" stroke="#000000" stroke-width="1.96864" stroke-linejoin="round" stroke-miterlimit="10" fill="none" transform="matrix(1 0 0 1.00024 92.0001 1989.57)"/><path d="M678.54 465.103 706.239 465.103" stroke="#000000" stroke-width="1.96864" stroke-linejoin="round" stroke-miterlimit="10" fill="none" transform="matrix(1 0 0 1.00024 92.0001 1989.57)"/><path d="M691.955 473.344 706.239 465.103 691.955 456.862" stroke="#000000" stroke-width="1.96864" stroke-linejoin="round" stroke-miterlimit="10" fill="none" transform="matrix(1 0 0 1.00024 92.0001 1989.57)"/><path d="M260.959 373.63C260.959 377.22 258.049 380.131 254.458 380.131 250.868 380.131 247.957 377.22 247.957 373.63 247.957 370.039 250.868 367.129 254.458 367.129 258.049 367.129 260.959 370.039 260.959 373.63Z" stroke="#FA8072" stroke-width="3.25055" stroke-linecap="round" stroke-linejoin="round" stroke-miterlimit="10" fill="#FA8072" transform="matrix(1 0 0 1.00024 92.0001 1989.57)"/><path d="M319.012 86.4371C319.012 90.0276 316.101 92.9382 312.51 92.9382 308.92 92.9382 306.009 90.0276 306.009 86.4371 306.009 82.8466 308.92 79.936 312.51 79.936 316.101 79.936 319.012 82.8466 319.012 86.4371Z" stroke="#FA8072" stroke-width="3.25055" stroke-linecap="round" stroke-linejoin="round" stroke-miterlimit="10" fill="#FA8072" transform="matrix(1 0 0 1.00024 92.0001 1989.57)"/><path d="M402.152 92.8924C402.152 96.4829 399.242 99.3935 395.651 99.3935 392.061 99.3935 389.15 96.4829 389.15 92.8924 389.15 89.302 392.061 86.3913 395.651 86.3913 399.242 86.3913 402.152 89.302 402.152 92.8924Z" stroke="#FA8072" stroke-width="3.25055" stroke-linecap="round" stroke-linejoin="round" stroke-miterlimit="10" fill="#FA8072" transform="matrix(1 0 0 1.00024 92.0001 1989.57)"/><path d="M569.212 275.656C569.212 279.246 566.302 282.157 562.711 282.157 559.121 282.157 556.21 279.246 556.21 275.656 556.21 272.065 559.121 269.155 562.711 269.155 566.302 269.155 569.212 272.065 569.212 275.656Z" stroke="#FA8072" stroke-width="3.25055" stroke-linecap="round" stroke-linejoin="round" stroke-miterlimit="10" fill="#FA8072" transform="matrix(1 0 0 1.00024 92.0001 1989.57)"/><path d="M615.544 465.103C615.544 468.693 612.633 471.604 609.043 471.604 605.452 471.604 602.542 468.693 602.542 465.103 602.542 461.513 605.452 458.602 609.043 458.602 612.633 458.602 615.544 461.513 615.544 465.103Z" stroke="#FA8072" stroke-width="3.25055" stroke-linecap="round" stroke-linejoin="round" stroke-miterlimit="10" fill="#FA8072" transform="matrix(1 0 0 1.00024 92.0001 1989.57)"/><path d="M676.48 575.988C676.48 579.578 673.57 582.489 669.979 582.489 666.389 582.489 663.478 579.578 663.478 575.988 663.478 572.398 666.389 569.487 669.979 569.487 673.57 569.487 676.48 572.398 676.48 575.988Z" stroke="#FA8072" stroke-width="3.25055" stroke-linecap="round" stroke-linejoin="round" stroke-miterlimit="10" fill="#FA8072" transform="matrix(1 0 0 1.00024 92.0001 1989.57)"/><path d="M769.19 628.226C769.19 631.816 766.279 634.727 762.688 634.727 759.098 634.727 756.187 631.816 756.187 628.226 756.187 624.635 759.098 621.725 762.688 621.725 766.279 621.725 769.19 624.635 769.19 628.226Z" stroke="#FA8072" stroke-width="3.25055" stroke-linecap="round" stroke-linejoin="round" stroke-miterlimit="10" fill="#FA8072" transform="matrix(1 0 0 1.00024 92.0001 1989.57)"/><path d="M295.067 375.69 295.067 371.524" stroke="#FA8072" stroke-width="3.8915" stroke-linejoin="round" stroke-miterlimit="10" fill="none" transform="matrix(1 0 0 1.00024 92.0001 1989.57)"/><path d="M295.067 373.63 213.895 373.63" stroke="#FA8072" stroke-width="3.8915" stroke-linejoin="round" stroke-miterlimit="10" fill="none" transform="matrix(1 0 0 1.00024 92.0001 1989.57)"/><path d="M213.895 375.69 213.895 371.524" stroke="#FA8072" stroke-width="3.8915" stroke-linejoin="round" stroke-miterlimit="10" fill="none" transform="matrix(1 0 0 1.00024 92.0001 1989.57)"/><path d="M351.517 88.5431 351.517 84.3311" stroke="#FA8072" stroke-width="3.8915" stroke-linejoin="round" stroke-miterlimit="10" fill="none" transform="matrix(1 0 0 1.00024 92.0001 1989.57)"/><path d="M351.517 86.4371 273.55 86.4371" stroke="#FA8072" stroke-width="3.8915" stroke-linejoin="round" stroke-miterlimit="10" fill="none" transform="matrix(1 0 0 1.00024 92.0001 1989.57)"/><path d="M273.55 88.5431 273.55 84.3311" stroke="#FA8072" stroke-width="3.8915" stroke-linejoin="round" stroke-miterlimit="10" fill="none" transform="matrix(1 0 0 1.00024 92.0001 1989.57)"/><path d="M437.542 94.9984 437.542 90.8322" stroke="#FA8072" stroke-width="3.8915" stroke-linejoin="round" stroke-miterlimit="10" fill="none" transform="matrix(1 0 0 1.00024 92.0001 1989.57)"/><path d="M437.542 92.8924 353.76 92.8924" stroke="#FA8072" stroke-width="3.8915" stroke-linejoin="round" stroke-miterlimit="10" fill="none" transform="matrix(1 0 0 1.00024 92.0001 1989.57)"/><path d="M353.76 94.9984 353.76 90.8322" stroke="#FA8072" stroke-width="3.8915" stroke-linejoin="round" stroke-miterlimit="10" fill="none" transform="matrix(1 0 0 1.00024 92.0001 1989.57)"/><path d="M607.303 277.762 607.303 273.595" stroke="#FA8072" stroke-width="3.8915" stroke-linejoin="round" stroke-miterlimit="10" fill="none" transform="matrix(1 0 0 1.00024 92.0001 1989.57)"/><path d="M607.303 275.656 518.073 275.656" stroke="#FA8072" stroke-width="3.8915" stroke-linejoin="round" stroke-miterlimit="10" fill="none" transform="matrix(1 0 0 1.00024 92.0001 1989.57)"/><path d="M518.073 277.762 518.073 273.595" stroke="#FA8072" stroke-width="3.8915" stroke-linejoin="round" stroke-miterlimit="10" fill="none" transform="matrix(1 0 0 1.00024 92.0001 1989.57)"/><path d="M648.095 467.163 648.095 462.997" stroke="#FA8072" stroke-width="3.8915" stroke-linejoin="round" stroke-miterlimit="10" fill="none" transform="matrix(1 0 0 1.00024 92.0001 1989.57)"/><path d="M648.095 465.103 570.036 465.103" stroke="#FA8072" stroke-width="3.8915" stroke-linejoin="round" stroke-miterlimit="10" fill="none" transform="matrix(1 0 0 1.00024 92.0001 1989.57)"/><path d="M570.036 467.163 570.036 462.997" stroke="#FA8072" stroke-width="3.8915" stroke-linejoin="round" stroke-miterlimit="10" fill="none" transform="matrix(1 0 0 1.00024 92.0001 1989.57)"/><path d="M714.708 578.094 714.708 573.928" stroke="#FA8072" stroke-width="3.8915" stroke-linejoin="round" stroke-miterlimit="10" fill="none" transform="matrix(1 0 0 1.00024 92.0001 1989.57)"/><path d="M714.708 575.988 625.25 575.988" stroke="#FA8072" stroke-width="3.8915" stroke-linejoin="round" stroke-miterlimit="10" fill="none" transform="matrix(1 0 0 1.00024 92.0001 1989.57)"/><path d="M625.25 578.094 625.25 573.928" stroke="#FA8072" stroke-width="3.8915" stroke-linejoin="round" stroke-miterlimit="10" fill="none" transform="matrix(1 0 0 1.00024 92.0001 1989.57)"/><path d="M804.671 630.286 804.671 626.12" stroke="#FA8072" stroke-width="3.8915" stroke-linejoin="round" stroke-miterlimit="10" fill="none" transform="matrix(1 0 0 1.00024 92.0001 1989.57)"/><path d="M804.671 628.226 720.752 628.226" stroke="#FA8072" stroke-width="3.8915" stroke-linejoin="round" stroke-miterlimit="10" fill="none" transform="matrix(1 0 0 1.00024 92.0001 1989.57)"/><path d="M720.752 630.286 720.752 626.12" stroke="#FA8072" stroke-width="3.8915" stroke-linejoin="round" stroke-miterlimit="10" fill="none" transform="matrix(1 0 0 1.00024 92.0001 1989.57)"/><path d="M543.62 628.226C543.62 631.816 540.709 634.727 537.119 634.727 533.528 634.727 530.618 631.816 530.618 628.226 530.618 624.635 533.528 621.725 537.119 621.725 540.709 621.725 543.62 624.635 543.62 628.226Z" stroke="#ADD8E6" stroke-width="3.25055" stroke-linecap="round" stroke-linejoin="round" stroke-miterlimit="10" fill="#ADD8E6" transform="matrix(1 0 0 1.00024 92.0001 1989.57)"/><path d="M592.424 575.988C592.424 579.578 589.513 582.489 585.923 582.489 582.332 582.489 579.422 579.578 579.422 575.988 579.422 572.398 582.332 569.487 585.923 569.487 589.513 569.487 592.424 572.398 592.424 575.988Z" stroke="#ADD8E6" stroke-width="3.25055" stroke-linecap="round" stroke-linejoin="round" stroke-miterlimit="10" fill="#ADD8E6" transform="matrix(1 0 0 1.00024 92.0001 1989.57)"/><path d="M661.509 465.103C661.509 468.693 658.599 471.604 655.008 471.604 651.418 471.604 648.507 468.693 648.507 465.103 648.507 461.513 651.418 458.602 655.008 458.602 658.599 458.602 661.509 461.513 661.509 465.103Z" stroke="#ADD8E6" stroke-width="3.25055" stroke-linecap="round" stroke-linejoin="round" stroke-miterlimit="10" fill="#ADD8E6" transform="matrix(1 0 0 1.00024 92.0001 1989.57)"/><path d="M739.339 275.656C739.339 279.246 736.429 282.157 732.838 282.157 729.248 282.157 726.337 279.246 726.337 275.656 726.337 272.065 729.248 269.155 732.838 269.155 736.429 269.155 739.339 272.065 739.339 275.656Z" stroke="#ADD8E6" stroke-width="3.25055" stroke-linecap="round" stroke-linejoin="round" stroke-miterlimit="10" fill="#ADD8E6" transform="matrix(1 0 0 1.00024 92.0001 1989.57)"/><path d="M818.634 92.8924C818.634 96.4829 815.724 99.3935 812.133 99.3935 808.543 99.3935 805.632 96.4829 805.632 92.8924 805.632 89.302 808.543 86.3913 812.133 86.3913 815.724 86.3913 818.634 89.302 818.634 92.8924Z" stroke="#ADD8E6" stroke-width="3.25055" stroke-linecap="round" stroke-linejoin="round" stroke-miterlimit="10" fill="#ADD8E6" transform="matrix(1 0 0 1.00024 92.0001 1989.57)"/><path d="M936.89 86.4371C936.89 90.0276 933.98 92.9382 930.389 92.9382 926.799 92.9382 923.888 90.0276 923.888 86.4371 923.888 82.8466 926.799 79.936 930.389 79.936 933.98 79.936 936.89 82.8466 936.89 86.4371Z" stroke="#ADD8E6" stroke-width="3.25055" stroke-linecap="round" stroke-linejoin="round" stroke-miterlimit="10" fill="#ADD8E6" transform="matrix(1 0 0 1.00024 92.0001 1989.57)"/><path d="M1038.44 373.63C1038.44 377.22 1035.53 380.131 1031.93 380.131 1028.34 380.131 1025.43 377.22 1025.43 373.63 1025.43 370.039 1028.34 367.129 1031.93 367.129 1035.53 367.129 1038.44 370.039 1038.44 373.63Z" stroke="#ADD8E6" stroke-width="3.25055" stroke-linecap="round" stroke-linejoin="round" stroke-miterlimit="10" fill="#ADD8E6" transform="matrix(1 0 0 1.00024 92.0001 1989.57)"/><path d="M580.292 630.286 580.292 626.12" stroke="#ADD8E6" stroke-width="3.8915" stroke-linejoin="round" stroke-miterlimit="10" fill="none" transform="matrix(1 0 0 1.00024 92.0001 1989.57)"/><path d="M580.292 628.226 493.992 628.226" stroke="#ADD8E6" stroke-width="3.8915" stroke-linejoin="round" stroke-miterlimit="10" fill="none" transform="matrix(1 0 0 1.00024 92.0001 1989.57)"/><path d="M493.992 630.286 493.992 626.12" stroke="#ADD8E6" stroke-width="3.8915" stroke-linejoin="round" stroke-miterlimit="10" fill="none" transform="matrix(1 0 0 1.00024 92.0001 1989.57)"/><path d="M631.797 578.094 631.797 573.928" stroke="#ADD8E6" stroke-width="3.8915" stroke-linejoin="round" stroke-miterlimit="10" fill="none" transform="matrix(1 0 0 1.00024 92.0001 1989.57)"/><path d="M631.797 575.988 540.095 575.988" stroke="#ADD8E6" stroke-width="3.8915" stroke-linejoin="round" stroke-miterlimit="10" fill="none" transform="matrix(1 0 0 1.00024 92.0001 1989.57)"/><path d="M540.095 578.094 540.095 573.928" stroke="#ADD8E6" stroke-width="3.8915" stroke-linejoin="round" stroke-miterlimit="10" fill="none" transform="matrix(1 0 0 1.00024 92.0001 1989.57)"/><path d="M704.407 467.163 704.407 462.997" stroke="#ADD8E6" stroke-width="3.8915" stroke-linejoin="round" stroke-miterlimit="10" fill="none" transform="matrix(1 0 0 1.00024 92.0001 1989.57)"/><path d="M704.407 465.103 605.609 465.103" stroke="#ADD8E6" stroke-width="3.8915" stroke-linejoin="round" stroke-miterlimit="10" fill="none" transform="matrix(1 0 0 1.00024 92.0001 1989.57)"/><path d="M605.609 467.163 605.609 462.997" stroke="#ADD8E6" stroke-width="3.8915" stroke-linejoin="round" stroke-miterlimit="10" fill="none" transform="matrix(1 0 0 1.00024 92.0001 1989.57)"/><path d="M775.462 277.762 775.462 273.595" stroke="#ADD8E6" stroke-width="3.8915" stroke-linejoin="round" stroke-miterlimit="10" fill="none" transform="matrix(1 0 0 1.00024 92.0001 1989.57)"/><path d="M775.462 275.656 690.261 275.656" stroke="#ADD8E6" stroke-width="3.8915" stroke-linejoin="round" stroke-miterlimit="10" fill="none" transform="matrix(1 0 0 1.00024 92.0001 1989.57)"/><path d="M690.261 277.762 690.261 273.595" stroke="#ADD8E6" stroke-width="3.8915" stroke-linejoin="round" stroke-miterlimit="10" fill="none" transform="matrix(1 0 0 1.00024 92.0001 1989.57)"/><path d="M859.518 94.9984 859.518 90.8322" stroke="#ADD8E6" stroke-width="3.8915" stroke-linejoin="round" stroke-miterlimit="10" fill="none" transform="matrix(1 0 0 1.00024 92.0001 1989.57)"/><path d="M859.518 92.8924 764.749 92.8924" stroke="#ADD8E6" stroke-width="3.8915" stroke-linejoin="round" stroke-miterlimit="10" fill="none" transform="matrix(1 0 0 1.00024 92.0001 1989.57)"/><path d="M764.749 94.9984 764.749 90.8322" stroke="#ADD8E6" stroke-width="3.8915" stroke-linejoin="round" stroke-miterlimit="10" fill="none" transform="matrix(1 0 0 1.00024 92.0001 1989.57)"/><path d="M971.135 88.5431 971.135 84.3311" stroke="#ADD8E6" stroke-width="3.8915" stroke-linejoin="round" stroke-miterlimit="10" fill="none" transform="matrix(1 0 0 1.00024 92.0001 1989.57)"/><path d="M971.135 86.4371 889.597 86.4371" stroke="#ADD8E6" stroke-width="3.8915" stroke-linejoin="round" stroke-miterlimit="10" fill="none" transform="matrix(1 0 0 1.00024 92.0001 1989.57)"/><path d="M889.597 88.5431 889.597 84.3311" stroke="#ADD8E6" stroke-width="3.8915" stroke-linejoin="round" stroke-miterlimit="10" fill="none" transform="matrix(1 0 0 1.00024 92.0001 1989.57)"/><path d="M1073.78 375.69 1073.78 371.524" stroke="#ADD8E6" stroke-width="3.8915" stroke-linejoin="round" stroke-miterlimit="10" fill="none" transform="matrix(1 0 0 1.00024 92.0001 1989.57)"/><path d="M1073.78 373.63 990.089 373.63" stroke="#ADD8E6" stroke-width="3.8915" stroke-linejoin="round" stroke-miterlimit="10" fill="none" transform="matrix(1 0 0 1.00024 92.0001 1989.57)"/><path d="M990.089 375.69 990.089 371.524" stroke="#ADD8E6" stroke-width="3.8915" stroke-linejoin="round" stroke-miterlimit="10" fill="none" transform="matrix(1 0 0 1.00024 92.0001 1989.57)"/><path d="M526.131 628.226C526.131 631.816 523.22 634.727 519.63 634.727 516.039 634.727 513.129 631.816 513.129 628.226 513.129 624.635 516.039 621.725 519.63 621.725 523.22 621.725 526.131 624.635 526.131 628.226Z" stroke="#0000FF" stroke-width="3.25055" stroke-linecap="round" stroke-linejoin="round" stroke-miterlimit="10" fill="#0000FF" transform="matrix(1 0 0 1.00024 92.0001 1989.57)"/><path d="M622.457 575.988C622.457 579.578 619.546 582.489 615.956 582.489 612.366 582.489 609.455 579.578 609.455 575.988 609.455 572.398 612.366 569.487 615.956 569.487 619.546 569.487 622.457 572.398 622.457 575.988Z" stroke="#0000FF" stroke-width="3.25055" stroke-linecap="round" stroke-linejoin="round" stroke-miterlimit="10" fill="#0000FF" transform="matrix(1 0 0 1.00024 92.0001 1989.57)"/><path d="M712.74 465.103C712.74 468.693 709.829 471.604 706.239 471.604 702.648 471.604 699.738 468.693 699.738 465.103 699.738 461.513 702.648 458.602 706.239 458.602 709.829 458.602 712.74 461.513 712.74 465.103Z" stroke="#0000FF" stroke-width="3.25055" stroke-linecap="round" stroke-linejoin="round" stroke-miterlimit="10" fill="#0000FF" transform="matrix(1 0 0 1.00024 92.0001 1989.57)"/><path d="M803.068 275.656C803.068 279.246 800.158 282.157 796.567 282.157 792.977 282.157 790.066 279.246 790.066 275.656 790.066 272.065 792.977 269.155 796.567 269.155 800.158 269.155 803.068 272.065 803.068 275.656Z" stroke="#0000FF" stroke-width="3.25055" stroke-linecap="round" stroke-linejoin="round" stroke-miterlimit="10" fill="#0000FF" transform="matrix(1 0 0 1.00024 92.0001 1989.57)"/><path d="M889.689 92.8924C889.689 96.4829 886.778 99.3935 883.188 99.3935 879.597 99.3935 876.687 96.4829 876.687 92.8924 876.687 89.302 879.597 86.3913 883.188 86.3913 886.778 86.3913 889.689 89.302 889.689 92.8924Z" stroke="#0000FF" stroke-width="3.25055" stroke-linecap="round" stroke-linejoin="round" stroke-miterlimit="10" fill="#0000FF" transform="matrix(1 0 0 1.00024 92.0001 1989.57)"/><path d="M955.478 86.4371C955.478 90.0276 952.567 92.9382 948.977 92.9382 945.386 92.9382 942.476 90.0276 942.476 86.4371 942.476 82.8466 945.386 79.936 948.977 79.936 952.567 79.936 955.478 82.8466 955.478 86.4371Z" stroke="#0000FF" stroke-width="3.25055" stroke-linecap="round" stroke-linejoin="round" stroke-miterlimit="10" fill="#0000FF" transform="matrix(1 0 0 1.00024 92.0001 1989.57)"/><path d="M1008.81 373.63C1008.81 377.22 1005.9 380.131 1002.31 380.131 998.723 380.131 995.812 377.22 995.812 373.63 995.812 370.039 998.723 367.129 1002.31 367.129 1005.9 367.129 1008.81 370.039 1008.81 373.63Z" stroke="#0000FF" stroke-width="3.25055" stroke-linecap="round" stroke-linejoin="round" stroke-miterlimit="10" fill="#0000FF" transform="matrix(1 0 0 1.00024 92.0001 1989.57)"/><path d="M564.176 630.286 564.176 626.12" stroke="#0000FF" stroke-width="3.8915" stroke-linejoin="round" stroke-miterlimit="10" fill="none" transform="matrix(1 0 0 1.00024 92.0001 1989.57)"/><path d="M564.176 628.226 475.038 628.226" stroke="#0000FF" stroke-width="3.8915" stroke-linejoin="round" stroke-miterlimit="10" fill="none" transform="matrix(1 0 0 1.00024 92.0001 1989.57)"/><path d="M475.038 630.286 475.038 626.12" stroke="#0000FF" stroke-width="3.8915" stroke-linejoin="round" stroke-miterlimit="10" fill="none" transform="matrix(1 0 0 1.00024 92.0001 1989.57)"/><path d="M653.223 578.094 653.223 573.928" stroke="#0000FF" stroke-width="3.8915" stroke-linejoin="round" stroke-miterlimit="10" fill="none" transform="matrix(1 0 0 1.00024 92.0001 1989.57)"/><path d="M653.223 575.988 578.689 575.988" stroke="#0000FF" stroke-width="3.8915" stroke-linejoin="round" stroke-miterlimit="10" fill="none" transform="matrix(1 0 0 1.00024 92.0001 1989.57)"/><path d="M578.689 578.094 578.689 573.928" stroke="#0000FF" stroke-width="3.8915" stroke-linejoin="round" stroke-miterlimit="10" fill="none" transform="matrix(1 0 0 1.00024 92.0001 1989.57)"/><path d="M743.643 467.163 743.643 462.997" stroke="#0000FF" stroke-width="3.8915" stroke-linejoin="round" stroke-miterlimit="10" fill="none" transform="matrix(1 0 0 1.00024 92.0001 1989.57)"/><path d="M743.643 465.103 668.88 465.103" stroke="#0000FF" stroke-width="3.8915" stroke-linejoin="round" stroke-miterlimit="10" fill="none" transform="matrix(1 0 0 1.00024 92.0001 1989.57)"/><path d="M668.88 467.163 668.88 462.997" stroke="#0000FF" stroke-width="3.8915" stroke-linejoin="round" stroke-miterlimit="10" fill="none" transform="matrix(1 0 0 1.00024 92.0001 1989.57)"/><path d="M834.246 277.762 834.246 273.595" stroke="#0000FF" stroke-width="3.8915" stroke-linejoin="round" stroke-miterlimit="10" fill="none" transform="matrix(1 0 0 1.00024 92.0001 1989.57)"/><path d="M834.246 275.656 758.888 275.656" stroke="#0000FF" stroke-width="3.8915" stroke-linejoin="round" stroke-miterlimit="10" fill="none" transform="matrix(1 0 0 1.00024 92.0001 1989.57)"/><path d="M758.888 277.762 758.888 273.595" stroke="#0000FF" stroke-width="3.8915" stroke-linejoin="round" stroke-miterlimit="10" fill="none" transform="matrix(1 0 0 1.00024 92.0001 1989.57)"/><path d="M923.797 94.9984 923.797 90.8322" stroke="#0000FF" stroke-width="3.8915" stroke-linejoin="round" stroke-miterlimit="10" fill="none" transform="matrix(1 0 0 1.00024 92.0001 1989.57)"/><path d="M923.797 92.8924 842.624 92.8924" stroke="#0000FF" stroke-width="3.8915" stroke-linejoin="round" stroke-miterlimit="10" fill="none" transform="matrix(1 0 0 1.00024 92.0001 1989.57)"/><path d="M842.624 94.9984 842.624 90.8322" stroke="#0000FF" stroke-width="3.8915" stroke-linejoin="round" stroke-miterlimit="10" fill="none" transform="matrix(1 0 0 1.00024 92.0001 1989.57)"/><path d="M989.861 88.5431 989.861 84.3311" stroke="#0000FF" stroke-width="3.8915" stroke-linejoin="round" stroke-miterlimit="10" fill="none" transform="matrix(1 0 0 1.00024 92.0001 1989.57)"/><path d="M989.861 86.4371 908.139 86.4371" stroke="#0000FF" stroke-width="3.8915" stroke-linejoin="round" stroke-miterlimit="10" fill="none" transform="matrix(1 0 0 1.00024 92.0001 1989.57)"/><path d="M908.139 88.5431 908.139 84.3311" stroke="#0000FF" stroke-width="3.8915" stroke-linejoin="round" stroke-miterlimit="10" fill="none" transform="matrix(1 0 0 1.00024 92.0001 1989.57)"/><path d="M1045.49 375.69 1045.49 371.524" stroke="#0000FF" stroke-width="3.8915" stroke-linejoin="round" stroke-miterlimit="10" fill="none" transform="matrix(1 0 0 1.00024 92.0001 1989.57)"/><path d="M1045.49 373.63 959.186 373.63" stroke="#0000FF" stroke-width="3.8915" stroke-linejoin="round" stroke-miterlimit="10" fill="none" transform="matrix(1 0 0 1.00024 92.0001 1989.57)"/><path d="M959.186 375.69 959.186 371.524" stroke="#0000FF" stroke-width="3.8915" stroke-linejoin="round" stroke-miterlimit="10" fill="none" transform="matrix(1 0 0 1.00024 92.0001 1989.57)"/><path d="M284.995 373.63C284.995 377.22 282.085 380.131 278.494 380.131 274.904 380.131 271.993 377.22 271.993 373.63 271.993 370.039 274.904 367.129 278.494 367.129 282.085 367.129 284.995 370.039 284.995 373.63Z" stroke="#FF0000" stroke-width="3.25055" stroke-linecap="round" stroke-linejoin="round" stroke-miterlimit="10" fill="#FF0000" transform="matrix(1 0 0 1.00024 92.0001 1989.57)"/><path d="M319.378 86.4371C319.378 90.0276 316.467 92.9382 312.877 92.9382 309.286 92.9382 306.376 90.0276 306.376 86.4371 306.376 82.8466 309.286 79.936 312.877 79.936 316.467 79.936 319.378 82.8466 319.378 86.4371Z" stroke="#FF0000" stroke-width="3.25055" stroke-linecap="round" stroke-linejoin="round" stroke-miterlimit="10" fill="#FF0000" transform="matrix(1 0 0 1.00024 92.0001 1989.57)"/><path d="M389.608 92.8924C389.608 96.4829 386.697 99.3935 383.107 99.3935 379.516 99.3935 376.606 96.4829 376.606 92.8924 376.606 89.302 379.516 86.3913 383.107 86.3913 386.697 86.3913 389.608 89.302 389.608 92.8924Z" stroke="#FF0000" stroke-width="3.25055" stroke-linecap="round" stroke-linejoin="round" stroke-miterlimit="10" fill="#FF0000" transform="matrix(1 0 0 1.00024 92.0001 1989.57)"/><path d="M479.799 275.656C479.799 279.246 476.889 282.157 473.298 282.157 469.708 282.157 466.797 279.246 466.797 275.656 466.797 272.065 469.708 269.155 473.298 269.155 476.889 269.155 479.799 272.065 479.799 275.656Z" stroke="#FF0000" stroke-width="3.25055" stroke-linecap="round" stroke-linejoin="round" stroke-miterlimit="10" fill="#FF0000" transform="matrix(1 0 0 1.00024 92.0001 1989.57)"/><path d="M577.773 465.103C577.773 468.693 574.863 471.604 571.272 471.604 567.682 471.604 564.771 468.693 564.771 465.103 564.771 461.513 567.682 458.602 571.272 458.602 574.863 458.602 577.773 461.513 577.773 465.103Z" stroke="#FF0000" stroke-width="3.25055" stroke-linecap="round" stroke-linejoin="round" stroke-miterlimit="10" fill="#FF0000" transform="matrix(1 0 0 1.00024 92.0001 1989.57)"/><path d="M643.517 575.988C643.517 579.578 640.606 582.489 637.016 582.489 633.425 582.489 630.515 579.578 630.515 575.988 630.515 572.398 633.425 569.487 637.016 569.487 640.606 569.487 643.517 572.398 643.517 575.988Z" stroke="#FF0000" stroke-width="3.25055" stroke-linecap="round" stroke-linejoin="round" stroke-miterlimit="10" fill="#FF0000" transform="matrix(1 0 0 1.00024 92.0001 1989.57)"/><path d="M735.86 628.226C735.86 631.816 732.949 634.727 729.359 634.727 725.768 634.727 722.858 631.816 722.858 628.226 722.858 624.635 725.768 621.725 729.359 621.725 732.949 621.725 735.86 624.635 735.86 628.226Z" stroke="#FF0000" stroke-width="3.25055" stroke-linecap="round" stroke-linejoin="round" stroke-miterlimit="10" fill="#FF0000" transform="matrix(1 0 0 1.00024 92.0001 1989.57)"/><path d="M321.53 375.69 321.53 371.524" stroke="#FF0000" stroke-width="3.8915" stroke-linejoin="round" stroke-miterlimit="10" fill="none" transform="matrix(1 0 0 1.00024 92.0001 1989.57)"/><path d="M321.53 373.63 235.459 373.63" stroke="#FF0000" stroke-width="3.8915" stroke-linejoin="round" stroke-miterlimit="10" fill="none" transform="matrix(1 0 0 1.00024 92.0001 1989.57)"/><path d="M235.459 375.69 235.459 371.524" stroke="#FF0000" stroke-width="3.8915" stroke-linejoin="round" stroke-miterlimit="10" fill="none" transform="matrix(1 0 0 1.00024 92.0001 1989.57)"/><path d="M353.394 88.5431 353.394 84.3311" stroke="#FF0000" stroke-width="3.8915" stroke-linejoin="round" stroke-miterlimit="10" fill="none" transform="matrix(1 0 0 1.00024 92.0001 1989.57)"/><path d="M353.394 86.4371 272.359 86.4371" stroke="#FF0000" stroke-width="3.8915" stroke-linejoin="round" stroke-miterlimit="10" fill="none" transform="matrix(1 0 0 1.00024 92.0001 1989.57)"/><path d="M272.359 88.5431 272.359 84.3311" stroke="#FF0000" stroke-width="3.8915" stroke-linejoin="round" stroke-miterlimit="10" fill="none" transform="matrix(1 0 0 1.00024 92.0001 1989.57)"/><path d="M424.631 94.9984 424.631 90.8322" stroke="#FF0000" stroke-width="3.8915" stroke-linejoin="round" stroke-miterlimit="10" fill="none" transform="matrix(1 0 0 1.00024 92.0001 1989.57)"/><path d="M424.631 92.8924 341.536 92.8924" stroke="#FF0000" stroke-width="3.8915" stroke-linejoin="round" stroke-miterlimit="10" fill="none" transform="matrix(1 0 0 1.00024 92.0001 1989.57)"/><path d="M341.536 94.9984 341.536 90.8322" stroke="#FF0000" stroke-width="3.8915" stroke-linejoin="round" stroke-miterlimit="10" fill="none" transform="matrix(1 0 0 1.00024 92.0001 1989.57)"/><path d="M510.107 277.762 510.107 273.595" stroke="#FF0000" stroke-width="3.8915" stroke-linejoin="round" stroke-miterlimit="10" fill="none" transform="matrix(1 0 0 1.00024 92.0001 1989.57)"/><path d="M510.107 275.656 436.535 275.656" stroke="#FF0000" stroke-width="3.8915" stroke-linejoin="round" stroke-miterlimit="10" fill="none" transform="matrix(1 0 0 1.00024 92.0001 1989.57)"/><path d="M436.535 277.762 436.535 273.595" stroke="#FF0000" stroke-width="3.8915" stroke-linejoin="round" stroke-miterlimit="10" fill="none" transform="matrix(1 0 0 1.00024 92.0001 1989.57)"/><path d="M606.525 467.163 606.525 462.997" stroke="#FF0000" stroke-width="3.8915" stroke-linejoin="round" stroke-miterlimit="10" fill="none" transform="matrix(1 0 0 1.00024 92.0001 1989.57)"/><path d="M606.525 465.103 536.02 465.103" stroke="#FF0000" stroke-width="3.8915" stroke-linejoin="round" stroke-miterlimit="10" fill="none" transform="matrix(1 0 0 1.00024 92.0001 1989.57)"/><path d="M536.02 467.163 536.02 462.997" stroke="#FF0000" stroke-width="3.8915" stroke-linejoin="round" stroke-miterlimit="10" fill="none" transform="matrix(1 0 0 1.00024 92.0001 1989.57)"/><path d="M671.215 578.094 671.215 573.928" stroke="#FF0000" stroke-width="3.8915" stroke-linejoin="round" stroke-miterlimit="10" fill="none" transform="matrix(1 0 0 1.00024 92.0001 1989.57)"/><path d="M671.215 575.988 602.771 575.988" stroke="#FF0000" stroke-width="3.8915" stroke-linejoin="round" stroke-miterlimit="10" fill="none" transform="matrix(1 0 0 1.00024 92.0001 1989.57)"/><path d="M602.771 578.094 602.771 573.928" stroke="#FF0000" stroke-width="3.8915" stroke-linejoin="round" stroke-miterlimit="10" fill="none" transform="matrix(1 0 0 1.00024 92.0001 1989.57)"/><path d="M773.356 630.286 773.356 626.12" stroke="#FF0000" stroke-width="3.8915" stroke-linejoin="round" stroke-miterlimit="10" fill="none" transform="matrix(1 0 0 1.00024 92.0001 1989.57)"/><path d="M773.356 628.226 685.408 628.226" stroke="#FF0000" stroke-width="3.8915" stroke-linejoin="round" stroke-miterlimit="10" fill="none" transform="matrix(1 0 0 1.00024 92.0001 1989.57)"/><path d="M685.408 630.286 685.408 626.12" stroke="#FF0000" stroke-width="3.8915" stroke-linejoin="round" stroke-miterlimit="10" fill="none" transform="matrix(1 0 0 1.00024 92.0001 1989.57)"/><path d="M216.825 591.646C216.825 595.236 213.915 598.147 210.324 598.147 206.734 598.147 203.823 595.236 203.823 591.646 203.823 588.055 206.734 585.144 210.324 585.144 213.915 585.144 216.825 588.055 216.825 591.646Z" stroke="#FA8072" stroke-width="3.25055" stroke-linecap="round" stroke-linejoin="round" stroke-miterlimit="10" fill="#FA8072" transform="matrix(1 0 0 1.00024 92.0001 1989.57)"/><path d="M216.825 591.646C216.825 595.236 213.915 598.147 210.324 598.147 206.734 598.147 203.823 595.236 203.823 591.646 203.823 588.055 206.734 585.144 210.324 585.144 213.915 585.144 216.825 588.055 216.825 591.646Z" stroke="#FA8072" stroke-width="3.25055" stroke-linecap="round" stroke-linejoin="round" stroke-miterlimit="10" fill="#FA8072" transform="matrix(1 0 0 1.00024 92.0001 1989.57)"/><path d="M216.825 591.646C216.825 595.236 213.915 598.147 210.324 598.147 206.734 598.147 203.823 595.236 203.823 591.646 203.823 588.055 206.734 585.144 210.324 585.144 213.915 585.144 216.825 588.055 216.825 591.646Z" stroke="#FA8072" stroke-width="3.25055" stroke-linecap="round" stroke-linejoin="round" stroke-miterlimit="10" fill="#FA8072" transform="matrix(1 0 0 1.00024 92.0001 1989.57)"/><path d="M216.825 591.646C216.825 595.236 213.915 598.147 210.324 598.147 206.734 598.147 203.823 595.236 203.823 591.646 203.823 588.055 206.734 585.144 210.324 585.144 213.915 585.144 216.825 588.055 216.825 591.646Z" stroke="#FA8072" stroke-width="3.25055" stroke-linecap="round" stroke-linejoin="round" stroke-miterlimit="10" fill="#FA8072" transform="matrix(1 0 0 1.00024 92.0001 1989.57)"/><path d="M216.825 591.646C216.825 595.236 213.915 598.147 210.324 598.147 206.734 598.147 203.823 595.236 203.823 591.646 203.823 588.055 206.734 585.144 210.324 585.144 213.915 585.144 216.825 588.055 216.825 591.646Z" stroke="#FA8072" stroke-width="3.25055" stroke-linecap="round" stroke-linejoin="round" stroke-miterlimit="10" fill="#FA8072" transform="matrix(1 0 0 1.00024 92.0001 1989.57)"/><path d="M216.825 591.646C216.825 595.236 213.915 598.147 210.324 598.147 206.734 598.147 203.823 595.236 203.823 591.646 203.823 588.055 206.734 585.144 210.324 585.144 213.915 585.144 216.825 588.055 216.825 591.646Z" stroke="#FA8072" stroke-width="3.25055" stroke-linecap="round" stroke-linejoin="round" stroke-miterlimit="10" fill="#FA8072" transform="matrix(1 0 0 1.00024 92.0001 1989.57)"/><path d="M216.825 591.646C216.825 595.236 213.915 598.147 210.324 598.147 206.734 598.147 203.823 595.236 203.823 591.646 203.823 588.055 206.734 585.144 210.324 585.144 213.915 585.144 216.825 588.055 216.825 591.646Z" stroke="#FA8072" stroke-width="3.25055" stroke-linecap="round" stroke-linejoin="round" stroke-miterlimit="10" fill="#FA8072" transform="matrix(1 0 0 1.00024 92.0001 1989.57)"/><path d="M216.825 591.646C216.825 595.236 213.915 598.147 210.324 598.147 206.734 598.147 203.823 595.236 203.823 591.646 203.823 588.055 206.734 585.144 210.324 585.144 213.915 585.144 216.825 588.055 216.825 591.646Z" stroke="#FA8072" stroke-width="3.25055" stroke-linecap="round" stroke-linejoin="round" stroke-miterlimit="10" fill="#FA8072" transform="matrix(1 0 0 1.00024 92.0001 1989.57)"/><path d="M216.825 591.646C216.825 595.236 213.915 598.147 210.324 598.147 206.734 598.147 203.823 595.236 203.823 591.646 203.823 588.055 206.734 585.144 210.324 585.144 213.915 585.144 216.825 588.055 216.825 591.646Z" stroke="#FA8072" stroke-width="3.25055" stroke-linecap="round" stroke-linejoin="round" stroke-miterlimit="10" fill="#FA8072" transform="matrix(1 0 0 1.00024 92.0001 1989.57)"/><path d="M216.825 591.646C216.825 595.236 213.915 598.147 210.324 598.147 206.734 598.147 203.823 595.236 203.823 591.646 203.823 588.055 206.734 585.144 210.324 585.144 213.915 585.144 216.825 588.055 216.825 591.646Z" stroke="#FA8072" stroke-width="3.25055" stroke-linecap="round" stroke-linejoin="round" stroke-miterlimit="10" fill="#FA8072" transform="matrix(1 0 0 1.00024 92.0001 1989.57)"/><path d="M216.825 623.006C216.825 626.597 213.915 629.508 210.324 629.508 206.734 629.508 203.823 626.597 203.823 623.006 203.823 619.416 206.734 616.505 210.324 616.505 213.915 616.505 216.825 619.416 216.825 623.006Z" stroke="#FF0000" stroke-width="3.25055" stroke-linecap="round" stroke-linejoin="round" stroke-miterlimit="10" fill="#FF0000" transform="matrix(1 0 0 1.00024 92.0001 1989.57)"/><path d="M216.825 623.006C216.825 626.597 213.915 629.508 210.324 629.508 206.734 629.508 203.823 626.597 203.823 623.006 203.823 619.416 206.734 616.505 210.324 616.505 213.915 616.505 216.825 619.416 216.825 623.006Z" stroke="#FF0000" stroke-width="3.25055" stroke-linecap="round" stroke-linejoin="round" stroke-miterlimit="10" fill="#FF0000" transform="matrix(1 0 0 1.00024 92.0001 1989.57)"/><path d="M216.825 623.006C216.825 626.597 213.915 629.508 210.324 629.508 206.734 629.508 203.823 626.597 203.823 623.006 203.823 619.416 206.734 616.505 210.324 616.505 213.915 616.505 216.825 619.416 216.825 623.006Z" stroke="#FF0000" stroke-width="3.25055" stroke-linecap="round" stroke-linejoin="round" stroke-miterlimit="10" fill="#FF0000" transform="matrix(1 0 0 1.00024 92.0001 1989.57)"/><path d="M216.825 623.006C216.825 626.597 213.915 629.508 210.324 629.508 206.734 629.508 203.823 626.597 203.823 623.006 203.823 619.416 206.734 616.505 210.324 616.505 213.915 616.505 216.825 619.416 216.825 623.006Z" stroke="#FF0000" stroke-width="3.25055" stroke-linecap="round" stroke-linejoin="round" stroke-miterlimit="10" fill="#FF0000" transform="matrix(1 0 0 1.00024 92.0001 1989.57)"/><path d="M216.825 623.006C216.825 626.597 213.915 629.508 210.324 629.508 206.734 629.508 203.823 626.597 203.823 623.006 203.823 619.416 206.734 616.505 210.324 616.505 213.915 616.505 216.825 619.416 216.825 623.006Z" stroke="#FF0000" stroke-width="3.25055" stroke-linecap="round" stroke-linejoin="round" stroke-miterlimit="10" fill="#FF0000" transform="matrix(1 0 0 1.00024 92.0001 1989.57)"/><path d="M216.825 623.006C216.825 626.597 213.915 629.508 210.324 629.508 206.734 629.508 203.823 626.597 203.823 623.006 203.823 619.416 206.734 616.505 210.324 616.505 213.915 616.505 216.825 619.416 216.825 623.006Z" stroke="#FF0000" stroke-width="3.25055" stroke-linecap="round" stroke-linejoin="round" stroke-miterlimit="10" fill="#FF0000" transform="matrix(1 0 0 1.00024 92.0001 1989.57)"/><path d="M216.825 623.006C216.825 626.597 213.915 629.508 210.324 629.508 206.734 629.508 203.823 626.597 203.823 623.006 203.823 619.416 206.734 616.505 210.324 616.505 213.915 616.505 216.825 619.416 216.825 623.006Z" stroke="#FF0000" stroke-width="3.25055" stroke-linecap="round" stroke-linejoin="round" stroke-miterlimit="10" fill="#FF0000" transform="matrix(1 0 0 1.00024 92.0001 1989.57)"/><path d="M216.825 623.006C216.825 626.597 213.915 629.508 210.324 629.508 206.734 629.508 203.823 626.597 203.823 623.006 203.823 619.416 206.734 616.505 210.324 616.505 213.915 616.505 216.825 619.416 216.825 623.006Z" stroke="#FF0000" stroke-width="3.25055" stroke-linecap="round" stroke-linejoin="round" stroke-miterlimit="10" fill="#FF0000" transform="matrix(1 0 0 1.00024 92.0001 1989.57)"/><path d="M216.825 623.006C216.825 626.597 213.915 629.508 210.324 629.508 206.734 629.508 203.823 626.597 203.823 623.006 203.823 619.416 206.734 616.505 210.324 616.505 213.915 616.505 216.825 619.416 216.825 623.006Z" stroke="#FF0000" stroke-width="3.25055" stroke-linecap="round" stroke-linejoin="round" stroke-miterlimit="10" fill="#FF0000" transform="matrix(1 0 0 1.00024 92.0001 1989.57)"/><path d="M216.825 623.006C216.825 626.597 213.915 629.508 210.324 629.508 206.734 629.508 203.823 626.597 203.823 623.006 203.823 619.416 206.734 616.505 210.324 616.505 213.915 616.505 216.825 619.416 216.825 623.006Z" stroke="#FF0000" stroke-width="3.25055" stroke-linecap="round" stroke-linejoin="round" stroke-miterlimit="10" fill="#FF0000" transform="matrix(1 0 0 1.00024 92.0001 1989.57)"/><path d="M910.474 591.646C910.474 595.236 907.563 598.147 903.973 598.147 900.382 598.147 897.472 595.236 897.472 591.646 897.472 588.055 900.382 585.144 903.973 585.144 907.563 585.144 910.474 588.055 910.474 591.646Z" stroke="#ADD8E6" stroke-width="3.25055" stroke-linecap="round" stroke-linejoin="round" stroke-miterlimit="10" fill="#ADD8E6" transform="matrix(1 0 0 1.00024 92.0001 1989.57)"/><path d="M910.474 591.646C910.474 595.236 907.563 598.147 903.973 598.147 900.382 598.147 897.472 595.236 897.472 591.646 897.472 588.055 900.382 585.144 903.973 585.144 907.563 585.144 910.474 588.055 910.474 591.646Z" stroke="#ADD8E6" stroke-width="3.25055" stroke-linecap="round" stroke-linejoin="round" stroke-miterlimit="10" fill="#ADD8E6" transform="matrix(1 0 0 1.00024 92.0001 1989.57)"/><path d="M910.474 591.646C910.474 595.236 907.563 598.147 903.973 598.147 900.382 598.147 897.472 595.236 897.472 591.646 897.472 588.055 900.382 585.144 903.973 585.144 907.563 585.144 910.474 588.055 910.474 591.646Z" stroke="#ADD8E6" stroke-width="3.25055" stroke-linecap="round" stroke-linejoin="round" stroke-miterlimit="10" fill="#ADD8E6" transform="matrix(1 0 0 1.00024 92.0001 1989.57)"/><path d="M910.474 591.646C910.474 595.236 907.563 598.147 903.973 598.147 900.382 598.147 897.472 595.236 897.472 591.646 897.472 588.055 900.382 585.144 903.973 585.144 907.563 585.144 910.474 588.055 910.474 591.646Z" stroke="#ADD8E6" stroke-width="3.25055" stroke-linecap="round" stroke-linejoin="round" stroke-miterlimit="10" fill="#ADD8E6" transform="matrix(1 0 0 1.00024 92.0001 1989.57)"/><path d="M910.474 591.646C910.474 595.236 907.563 598.147 903.973 598.147 900.382 598.147 897.472 595.236 897.472 591.646 897.472 588.055 900.382 585.144 903.973 585.144 907.563 585.144 910.474 588.055 910.474 591.646Z" stroke="#ADD8E6" stroke-width="3.25055" stroke-linecap="round" stroke-linejoin="round" stroke-miterlimit="10" fill="#ADD8E6" transform="matrix(1 0 0 1.00024 92.0001 1989.57)"/><path d="M910.474 591.646C910.474 595.236 907.563 598.147 903.973 598.147 900.382 598.147 897.472 595.236 897.472 591.646 897.472 588.055 900.382 585.144 903.973 585.144 907.563 585.144 910.474 588.055 910.474 591.646Z" stroke="#ADD8E6" stroke-width="3.25055" stroke-linecap="round" stroke-linejoin="round" stroke-miterlimit="10" fill="#ADD8E6" transform="matrix(1 0 0 1.00024 92.0001 1989.57)"/><path d="M910.474 591.646C910.474 595.236 907.563 598.147 903.973 598.147 900.382 598.147 897.472 595.236 897.472 591.646 897.472 588.055 900.382 585.144 903.973 585.144 907.563 585.144 910.474 588.055 910.474 591.646Z" stroke="#ADD8E6" stroke-width="3.25055" stroke-linecap="round" stroke-linejoin="round" stroke-miterlimit="10" fill="#ADD8E6" transform="matrix(1 0 0 1.00024 92.0001 1989.57)"/><path d="M910.474 591.646C910.474 595.236 907.563 598.147 903.973 598.147 900.382 598.147 897.472 595.236 897.472 591.646 897.472 588.055 900.382 585.144 903.973 585.144 907.563 585.144 910.474 588.055 910.474 591.646Z" stroke="#ADD8E6" stroke-width="3.25055" stroke-linecap="round" stroke-linejoin="round" stroke-miterlimit="10" fill="#ADD8E6" transform="matrix(1 0 0 1.00024 92.0001 1989.57)"/><path d="M910.474 591.646C910.474 595.236 907.563 598.147 903.973 598.147 900.382 598.147 897.472 595.236 897.472 591.646 897.472 588.055 900.382 585.144 903.973 585.144 907.563 585.144 910.474 588.055 910.474 591.646Z" stroke="#ADD8E6" stroke-width="3.25055" stroke-linecap="round" stroke-linejoin="round" stroke-miterlimit="10" fill="#ADD8E6" transform="matrix(1 0 0 1.00024 92.0001 1989.57)"/><path d="M910.474 591.646C910.474 595.236 907.563 598.147 903.973 598.147 900.382 598.147 897.472 595.236 897.472 591.646 897.472 588.055 900.382 585.144 903.973 585.144 907.563 585.144 910.474 588.055 910.474 591.646Z" stroke="#ADD8E6" stroke-width="3.25055" stroke-linecap="round" stroke-linejoin="round" stroke-miterlimit="10" fill="#ADD8E6" transform="matrix(1 0 0 1.00024 92.0001 1989.57)"/><path d="M910.474 623.006C910.474 626.597 907.563 629.508 903.973 629.508 900.382 629.508 897.472 626.597 897.472 623.006 897.472 619.416 900.382 616.505 903.973 616.505 907.563 616.505 910.474 619.416 910.474 623.006Z" stroke="#0000FF" stroke-width="3.25055" stroke-linecap="round" stroke-linejoin="round" stroke-miterlimit="10" fill="#0000FF" transform="matrix(1 0 0 1.00024 92.0001 1989.57)"/><path d="M910.474 623.006C910.474 626.597 907.563 629.508 903.973 629.508 900.382 629.508 897.472 626.597 897.472 623.006 897.472 619.416 900.382 616.505 903.973 616.505 907.563 616.505 910.474 619.416 910.474 623.006Z" stroke="#0000FF" stroke-width="3.25055" stroke-linecap="round" stroke-linejoin="round" stroke-miterlimit="10" fill="#0000FF" transform="matrix(1 0 0 1.00024 92.0001 1989.57)"/><path d="M910.474 623.006C910.474 626.597 907.563 629.508 903.973 629.508 900.382 629.508 897.472 626.597 897.472 623.006 897.472 619.416 900.382 616.505 903.973 616.505 907.563 616.505 910.474 619.416 910.474 623.006Z" stroke="#0000FF" stroke-width="3.25055" stroke-linecap="round" stroke-linejoin="round" stroke-miterlimit="10" fill="#0000FF" transform="matrix(1 0 0 1.00024 92.0001 1989.57)"/><path d="M910.474 623.006C910.474 626.597 907.563 629.508 903.973 629.508 900.382 629.508 897.472 626.597 897.472 623.006 897.472 619.416 900.382 616.505 903.973 616.505 907.563 616.505 910.474 619.416 910.474 623.006Z" stroke="#0000FF" stroke-width="3.25055" stroke-linecap="round" stroke-linejoin="round" stroke-miterlimit="10" fill="#0000FF" transform="matrix(1 0 0 1.00024 92.0001 1989.57)"/><path d="M910.474 623.006C910.474 626.597 907.563 629.508 903.973 629.508 900.382 629.508 897.472 626.597 897.472 623.006 897.472 619.416 900.382 616.505 903.973 616.505 907.563 616.505 910.474 619.416 910.474 623.006Z" stroke="#0000FF" stroke-width="3.25055" stroke-linecap="round" stroke-linejoin="round" stroke-miterlimit="10" fill="#0000FF" transform="matrix(1 0 0 1.00024 92.0001 1989.57)"/><path d="M910.474 623.006C910.474 626.597 907.563 629.508 903.973 629.508 900.382 629.508 897.472 626.597 897.472 623.006 897.472 619.416 900.382 616.505 903.973 616.505 907.563 616.505 910.474 619.416 910.474 623.006Z" stroke="#0000FF" stroke-width="3.25055" stroke-linecap="round" stroke-linejoin="round" stroke-miterlimit="10" fill="#0000FF" transform="matrix(1 0 0 1.00024 92.0001 1989.57)"/><path d="M910.474 623.006C910.474 626.597 907.563 629.508 903.973 629.508 900.382 629.508 897.472 626.597 897.472 623.006 897.472 619.416 900.382 616.505 903.973 616.505 907.563 616.505 910.474 619.416 910.474 623.006Z" stroke="#0000FF" stroke-width="3.25055" stroke-linecap="round" stroke-linejoin="round" stroke-miterlimit="10" fill="#0000FF" transform="matrix(1 0 0 1.00024 92.0001 1989.57)"/><path d="M910.474 623.006C910.474 626.597 907.563 629.508 903.973 629.508 900.382 629.508 897.472 626.597 897.472 623.006 897.472 619.416 900.382 616.505 903.973 616.505 907.563 616.505 910.474 619.416 910.474 623.006Z" stroke="#0000FF" stroke-width="3.25055" stroke-linecap="round" stroke-linejoin="round" stroke-miterlimit="10" fill="#0000FF" transform="matrix(1 0 0 1.00024 92.0001 1989.57)"/><path d="M910.474 623.006C910.474 626.597 907.563 629.508 903.973 629.508 900.382 629.508 897.472 626.597 897.472 623.006 897.472 619.416 900.382 616.505 903.973 616.505 907.563 616.505 910.474 619.416 910.474 623.006Z" stroke="#0000FF" stroke-width="3.25055" stroke-linecap="round" stroke-linejoin="round" stroke-miterlimit="10" fill="#0000FF" transform="matrix(1 0 0 1.00024 92.0001 1989.57)"/><path d="M910.474 623.006C910.474 626.597 907.563 629.508 903.973 629.508 900.382 629.508 897.472 626.597 897.472 623.006 897.472 619.416 900.382 616.505 903.973 616.505 907.563 616.505 910.474 619.416 910.474 623.006Z" stroke="#0000FF" stroke-width="3.25055" stroke-linecap="round" stroke-linejoin="round" stroke-miterlimit="10" fill="#0000FF" transform="matrix(1 0 0 1.00024 92.0001 1989.57)"/></g><g><path d="M125.535 659.129 125.535 25.0887" stroke="#000000" stroke-width="4.89871" stroke-linejoin="round" stroke-miterlimit="10" fill="none" transform="matrix(1 0 0 1.00024 92.0001 1989.57)"/><text fill="#4D4D4D" font-family="Arial,Arial_MSFontService,sans-serif" font-weight="400" font-size="7" transform="matrix(4.57824 0 0 4.57934 176.652 2656)">0</text><text fill="#4D4D4D" font-family="Arial,Arial_MSFontService,sans-serif" font-weight="400" font-size="7" transform="matrix(4.57824 0 0 4.57934 158.339 2447)">10</text><text fill="#4D4D4D" font-family="Arial,Arial_MSFontService,sans-serif" font-weight="400" font-size="7" transform="matrix(4.57824 0 0 4.57934 158.339 2238)">20</text><text fill="#4D4D4D" font-family="Arial,Arial_MSFontService,sans-serif" font-weight="400" font-size="7" transform="matrix(4.57824 0 0 4.57934 158.339 2029)">30</text><path d="M112.991 654.322 125.535 654.322" stroke="#333333" stroke-width="4.89871" stroke-linejoin="round" stroke-miterlimit="10" fill="none" transform="matrix(1 0 0 1.00024 92.0001 1989.57)"/><path d="M112.991 445.462 125.535 445.462" stroke="#333333" stroke-width="4.89871" stroke-linejoin="round" stroke-miterlimit="10" fill="none" transform="matrix(1 0 0 1.00024 92.0001 1989.57)"/><path d="M112.991 236.603 125.535 236.603" stroke="#333333" stroke-width="4.89871" stroke-linejoin="round" stroke-miterlimit="10" fill="none" transform="matrix(1 0 0 1.00024 92.0001 1989.57)"/><path d="M112.991 27.7441 125.535 27.7441" stroke="#333333" stroke-width="4.89871" stroke-linejoin="round" stroke-miterlimit="10" fill="none" transform="matrix(1 0 0 1.00024 92.0001 1989.57)"/><path d="M125.535 659.129 1142.91 659.129" stroke="#000000" stroke-width="4.89871" stroke-linejoin="round" stroke-miterlimit="10" fill="none" transform="matrix(1 0 0 1.00024 92.0001 1989.57)"/><path d="M248.873 671.673 248.873 659.129" stroke="#333333" stroke-width="4.89871" stroke-linejoin="round" stroke-miterlimit="10" fill="none" transform="matrix(1 0 0 1.00024 92.0001 1989.57)"/><path d="M441.525 671.673 441.525 659.129" stroke="#333333" stroke-width="4.89871" stroke-linejoin="round" stroke-miterlimit="10" fill="none" transform="matrix(1 0 0 1.00024 92.0001 1989.57)"/><path d="M634.223 671.673 634.223 659.129" stroke="#333333" stroke-width="4.89871" stroke-linejoin="round" stroke-miterlimit="10" fill="none" transform="matrix(1 0 0 1.00024 92.0001 1989.57)"/><path d="M826.921 671.673 826.921 659.129" stroke="#333333" stroke-width="4.89871" stroke-linejoin="round" stroke-miterlimit="10" fill="none" transform="matrix(1 0 0 1.00024 92.0001 1989.57)"/><path d="M1019.57 671.673 1019.57 659.129" stroke="#333333" stroke-width="4.89871" stroke-linejoin="round" stroke-miterlimit="10" fill="none" transform="matrix(1 0 0 1.00024 92.0001 1989.57)"/><text fill="#4D4D4D" font-family="Arial,Arial_MSFontService,sans-serif" font-weight="400" font-size="7" transform="matrix(4.57824 0 0 4.57934 317.982 2694)">-</text><text fill="#4D4D4D" font-family="Arial,Arial_MSFontService,sans-serif" font-weight="400" font-size="7" transform="matrix(4.57824 0 0 4.57934 327.138 2694)">20</text><text fill="#4D4D4D" font-family="Arial,Arial_MSFontService,sans-serif" font-weight="400" font-size="7" transform="matrix(4.57824 0 0 4.57934 510.634 2694)">-</text><text fill="#4D4D4D" font-family="Arial,Arial_MSFontService,sans-serif" font-weight="400" font-size="7" transform="matrix(4.57824 0 0 4.57934 519.791 2694)">10</text><text fill="#4D4D4D" font-family="Arial,Arial_MSFontService,sans-serif" font-weight="400" font-size="7" transform="matrix(4.57824 0 0 4.57934 717.067 2694)">0</text><text fill="#4D4D4D" font-family="Arial,Arial_MSFontService,sans-serif" font-weight="400" font-size="7" transform="matrix(4.57824 0 0 4.57934 900.608 2694)">10</text><text fill="#4D4D4D" font-family="Arial,Arial_MSFontService,sans-serif" font-weight="400" font-size="7" transform="matrix(4.57824 0 0 4.57934 1093.26 2694)">20</text><text font-family="Arial,Arial_MSFontService,sans-serif" font-weight="400" font-size="7" transform="matrix(4.57824 0 0 4.57934 662.128 2737)">Angle </text><text font-family="Arial,Arial_MSFontService,sans-serif" font-weight="400" font-size="7" transform="matrix(4.57824 0 0 4.57934 758.271 2737)">(</text><text font-family="Arial,Arial_MSFontService,sans-serif" font-weight="400" font-size="7" transform="matrix(4.57824 0 0 4.57934 767.427 2737)"></text><text font-family="Arial,Arial_MSFontService,sans-serif" font-weight="400" font-size="7" transform="matrix(4.57824 0 0 4.57934 781.162 2737)">)</text><text font-family="Arial,Arial_MSFontService,sans-serif" font-weight="400" font-size="7" transform="matrix(2.80336e-16 -4.57934 4.57824 2.80404e-16 140.026 2590)">Probability of Biased Condition </text><text font-family="Arial,Arial_MSFontService,sans-serif" font-weight="400" font-size="7" transform="matrix(2.80336e-16 -4.57934 4.57824 2.80404e-16 140.026 2119)">(%)</text></g></g></g></g><text fill="#FA8072" font-family="Arial,Arial_MSFontService,sans-serif" font-weight="400" font-size="32" transform="matrix(1 0 0 1 320.968 2587)">neutral</text><text fill="#FF0000" font-family="Arial,Arial_MSFontService,sans-serif" font-weight="400" font-size="32" transform="matrix(1 0 0 1 320.968 2626)">biased</text><text fill="#ADD8E6" font-family="Arial,Arial_MSFontService,sans-serif" font-weight="400" font-size="32" transform="matrix(1 0 0 1 1011.61 2587)">neutral</text><text fill="#0000FF" font-family="Arial,Arial_MSFontService,sans-serif" font-weight="400" font-size="32" transform="matrix(1 0 0 1 1011.61 2626)">biased</text><rect x="642" y="1989" width="139" height="37.0001" fill="#FFFFFF"/><text font-family="Arial,Arial_MSFontService,sans-serif" font-weight="400" font-size="32" transform="matrix(1 0 0 1 645.025 2020)">180 km/h</text></g></svg>