<svg width="1169" height="781" xmlns="http://www.w3.org/2000/svg" xmlns:xlink="http://www.w3.org/1999/xlink" xml:space="preserve" overflow="hidden"><g transform="translate(-93 -1973)"><path d="M0 0 1169 0 1169 779.333-2.23738e-05 779.333Z" fill="#FFFFFF" transform="matrix(1 0 0 1.00067 93.0002 1973.57)"/><path d="M0 0 1169 0 1169 779.333-2.23738e-05 779.333Z" stroke="#FFFFFF" stroke-width="4.90291" stroke-linecap="round" stroke-linejoin="round" stroke-miterlimit="10" fill="#FFFFFF" transform="matrix(1 0 0 1.00067 93.0002 1973.57)"/><g><path d="M501.884 628.626 508.619 625.464 515.355 622.257 522.091 618.958 528.827 615.613 535.562 612.176 542.252 608.556 548.988 604.799 555.724 600.812 562.46 596.643 569.195 592.244 575.931 587.524 582.667 582.529 589.403 577.214 596.093 571.532 602.828 565.484 609.564 559.023 616.3 552.196 623.036 544.91 629.772 537.166 636.507 529.01 643.243 520.35 649.979 511.185 656.669 501.517 663.405 491.299 670.14 480.577 676.876 469.259 683.612 457.391 690.348 444.973 697.083 432.006 703.819 418.58 710.509 404.742 717.245 390.491 723.981 375.92 730.716 361.028 737.452 345.861 744.188 330.511 750.924 314.932 757.66 299.261 764.349 283.452 771.085 267.644 777.821 251.789 784.557 236.027 791.293 220.448 798.028 205.097 804.764 190.068 811.5 175.359 818.19 161.154 824.926 147.5 831.661 134.395 838.397 122.023 845.133 110.384 851.869 99.5703 858.604 89.6728 865.34 80.7834 872.03 72.9938 878.766 66.3496 885.502 61.0801 892.237 57.1395 898.973 54.7568 905.709 53.932 912.445 54.8484 919.181 57.5519 925.87 62.1799 932.606 68.824 939.342 77.5759 946.078 88.5273 952.814 101.77 959.549 117.074 966.285 134.303 973.021 153.273 979.711 173.847 986.447 195.796 993.182 218.935 999.918 243.175 1006.65 268.239 1013.39 294.037 1020.13 320.339 1026.86 347.007 1033.6 373.812 1033.6 374.087 1026.86 347.236 1020.13 320.568 1013.39 294.266 1006.65 268.469 999.918 243.358 993.182 219.165 986.447 196.025 979.711 174.076 973.021 153.502 966.285 134.532 959.549 117.303 952.814 101.999 946.078 88.8022 939.342 77.805 932.606 69.0531 925.87 62.409 919.181 57.781 912.445 55.0775 905.709 54.1611 898.973 54.9859 892.237 57.3686 885.502 61.3092 878.766 66.6245 872.03 73.2229 865.34 81.0125 858.604 89.9477 851.869 99.8452 845.133 110.613 838.397 122.252 831.661 134.624 824.926 147.729 818.19 161.384 811.5 175.588 804.764 190.297 798.028 205.326 791.293 220.677 784.557 236.302 777.821 252.064 771.085 267.873 764.349 283.727 757.66 299.49 750.924 315.207 744.188 330.74 737.452 346.09 730.716 361.257 723.981 376.149 717.245 390.72 710.509 404.971 703.819 418.809 697.083 432.235 690.348 445.202 683.612 457.62 676.876 469.534 670.14 480.806 663.405 491.574 656.669 501.746 649.979 511.414 643.243 520.533 636.507 529.193 629.772 537.395 623.036 545.139 616.3 552.425 609.564 559.252 602.828 565.713 596.093 571.761 589.403 577.443 582.667 582.804 575.931 587.799 569.195 592.473 562.46 596.872 555.724 601.041 548.988 605.028 542.252 608.785 535.562 612.359 528.827 615.842 522.091 619.187 515.355 622.44 508.619 625.693 501.884 628.901Z" fill="#999999" fill-opacity="0.4" transform="matrix(1 0 0 1.00067 93.0002 1973.57)"/><path d="M501.884 628.763 508.619 625.556 515.355 622.349 522.091 619.095 528.827 615.704 535.562 612.268 542.252 608.648 548.988 604.89 555.724 600.95 562.46 596.78 569.195 592.335 575.931 587.662 582.667 582.667 589.403 577.352 596.093 571.67 602.828 565.576 609.564 559.161 616.3 552.287 623.036 545.002 629.772 537.304 636.507 529.102 643.243 520.441 649.979 511.277 656.669 501.609 663.405 491.436 670.14 480.668 676.876 469.396 683.612 457.528 690.348 445.065 697.083 432.143 703.819 418.717 710.509 404.879 717.245 390.629 723.981 376.012 730.716 361.166 737.452 345.999 744.188 330.603 750.924 315.069 757.66 299.352 764.349 283.59 771.085 267.735 777.821 251.927 784.557 236.164 791.293 220.585 798.028 205.235 804.764 190.159 811.5 175.497 818.19 161.292 824.926 147.591 831.661 134.532 838.397 122.114 845.133 110.476 851.869 99.7077 858.604 89.8103 865.34 80.9209 872.03 73.0854 878.766 66.4871 885.502 61.1718 892.237 57.277 898.973 54.8484 905.709 54.0694 912.445 54.9859 919.181 57.6893 925.87 62.3173 932.606 68.9614 939.342 77.7134 946.078 88.6647 952.814 101.861 959.549 117.212 966.285 134.44 973.021 153.411 979.711 173.939 986.447 195.887 993.182 219.073 999.918 243.267 1006.65 268.377 1013.39 294.129 1020.13 320.43 1026.86 347.098 1033.6 373.95" stroke="#0000FF" stroke-width="1.97033" stroke-linejoin="round" stroke-miterlimit="10" fill="none" transform="matrix(1 0 0 1.00067 93.0002 1973.57)"/><path d="M235.935 373.812 242.671 347.007 249.407 320.339 256.143 294.037 262.878 268.239 269.614 243.175 276.35 218.935 283.086 195.796 289.776 173.847 296.511 153.273 303.247 134.303 309.983 117.074 316.719 101.77 323.454 88.5273 330.19 77.5759 336.926 68.824 343.616 62.1799 350.352 57.5519 357.087 54.8484 363.823 53.932 370.559 54.7568 377.295 57.1395 384.03 61.0801 390.766 66.3496 397.502 72.9938 404.192 80.7834 410.928 89.6728 417.664 99.5703 424.399 110.384 431.135 122.023 437.871 134.395 444.607 147.5 451.342 161.154 458.032 175.359 464.768 190.068 471.504 205.097 478.24 220.448 484.975 236.027 491.711 251.789 498.447 267.644 505.183 283.452 511.873 299.261 518.608 314.932 525.344 330.511 532.08 345.861 538.816 361.028 545.552 375.92 552.287 390.491 559.023 404.742 565.713 418.58 572.449 432.006 579.185 444.973 585.92 457.391 592.656 469.259 599.392 480.577 606.128 491.299 612.863 501.517 619.553 511.185 626.289 520.35 633.025 529.01 639.761 537.166 646.496 544.91 653.232 552.196 659.968 559.023 666.704 565.484 673.394 571.532 680.129 577.214 686.865 582.529 693.601 587.524 700.337 592.244 707.073 596.643 713.808 600.812 720.544 604.799 727.234 608.556 733.97 612.176 740.706 615.613 747.441 618.958 754.177 622.257 760.913 625.464 767.649 628.626 767.649 628.901 760.913 625.693 754.177 622.44 747.441 619.187 740.706 615.842 733.97 612.359 727.234 608.785 720.544 605.028 713.808 601.041 707.073 596.872 700.337 592.473 693.601 587.799 686.865 582.804 680.129 577.443 673.394 571.761 666.704 565.713 659.968 559.252 653.232 552.425 646.496 545.139 639.761 537.395 633.025 529.193 626.289 520.533 619.553 511.414 612.863 501.746 606.128 491.574 599.392 480.806 592.656 469.534 585.92 457.62 579.185 445.202 572.449 432.235 565.713 418.809 559.023 404.971 552.287 390.72 545.552 376.149 538.816 361.257 532.08 346.09 525.344 330.74 518.608 315.207 511.873 299.49 505.183 283.727 498.447 267.873 491.711 252.064 484.975 236.302 478.24 220.677 471.504 205.326 464.768 190.297 458.032 175.588 451.342 161.384 444.607 147.729 437.871 134.624 431.135 122.252 424.399 110.613 417.664 99.8452 410.928 89.9477 404.192 81.0125 397.502 73.2229 390.766 66.6245 384.03 61.3092 377.295 57.3686 370.559 54.9859 363.823 54.1611 357.087 55.0775 350.352 57.781 343.616 62.409 336.926 69.0531 330.19 77.805 323.454 88.8022 316.719 101.999 309.983 117.303 303.247 134.532 296.511 153.502 289.776 174.076 283.086 196.025 276.35 219.165 269.614 243.358 262.878 268.469 256.143 294.266 249.407 320.568 242.671 347.236 235.935 374.087Z" fill="#999999" fill-opacity="0.4" transform="matrix(1 0 0 1.00067 93.0002 1973.57)"/><path d="M235.935 373.95 242.671 347.098 249.407 320.43 256.143 294.129 262.878 268.377 269.614 243.267 276.35 219.073 283.086 195.887 289.776 173.939 296.511 153.411 303.247 134.44 309.983 117.212 316.719 101.861 323.454 88.6647 330.19 77.7134 336.926 68.9614 343.616 62.3173 350.352 57.6893 357.087 54.9859 363.823 54.0694 370.559 54.8484 377.295 57.277 384.03 61.1718 390.766 66.4871 397.502 73.0854 404.192 80.9209 410.928 89.8103 417.664 99.7077 424.399 110.476 431.135 122.114 437.871 134.532 444.607 147.591 451.342 161.292 458.032 175.497 464.768 190.159 471.504 205.235 478.24 220.585 484.975 236.164 491.711 251.927 498.447 267.735 505.183 283.59 511.873 299.352 518.608 315.069 525.344 330.603 532.08 345.999 538.816 361.166 545.552 376.012 552.287 390.629 559.023 404.879 565.713 418.717 572.449 432.143 579.185 445.065 585.92 457.528 592.656 469.396 599.392 480.668 606.128 491.436 612.863 501.609 619.553 511.277 626.289 520.441 633.025 529.102 639.761 537.304 646.496 545.002 653.232 552.287 659.968 559.161 666.704 565.576 673.394 571.67 680.129 577.352 686.865 582.667 693.601 587.662 700.337 592.335 707.073 596.78 713.808 600.95 720.544 604.89 727.234 608.648 733.97 612.268 740.706 615.704 747.441 619.095 754.177 622.349 760.913 625.556 767.649 628.763" stroke="#FF0000" stroke-width="1.97033" stroke-linejoin="round" stroke-miterlimit="10" fill="none" transform="matrix(1 0 0 1.00067 93.0002 1973.57)"/><path d="M767.649 628.763 729.983 628.763" stroke="#000000" stroke-width="1.97033" stroke-linejoin="round" stroke-miterlimit="10" fill="none" transform="matrix(1 0 0 1.00067 93.0002 1973.57)"/><path d="M744.28 620.516 729.983 628.763 744.28 637.011" stroke="#000000" stroke-width="1.97033" stroke-linejoin="round" stroke-miterlimit="10" fill="none" transform="matrix(1 0 0 1.00067 93.0002 1973.57)"/><path d="M235.935 373.95 278.733 373.95" stroke="#000000" stroke-width="1.97033" stroke-linejoin="round" stroke-miterlimit="10" fill="none" transform="matrix(1 0 0 1.00067 93.0002 1973.57)"/><path d="M264.436 382.198 278.733 373.95 264.436 365.702" stroke="#000000" stroke-width="1.97033" stroke-linejoin="round" stroke-miterlimit="10" fill="none" transform="matrix(1 0 0 1.00067 93.0002 1973.57)"/><path d="M501.884 275.892 473.703 275.892" stroke="#000000" stroke-width="1.97033" stroke-linejoin="round" stroke-miterlimit="10" fill="none" transform="matrix(1 0 0 1.00067 93.0002 1973.57)"/><path d="M488 267.644 473.703 275.892 488 284.139" stroke="#000000" stroke-width="1.97033" stroke-linejoin="round" stroke-miterlimit="10" fill="none" transform="matrix(1 0 0 1.00067 93.0002 1973.57)"/><path d="M413.173 92.972 383.435 92.972" stroke="#000000" stroke-width="1.97033" stroke-linejoin="round" stroke-miterlimit="10" fill="none" transform="matrix(1 0 0 1.00067 93.0002 1973.57)"/><path d="M397.685 84.7241 383.435 92.972 397.685 101.22" stroke="#000000" stroke-width="1.97033" stroke-linejoin="round" stroke-miterlimit="10" fill="none" transform="matrix(1 0 0 1.00067 93.0002 1973.57)"/><path d="M324.646 86.5111 313.145 86.5111" stroke="#000000" stroke-width="1.97033" stroke-linejoin="round" stroke-miterlimit="10" fill="none" transform="matrix(1 0 0 1.00067 93.0002 1973.57)"/><path d="M327.441 78.2632 313.145 86.5111 327.441 94.759" stroke="#000000" stroke-width="1.97033" stroke-linejoin="round" stroke-miterlimit="10" fill="none" transform="matrix(1 0 0 1.00067 93.0002 1973.57)"/><path d="M679.121 576.481 637.561 576.481" stroke="#000000" stroke-width="1.97033" stroke-linejoin="round" stroke-miterlimit="10" fill="none" transform="matrix(1 0 0 1.00067 93.0002 1973.57)"/><path d="M651.812 568.233 637.561 576.481 651.812 584.729" stroke="#000000" stroke-width="1.97033" stroke-linejoin="round" stroke-miterlimit="10" fill="none" transform="matrix(1 0 0 1.00067 93.0002 1973.57)"/><path d="M590.411 465.501 571.761 465.501" stroke="#000000" stroke-width="1.97033" stroke-linejoin="round" stroke-miterlimit="10" fill="none" transform="matrix(1 0 0 1.00067 93.0002 1973.57)"/><path d="M586.058 457.253 571.761 465.501 586.058 473.749" stroke="#000000" stroke-width="1.97033" stroke-linejoin="round" stroke-miterlimit="10" fill="none" transform="matrix(1 0 0 1.00067 93.0002 1973.57)"/><path d="M501.884 628.763 520.075 628.763" stroke="#000000" stroke-width="1.97033" stroke-linejoin="round" stroke-miterlimit="10" fill="none" transform="matrix(1 0 0 1.00067 93.0002 1973.57)"/><path d="M505.778 637.011 520.075 628.763 505.778 620.516" stroke="#000000" stroke-width="1.97033" stroke-linejoin="round" stroke-miterlimit="10" fill="none" transform="matrix(1 0 0 1.00067 93.0002 1973.57)"/><path d="M1033.6 373.95 1003.17 373.95" stroke="#000000" stroke-width="1.97033" stroke-linejoin="round" stroke-miterlimit="10" fill="none" transform="matrix(1 0 0 1.00067 93.0002 1973.57)"/><path d="M1017.47 365.702 1003.17 373.95 1017.47 382.198" stroke="#000000" stroke-width="1.97033" stroke-linejoin="round" stroke-miterlimit="10" fill="none" transform="matrix(1 0 0 1.00067 93.0002 1973.57)"/><path d="M767.649 275.892 797.249 275.892" stroke="#000000" stroke-width="1.97033" stroke-linejoin="round" stroke-miterlimit="10" fill="none" transform="matrix(1 0 0 1.00067 93.0002 1973.57)"/><path d="M782.953 284.139 797.249 275.892 782.953 267.644" stroke="#000000" stroke-width="1.97033" stroke-linejoin="round" stroke-miterlimit="10" fill="none" transform="matrix(1 0 0 1.00067 93.0002 1973.57)"/><path d="M856.359 92.972 883.944 92.972" stroke="#000000" stroke-width="1.97033" stroke-linejoin="round" stroke-miterlimit="10" fill="none" transform="matrix(1 0 0 1.00067 93.0002 1973.57)"/><path d="M869.693 101.22 883.944 92.972 869.693 84.7241" stroke="#000000" stroke-width="1.97033" stroke-linejoin="round" stroke-miterlimit="10" fill="none" transform="matrix(1 0 0 1.00067 93.0002 1973.57)"/><path d="M944.886 86.5111 949.789 86.5111" stroke="#000000" stroke-width="1.97033" stroke-linejoin="round" stroke-miterlimit="10" fill="none" transform="matrix(1 0 0 1.00067 93.0002 1973.57)"/><path d="M935.539 94.759 949.789 86.5111 935.539 78.2632" stroke="#000000" stroke-width="1.97033" stroke-linejoin="round" stroke-miterlimit="10" fill="none" transform="matrix(1 0 0 1.00067 93.0002 1973.57)"/><path d="M590.411 576.481 616.483 576.481" stroke="#000000" stroke-width="1.97033" stroke-linejoin="round" stroke-miterlimit="10" fill="none" transform="matrix(1 0 0 1.00067 93.0002 1973.57)"/><path d="M602.187 584.729 616.483 576.481 602.187 568.233" stroke="#000000" stroke-width="1.97033" stroke-linejoin="round" stroke-miterlimit="10" fill="none" transform="matrix(1 0 0 1.00067 93.0002 1973.57)"/><path d="M679.121 465.501 706.843 465.501" stroke="#000000" stroke-width="1.97033" stroke-linejoin="round" stroke-miterlimit="10" fill="none" transform="matrix(1 0 0 1.00067 93.0002 1973.57)"/><path d="M692.547 473.749 706.843 465.501 692.547 457.253" stroke="#000000" stroke-width="1.97033" stroke-linejoin="round" stroke-miterlimit="10" fill="none" transform="matrix(1 0 0 1.00067 93.0002 1973.57)"/><path d="M261.183 373.95C261.183 377.543 258.27 380.456 254.676 380.456 251.083 380.456 248.17 377.543 248.17 373.95 248.17 370.356 251.083 367.443 254.676 367.443 258.27 367.443 261.183 370.356 261.183 373.95Z" stroke="#FA8072" stroke-width="3.25333" stroke-linecap="round" stroke-linejoin="round" stroke-miterlimit="10" fill="#FA8072" transform="matrix(1 0 0 1.00067 93.0002 1973.57)"/><path d="M319.285 86.5111C319.285 90.1046 316.371 93.0178 312.778 93.0178 309.184 93.0178 306.271 90.1046 306.271 86.5111 306.271 82.9176 309.184 80.0044 312.778 80.0044 316.371 80.0044 319.285 82.9176 319.285 86.5111Z" stroke="#FA8072" stroke-width="3.25333" stroke-linecap="round" stroke-linejoin="round" stroke-miterlimit="10" fill="#FA8072" transform="matrix(1 0 0 1.00067 93.0002 1973.57)"/><path d="M402.497 92.972C402.497 96.5655 399.583 99.4786 395.99 99.4786 392.396 99.4786 389.483 96.5655 389.483 92.972 389.483 89.3784 392.396 86.4653 395.99 86.4653 399.583 86.4653 402.497 89.3784 402.497 92.972Z" stroke="#FA8072" stroke-width="3.25333" stroke-linecap="round" stroke-linejoin="round" stroke-miterlimit="10" fill="#FA8072" transform="matrix(1 0 0 1.00067 93.0002 1973.57)"/><path d="M569.699 275.892C569.699 279.485 566.786 282.398 563.193 282.398 559.599 282.398 556.686 279.485 556.686 275.892 556.686 272.298 559.599 269.385 563.193 269.385 566.786 269.385 569.699 272.298 569.699 275.892Z" stroke="#FA8072" stroke-width="3.25333" stroke-linecap="round" stroke-linejoin="round" stroke-miterlimit="10" fill="#FA8072" transform="matrix(1 0 0 1.00067 93.0002 1973.57)"/><path d="M616.071 465.501C616.071 469.095 613.158 472.008 609.564 472.008 605.971 472.008 603.058 469.095 603.058 465.501 603.058 461.908 605.971 458.995 609.564 458.995 613.158 458.995 616.071 461.908 616.071 465.501Z" stroke="#FA8072" stroke-width="3.25333" stroke-linecap="round" stroke-linejoin="round" stroke-miterlimit="10" fill="#FA8072" transform="matrix(1 0 0 1.00067 93.0002 1973.57)"/><path d="M677.059 576.481C677.059 580.075 674.146 582.988 670.553 582.988 666.959 582.988 664.046 580.075 664.046 576.481 664.046 572.888 666.959 569.974 670.553 569.974 674.146 569.974 677.059 572.888 677.059 576.481Z" stroke="#FA8072" stroke-width="3.25333" stroke-linecap="round" stroke-linejoin="round" stroke-miterlimit="10" fill="#FA8072" transform="matrix(1 0 0 1.00067 93.0002 1973.57)"/><path d="M769.848 628.763C769.848 632.357 766.935 635.27 763.341 635.27 759.748 635.27 756.835 632.357 756.835 628.763 756.835 625.17 759.748 622.257 763.341 622.257 766.935 622.257 769.848 625.17 769.848 628.763Z" stroke="#FA8072" stroke-width="3.25333" stroke-linecap="round" stroke-linejoin="round" stroke-miterlimit="10" fill="#FA8072" transform="matrix(1 0 0 1.00067 93.0002 1973.57)"/><path d="M295.32 376.012 295.32 371.842" stroke="#FA8072" stroke-width="3.89483" stroke-linejoin="round" stroke-miterlimit="10" fill="none" transform="matrix(1 0 0 1.00067 93.0002 1973.57)"/><path d="M295.32 373.95 214.078 373.95" stroke="#FA8072" stroke-width="3.89483" stroke-linejoin="round" stroke-miterlimit="10" fill="none" transform="matrix(1 0 0 1.00067 93.0002 1973.57)"/><path d="M214.078 376.012 214.078 371.842" stroke="#FA8072" stroke-width="3.89483" stroke-linejoin="round" stroke-miterlimit="10" fill="none" transform="matrix(1 0 0 1.00067 93.0002 1973.57)"/><path d="M351.818 88.6189 351.818 84.4033" stroke="#FA8072" stroke-width="3.89483" stroke-linejoin="round" stroke-miterlimit="10" fill="none" transform="matrix(1 0 0 1.00067 93.0002 1973.57)"/><path d="M351.818 86.5111 273.784 86.5111" stroke="#FA8072" stroke-width="3.89483" stroke-linejoin="round" stroke-miterlimit="10" fill="none" transform="matrix(1 0 0 1.00067 93.0002 1973.57)"/><path d="M273.784 88.6189 273.784 84.4033" stroke="#FA8072" stroke-width="3.89483" stroke-linejoin="round" stroke-miterlimit="10" fill="none" transform="matrix(1 0 0 1.00067 93.0002 1973.57)"/><path d="M437.917 95.0797 437.917 90.91" stroke="#FA8072" stroke-width="3.89483" stroke-linejoin="round" stroke-miterlimit="10" fill="none" transform="matrix(1 0 0 1.00067 93.0002 1973.57)"/><path d="M437.917 92.972 354.063 92.972" stroke="#FA8072" stroke-width="3.89483" stroke-linejoin="round" stroke-miterlimit="10" fill="none" transform="matrix(1 0 0 1.00067 93.0002 1973.57)"/><path d="M354.063 95.0797 354.063 90.91" stroke="#FA8072" stroke-width="3.89483" stroke-linejoin="round" stroke-miterlimit="10" fill="none" transform="matrix(1 0 0 1.00067 93.0002 1973.57)"/><path d="M607.823 277.999 607.823 273.83" stroke="#FA8072" stroke-width="3.89483" stroke-linejoin="round" stroke-miterlimit="10" fill="none" transform="matrix(1 0 0 1.00067 93.0002 1973.57)"/><path d="M607.823 275.892 518.517 275.892" stroke="#FA8072" stroke-width="3.89483" stroke-linejoin="round" stroke-miterlimit="10" fill="none" transform="matrix(1 0 0 1.00067 93.0002 1973.57)"/><path d="M518.517 277.999 518.517 273.83" stroke="#FA8072" stroke-width="3.89483" stroke-linejoin="round" stroke-miterlimit="10" fill="none" transform="matrix(1 0 0 1.00067 93.0002 1973.57)"/><path d="M648.65 467.563 648.65 463.393" stroke="#FA8072" stroke-width="3.89483" stroke-linejoin="round" stroke-miterlimit="10" fill="none" transform="matrix(1 0 0 1.00067 93.0002 1973.57)"/><path d="M648.65 465.501 570.524 465.501" stroke="#FA8072" stroke-width="3.89483" stroke-linejoin="round" stroke-miterlimit="10" fill="none" transform="matrix(1 0 0 1.00067 93.0002 1973.57)"/><path d="M570.524 467.563 570.524 463.393" stroke="#FA8072" stroke-width="3.89483" stroke-linejoin="round" stroke-miterlimit="10" fill="none" transform="matrix(1 0 0 1.00067 93.0002 1973.57)"/><path d="M715.32 578.589 715.32 574.419" stroke="#FA8072" stroke-width="3.89483" stroke-linejoin="round" stroke-miterlimit="10" fill="none" transform="matrix(1 0 0 1.00067 93.0002 1973.57)"/><path d="M715.32 576.481 625.785 576.481" stroke="#FA8072" stroke-width="3.89483" stroke-linejoin="round" stroke-miterlimit="10" fill="none" transform="matrix(1 0 0 1.00067 93.0002 1973.57)"/><path d="M625.785 578.589 625.785 574.419" stroke="#FA8072" stroke-width="3.89483" stroke-linejoin="round" stroke-miterlimit="10" fill="none" transform="matrix(1 0 0 1.00067 93.0002 1973.57)"/><path d="M805.36 630.825 805.36 626.656" stroke="#FA8072" stroke-width="3.89483" stroke-linejoin="round" stroke-miterlimit="10" fill="none" transform="matrix(1 0 0 1.00067 93.0002 1973.57)"/><path d="M805.36 628.763 721.369 628.763" stroke="#FA8072" stroke-width="3.89483" stroke-linejoin="round" stroke-miterlimit="10" fill="none" transform="matrix(1 0 0 1.00067 93.0002 1973.57)"/><path d="M721.369 630.825 721.369 626.656" stroke="#FA8072" stroke-width="3.89483" stroke-linejoin="round" stroke-miterlimit="10" fill="none" transform="matrix(1 0 0 1.00067 93.0002 1973.57)"/><path d="M544.085 628.763C544.085 632.357 541.172 635.27 537.579 635.27 533.985 635.27 531.072 632.357 531.072 628.763 531.072 625.17 533.985 622.257 537.579 622.257 541.172 622.257 544.085 625.17 544.085 628.763Z" stroke="#ADD8E6" stroke-width="3.25333" stroke-linecap="round" stroke-linejoin="round" stroke-miterlimit="10" fill="#ADD8E6" transform="matrix(1 0 0 1.00067 93.0002 1973.57)"/><path d="M592.931 576.481C592.931 580.075 590.018 582.988 586.424 582.988 582.831 582.988 579.918 580.075 579.918 576.481 579.918 572.888 582.831 569.974 586.424 569.974 590.018 569.974 592.931 572.888 592.931 576.481Z" stroke="#ADD8E6" stroke-width="3.25333" stroke-linecap="round" stroke-linejoin="round" stroke-miterlimit="10" fill="#ADD8E6" transform="matrix(1 0 0 1.00067 93.0002 1973.57)"/><path d="M662.076 465.501C662.076 469.095 659.163 472.008 655.569 472.008 651.976 472.008 649.062 469.095 649.062 465.501 649.062 461.908 651.976 458.995 655.569 458.995 659.163 458.995 662.076 461.908 662.076 465.501Z" stroke="#ADD8E6" stroke-width="3.25333" stroke-linecap="round" stroke-linejoin="round" stroke-miterlimit="10" fill="#ADD8E6" transform="matrix(1 0 0 1.00067 93.0002 1973.57)"/><path d="M739.972 275.892C739.972 279.485 737.059 282.398 733.466 282.398 729.872 282.398 726.959 279.485 726.959 275.892 726.959 272.298 729.872 269.385 733.466 269.385 737.059 269.385 739.972 272.298 739.972 275.892Z" stroke="#ADD8E6" stroke-width="3.25333" stroke-linecap="round" stroke-linejoin="round" stroke-miterlimit="10" fill="#ADD8E6" transform="matrix(1 0 0 1.00067 93.0002 1973.57)"/><path d="M819.335 92.972C819.335 96.5655 816.422 99.4786 812.829 99.4786 809.235 99.4786 806.322 96.5655 806.322 92.972 806.322 89.3784 809.235 86.4653 812.829 86.4653 816.422 86.4653 819.335 89.3784 819.335 92.972Z" stroke="#ADD8E6" stroke-width="3.25333" stroke-linecap="round" stroke-linejoin="round" stroke-miterlimit="10" fill="#ADD8E6" transform="matrix(1 0 0 1.00067 93.0002 1973.57)"/><path d="M937.692 86.5111C937.692 90.1046 934.779 93.0178 931.186 93.0178 927.592 93.0178 924.679 90.1046 924.679 86.5111 924.679 82.9176 927.592 80.0044 931.186 80.0044 934.779 80.0044 937.692 82.9176 937.692 86.5111Z" stroke="#ADD8E6" stroke-width="3.25333" stroke-linecap="round" stroke-linejoin="round" stroke-miterlimit="10" fill="#ADD8E6" transform="matrix(1 0 0 1.00067 93.0002 1973.57)"/><path d="M1039.32 373.95C1039.32 377.543 1036.41 380.456 1032.82 380.456 1029.22 380.456 1026.31 377.543 1026.31 373.95 1026.31 370.356 1029.22 367.443 1032.82 367.443 1036.41 367.443 1039.32 370.356 1039.32 373.95Z" stroke="#ADD8E6" stroke-width="3.25333" stroke-linecap="round" stroke-linejoin="round" stroke-miterlimit="10" fill="#ADD8E6" transform="matrix(1 0 0 1.00067 93.0002 1973.57)"/><path d="M580.788 630.825 580.788 626.656" stroke="#ADD8E6" stroke-width="3.89483" stroke-linejoin="round" stroke-miterlimit="10" fill="none" transform="matrix(1 0 0 1.00067 93.0002 1973.57)"/><path d="M580.788 628.763 494.415 628.763" stroke="#ADD8E6" stroke-width="3.89483" stroke-linejoin="round" stroke-miterlimit="10" fill="none" transform="matrix(1 0 0 1.00067 93.0002 1973.57)"/><path d="M494.415 630.825 494.415 626.656" stroke="#ADD8E6" stroke-width="3.89483" stroke-linejoin="round" stroke-miterlimit="10" fill="none" transform="matrix(1 0 0 1.00067 93.0002 1973.57)"/><path d="M632.338 578.589 632.338 574.419" stroke="#ADD8E6" stroke-width="3.89483" stroke-linejoin="round" stroke-miterlimit="10" fill="none" transform="matrix(1 0 0 1.00067 93.0002 1973.57)"/><path d="M632.338 576.481 540.557 576.481" stroke="#ADD8E6" stroke-width="3.89483" stroke-linejoin="round" stroke-miterlimit="10" fill="none" transform="matrix(1 0 0 1.00067 93.0002 1973.57)"/><path d="M540.557 578.589 540.557 574.419" stroke="#ADD8E6" stroke-width="3.89483" stroke-linejoin="round" stroke-miterlimit="10" fill="none" transform="matrix(1 0 0 1.00067 93.0002 1973.57)"/><path d="M705.011 467.563 705.011 463.393" stroke="#ADD8E6" stroke-width="3.89483" stroke-linejoin="round" stroke-miterlimit="10" fill="none" transform="matrix(1 0 0 1.00067 93.0002 1973.57)"/><path d="M705.011 465.501 606.128 465.501" stroke="#ADD8E6" stroke-width="3.89483" stroke-linejoin="round" stroke-miterlimit="10" fill="none" transform="matrix(1 0 0 1.00067 93.0002 1973.57)"/><path d="M606.128 467.563 606.128 463.393" stroke="#ADD8E6" stroke-width="3.89483" stroke-linejoin="round" stroke-miterlimit="10" fill="none" transform="matrix(1 0 0 1.00067 93.0002 1973.57)"/><path d="M776.126 277.999 776.126 273.83" stroke="#ADD8E6" stroke-width="3.89483" stroke-linejoin="round" stroke-miterlimit="10" fill="none" transform="matrix(1 0 0 1.00067 93.0002 1973.57)"/><path d="M776.126 275.892 690.852 275.892" stroke="#ADD8E6" stroke-width="3.89483" stroke-linejoin="round" stroke-miterlimit="10" fill="none" transform="matrix(1 0 0 1.00067 93.0002 1973.57)"/><path d="M690.852 277.999 690.852 273.83" stroke="#ADD8E6" stroke-width="3.89483" stroke-linejoin="round" stroke-miterlimit="10" fill="none" transform="matrix(1 0 0 1.00067 93.0002 1973.57)"/><path d="M860.254 95.0797 860.254 90.91" stroke="#ADD8E6" stroke-width="3.89483" stroke-linejoin="round" stroke-miterlimit="10" fill="none" transform="matrix(1 0 0 1.00067 93.0002 1973.57)"/><path d="M860.254 92.972 765.403 92.972" stroke="#ADD8E6" stroke-width="3.89483" stroke-linejoin="round" stroke-miterlimit="10" fill="none" transform="matrix(1 0 0 1.00067 93.0002 1973.57)"/><path d="M765.403 95.0797 765.403 90.91" stroke="#ADD8E6" stroke-width="3.89483" stroke-linejoin="round" stroke-miterlimit="10" fill="none" transform="matrix(1 0 0 1.00067 93.0002 1973.57)"/><path d="M971.967 88.6189 971.967 84.4033" stroke="#ADD8E6" stroke-width="3.89483" stroke-linejoin="round" stroke-miterlimit="10" fill="none" transform="matrix(1 0 0 1.00067 93.0002 1973.57)"/><path d="M971.967 86.5111 890.359 86.5111" stroke="#ADD8E6" stroke-width="3.89483" stroke-linejoin="round" stroke-miterlimit="10" fill="none" transform="matrix(1 0 0 1.00067 93.0002 1973.57)"/><path d="M890.359 88.6189 890.359 84.4033" stroke="#ADD8E6" stroke-width="3.89483" stroke-linejoin="round" stroke-miterlimit="10" fill="none" transform="matrix(1 0 0 1.00067 93.0002 1973.57)"/><path d="M1074.7 376.012 1074.7 371.842" stroke="#ADD8E6" stroke-width="3.89483" stroke-linejoin="round" stroke-miterlimit="10" fill="none" transform="matrix(1 0 0 1.00067 93.0002 1973.57)"/><path d="M1074.7 373.95 990.937 373.95" stroke="#ADD8E6" stroke-width="3.89483" stroke-linejoin="round" stroke-miterlimit="10" fill="none" transform="matrix(1 0 0 1.00067 93.0002 1973.57)"/><path d="M990.937 376.012 990.937 371.842" stroke="#ADD8E6" stroke-width="3.89483" stroke-linejoin="round" stroke-miterlimit="10" fill="none" transform="matrix(1 0 0 1.00067 93.0002 1973.57)"/><path d="M526.581 628.763C526.581 632.357 523.668 635.27 520.075 635.27 516.481 635.27 513.568 632.357 513.568 628.763 513.568 625.17 516.481 622.257 520.075 622.257 523.668 622.257 526.581 625.17 526.581 628.763Z" stroke="#0000FF" stroke-width="3.25333" stroke-linecap="round" stroke-linejoin="round" stroke-miterlimit="10" fill="#0000FF" transform="matrix(1 0 0 1.00067 93.0002 1973.57)"/><path d="M622.99 576.481C622.99 580.075 620.077 582.988 616.483 582.988 612.89 582.988 609.977 580.075 609.977 576.481 609.977 572.888 612.89 569.974 616.483 569.974 620.077 569.974 622.99 572.888 622.99 576.481Z" stroke="#0000FF" stroke-width="3.25333" stroke-linecap="round" stroke-linejoin="round" stroke-miterlimit="10" fill="#0000FF" transform="matrix(1 0 0 1.00067 93.0002 1973.57)"/><path d="M713.35 465.501C713.35 469.095 710.437 472.008 706.843 472.008 703.25 472.008 700.337 469.095 700.337 465.501 700.337 461.908 703.25 458.995 706.843 458.995 710.437 458.995 713.35 461.908 713.35 465.501Z" stroke="#0000FF" stroke-width="3.25333" stroke-linecap="round" stroke-linejoin="round" stroke-miterlimit="10" fill="#0000FF" transform="matrix(1 0 0 1.00067 93.0002 1973.57)"/><path d="M803.756 275.892C803.756 279.485 800.843 282.398 797.249 282.398 793.656 282.398 790.743 279.485 790.743 275.892 790.743 272.298 793.656 269.385 797.249 269.385 800.843 269.385 803.756 272.298 803.756 275.892Z" stroke="#0000FF" stroke-width="3.25333" stroke-linecap="round" stroke-linejoin="round" stroke-miterlimit="10" fill="#0000FF" transform="matrix(1 0 0 1.00067 93.0002 1973.57)"/><path d="M890.45 92.972C890.45 96.5655 887.537 99.4786 883.944 99.4786 880.35 99.4786 877.437 96.5655 877.437 92.972 877.437 89.3784 880.35 86.4653 883.944 86.4653 887.537 86.4653 890.45 89.3784 890.45 92.972Z" stroke="#0000FF" stroke-width="3.25333" stroke-linecap="round" stroke-linejoin="round" stroke-miterlimit="10" fill="#0000FF" transform="matrix(1 0 0 1.00067 93.0002 1973.57)"/><path d="M956.296 86.5111C956.296 90.1046 953.383 93.0178 949.789 93.0178 946.196 93.0178 943.283 90.1046 943.283 86.5111 943.283 82.9176 946.196 80.0044 949.789 80.0044 953.383 80.0044 956.296 82.9176 956.296 86.5111Z" stroke="#0000FF" stroke-width="3.25333" stroke-linecap="round" stroke-linejoin="round" stroke-miterlimit="10" fill="#0000FF" transform="matrix(1 0 0 1.00067 93.0002 1973.57)"/><path d="M1009.68 373.95C1009.68 377.543 1006.77 380.456 1003.17 380.456 999.578 380.456 996.665 377.543 996.665 373.95 996.665 370.356 999.578 367.443 1003.17 367.443 1006.77 367.443 1009.68 370.356 1009.68 373.95Z" stroke="#0000FF" stroke-width="3.25333" stroke-linecap="round" stroke-linejoin="round" stroke-miterlimit="10" fill="#0000FF" transform="matrix(1 0 0 1.00067 93.0002 1973.57)"/><path d="M564.659 630.825 564.659 626.656" stroke="#0000FF" stroke-width="3.89483" stroke-linejoin="round" stroke-miterlimit="10" fill="none" transform="matrix(1 0 0 1.00067 93.0002 1973.57)"/><path d="M564.659 628.763 475.445 628.763" stroke="#0000FF" stroke-width="3.89483" stroke-linejoin="round" stroke-miterlimit="10" fill="none" transform="matrix(1 0 0 1.00067 93.0002 1973.57)"/><path d="M475.445 630.825 475.445 626.656" stroke="#0000FF" stroke-width="3.89483" stroke-linejoin="round" stroke-miterlimit="10" fill="none" transform="matrix(1 0 0 1.00067 93.0002 1973.57)"/><path d="M653.782 578.589 653.782 574.419" stroke="#0000FF" stroke-width="3.89483" stroke-linejoin="round" stroke-miterlimit="10" fill="none" transform="matrix(1 0 0 1.00067 93.0002 1973.57)"/><path d="M653.782 576.481 579.185 576.481" stroke="#0000FF" stroke-width="3.89483" stroke-linejoin="round" stroke-miterlimit="10" fill="none" transform="matrix(1 0 0 1.00067 93.0002 1973.57)"/><path d="M579.185 578.589 579.185 574.419" stroke="#0000FF" stroke-width="3.89483" stroke-linejoin="round" stroke-miterlimit="10" fill="none" transform="matrix(1 0 0 1.00067 93.0002 1973.57)"/><path d="M744.28 467.563 744.28 463.393" stroke="#0000FF" stroke-width="3.89483" stroke-linejoin="round" stroke-miterlimit="10" fill="none" transform="matrix(1 0 0 1.00067 93.0002 1973.57)"/><path d="M744.28 465.501 669.453 465.501" stroke="#0000FF" stroke-width="3.89483" stroke-linejoin="round" stroke-miterlimit="10" fill="none" transform="matrix(1 0 0 1.00067 93.0002 1973.57)"/><path d="M669.453 467.563 669.453 463.393" stroke="#0000FF" stroke-width="3.89483" stroke-linejoin="round" stroke-miterlimit="10" fill="none" transform="matrix(1 0 0 1.00067 93.0002 1973.57)"/><path d="M834.961 277.999 834.961 273.83" stroke="#0000FF" stroke-width="3.89483" stroke-linejoin="round" stroke-miterlimit="10" fill="none" transform="matrix(1 0 0 1.00067 93.0002 1973.57)"/><path d="M834.961 275.892 759.538 275.892" stroke="#0000FF" stroke-width="3.89483" stroke-linejoin="round" stroke-miterlimit="10" fill="none" transform="matrix(1 0 0 1.00067 93.0002 1973.57)"/><path d="M759.538 277.999 759.538 273.83" stroke="#0000FF" stroke-width="3.89483" stroke-linejoin="round" stroke-miterlimit="10" fill="none" transform="matrix(1 0 0 1.00067 93.0002 1973.57)"/><path d="M924.587 95.0797 924.587 90.91" stroke="#0000FF" stroke-width="3.89483" stroke-linejoin="round" stroke-miterlimit="10" fill="none" transform="matrix(1 0 0 1.00067 93.0002 1973.57)"/><path d="M924.587 92.972 843.346 92.972" stroke="#0000FF" stroke-width="3.89483" stroke-linejoin="round" stroke-miterlimit="10" fill="none" transform="matrix(1 0 0 1.00067 93.0002 1973.57)"/><path d="M843.346 95.0797 843.346 90.91" stroke="#0000FF" stroke-width="3.89483" stroke-linejoin="round" stroke-miterlimit="10" fill="none" transform="matrix(1 0 0 1.00067 93.0002 1973.57)"/><path d="M990.708 88.6189 990.708 84.4033" stroke="#0000FF" stroke-width="3.89483" stroke-linejoin="round" stroke-miterlimit="10" fill="none" transform="matrix(1 0 0 1.00067 93.0002 1973.57)"/><path d="M990.708 86.5111 908.917 86.5111" stroke="#0000FF" stroke-width="3.89483" stroke-linejoin="round" stroke-miterlimit="10" fill="none" transform="matrix(1 0 0 1.00067 93.0002 1973.57)"/><path d="M908.917 88.6189 908.917 84.4033" stroke="#0000FF" stroke-width="3.89483" stroke-linejoin="round" stroke-miterlimit="10" fill="none" transform="matrix(1 0 0 1.00067 93.0002 1973.57)"/><path d="M1046.38 376.012 1046.38 371.842" stroke="#0000FF" stroke-width="3.89483" stroke-linejoin="round" stroke-miterlimit="10" fill="none" transform="matrix(1 0 0 1.00067 93.0002 1973.57)"/><path d="M1046.38 373.95 960.008 373.95" stroke="#0000FF" stroke-width="3.89483" stroke-linejoin="round" stroke-miterlimit="10" fill="none" transform="matrix(1 0 0 1.00067 93.0002 1973.57)"/><path d="M960.008 376.012 960.008 371.842" stroke="#0000FF" stroke-width="3.89483" stroke-linejoin="round" stroke-miterlimit="10" fill="none" transform="matrix(1 0 0 1.00067 93.0002 1973.57)"/><path d="M285.239 373.95C285.239 377.543 282.326 380.456 278.733 380.456 275.139 380.456 272.226 377.543 272.226 373.95 272.226 370.356 275.139 367.443 278.733 367.443 282.326 367.443 285.239 370.356 285.239 373.95Z" stroke="#FF0000" stroke-width="3.25333" stroke-linecap="round" stroke-linejoin="round" stroke-miterlimit="10" fill="#FF0000" transform="matrix(1 0 0 1.00067 93.0002 1973.57)"/><path d="M319.651 86.5111C319.651 90.1046 316.738 93.0178 313.145 93.0178 309.551 93.0178 306.638 90.1046 306.638 86.5111 306.638 82.9176 309.551 80.0044 313.145 80.0044 316.738 80.0044 319.651 82.9176 319.651 86.5111Z" stroke="#FF0000" stroke-width="3.25333" stroke-linecap="round" stroke-linejoin="round" stroke-miterlimit="10" fill="#FF0000" transform="matrix(1 0 0 1.00067 93.0002 1973.57)"/><path d="M389.941 92.972C389.941 96.5655 387.028 99.4786 383.435 99.4786 379.841 99.4786 376.928 96.5655 376.928 92.972 376.928 89.3784 379.841 86.4653 383.435 86.4653 387.028 86.4653 389.941 89.3784 389.941 92.972Z" stroke="#FF0000" stroke-width="3.25333" stroke-linecap="round" stroke-linejoin="round" stroke-miterlimit="10" fill="#FF0000" transform="matrix(1 0 0 1.00067 93.0002 1973.57)"/><path d="M480.21 275.892C480.21 279.485 477.297 282.398 473.703 282.398 470.11 282.398 467.197 279.485 467.197 275.892 467.197 272.298 470.11 269.385 473.703 269.385 477.297 269.385 480.21 272.298 480.21 275.892Z" stroke="#FF0000" stroke-width="3.25333" stroke-linecap="round" stroke-linejoin="round" stroke-miterlimit="10" fill="#FF0000" transform="matrix(1 0 0 1.00067 93.0002 1973.57)"/><path d="M578.268 465.501C578.268 469.095 575.355 472.008 571.761 472.008 568.168 472.008 565.255 469.095 565.255 465.501 565.255 461.908 568.168 458.995 571.761 458.995 575.355 458.995 578.268 461.908 578.268 465.501Z" stroke="#FF0000" stroke-width="3.25333" stroke-linecap="round" stroke-linejoin="round" stroke-miterlimit="10" fill="#FF0000" transform="matrix(1 0 0 1.00067 93.0002 1973.57)"/><path d="M644.068 576.481C644.068 580.075 641.155 582.988 637.561 582.988 633.968 582.988 631.055 580.075 631.055 576.481 631.055 572.888 633.968 569.974 637.561 569.974 641.155 569.974 644.068 572.888 644.068 576.481Z" stroke="#FF0000" stroke-width="3.25333" stroke-linecap="round" stroke-linejoin="round" stroke-miterlimit="10" fill="#FF0000" transform="matrix(1 0 0 1.00067 93.0002 1973.57)"/><path d="M736.49 628.763C736.49 632.357 733.577 635.27 729.983 635.27 726.39 635.27 723.477 632.357 723.477 628.763 723.477 625.17 726.39 622.257 729.983 622.257 733.577 622.257 736.49 625.17 736.49 628.763Z" stroke="#FF0000" stroke-width="3.25333" stroke-linecap="round" stroke-linejoin="round" stroke-miterlimit="10" fill="#FF0000" transform="matrix(1 0 0 1.00067 93.0002 1973.57)"/><path d="M321.805 376.012 321.805 371.842" stroke="#FF0000" stroke-width="3.89483" stroke-linejoin="round" stroke-miterlimit="10" fill="none" transform="matrix(1 0 0 1.00067 93.0002 1973.57)"/><path d="M321.805 373.95 235.66 373.95" stroke="#FF0000" stroke-width="3.89483" stroke-linejoin="round" stroke-miterlimit="10" fill="none" transform="matrix(1 0 0 1.00067 93.0002 1973.57)"/><path d="M235.66 376.012 235.66 371.842" stroke="#FF0000" stroke-width="3.89483" stroke-linejoin="round" stroke-miterlimit="10" fill="none" transform="matrix(1 0 0 1.00067 93.0002 1973.57)"/><path d="M353.697 88.6189 353.697 84.4033" stroke="#FF0000" stroke-width="3.89483" stroke-linejoin="round" stroke-miterlimit="10" fill="none" transform="matrix(1 0 0 1.00067 93.0002 1973.57)"/><path d="M353.697 86.5111 272.592 86.5111" stroke="#FF0000" stroke-width="3.89483" stroke-linejoin="round" stroke-miterlimit="10" fill="none" transform="matrix(1 0 0 1.00067 93.0002 1973.57)"/><path d="M272.592 88.6189 272.592 84.4033" stroke="#FF0000" stroke-width="3.89483" stroke-linejoin="round" stroke-miterlimit="10" fill="none" transform="matrix(1 0 0 1.00067 93.0002 1973.57)"/><path d="M424.995 95.0797 424.995 90.91" stroke="#FF0000" stroke-width="3.89483" stroke-linejoin="round" stroke-miterlimit="10" fill="none" transform="matrix(1 0 0 1.00067 93.0002 1973.57)"/><path d="M424.995 92.972 341.829 92.972" stroke="#FF0000" stroke-width="3.89483" stroke-linejoin="round" stroke-miterlimit="10" fill="none" transform="matrix(1 0 0 1.00067 93.0002 1973.57)"/><path d="M341.829 95.0797 341.829 90.91" stroke="#FF0000" stroke-width="3.89483" stroke-linejoin="round" stroke-miterlimit="10" fill="none" transform="matrix(1 0 0 1.00067 93.0002 1973.57)"/><path d="M510.544 277.999 510.544 273.83" stroke="#FF0000" stroke-width="3.89483" stroke-linejoin="round" stroke-miterlimit="10" fill="none" transform="matrix(1 0 0 1.00067 93.0002 1973.57)"/><path d="M510.544 275.892 436.909 275.892" stroke="#FF0000" stroke-width="3.89483" stroke-linejoin="round" stroke-miterlimit="10" fill="none" transform="matrix(1 0 0 1.00067 93.0002 1973.57)"/><path d="M436.909 277.999 436.909 273.83" stroke="#FF0000" stroke-width="3.89483" stroke-linejoin="round" stroke-miterlimit="10" fill="none" transform="matrix(1 0 0 1.00067 93.0002 1973.57)"/><path d="M607.044 467.563 607.044 463.393" stroke="#FF0000" stroke-width="3.89483" stroke-linejoin="round" stroke-miterlimit="10" fill="none" transform="matrix(1 0 0 1.00067 93.0002 1973.57)"/><path d="M607.044 465.501 536.479 465.501" stroke="#FF0000" stroke-width="3.89483" stroke-linejoin="round" stroke-miterlimit="10" fill="none" transform="matrix(1 0 0 1.00067 93.0002 1973.57)"/><path d="M536.479 467.563 536.479 463.393" stroke="#FF0000" stroke-width="3.89483" stroke-linejoin="round" stroke-miterlimit="10" fill="none" transform="matrix(1 0 0 1.00067 93.0002 1973.57)"/><path d="M671.79 578.589 671.79 574.419" stroke="#FF0000" stroke-width="3.89483" stroke-linejoin="round" stroke-miterlimit="10" fill="none" transform="matrix(1 0 0 1.00067 93.0002 1973.57)"/><path d="M671.79 576.481 603.287 576.481" stroke="#FF0000" stroke-width="3.89483" stroke-linejoin="round" stroke-miterlimit="10" fill="none" transform="matrix(1 0 0 1.00067 93.0002 1973.57)"/><path d="M603.287 578.589 603.287 574.419" stroke="#FF0000" stroke-width="3.89483" stroke-linejoin="round" stroke-miterlimit="10" fill="none" transform="matrix(1 0 0 1.00067 93.0002 1973.57)"/><path d="M774.018 630.825 774.018 626.656" stroke="#FF0000" stroke-width="3.89483" stroke-linejoin="round" stroke-miterlimit="10" fill="none" transform="matrix(1 0 0 1.00067 93.0002 1973.57)"/><path d="M774.018 628.763 685.995 628.763" stroke="#FF0000" stroke-width="3.89483" stroke-linejoin="round" stroke-miterlimit="10" fill="none" transform="matrix(1 0 0 1.00067 93.0002 1973.57)"/><path d="M685.995 630.825 685.995 626.656" stroke="#FF0000" stroke-width="3.89483" stroke-linejoin="round" stroke-miterlimit="10" fill="none" transform="matrix(1 0 0 1.00067 93.0002 1973.57)"/><path d="M217.011 592.152C217.011 595.746 214.098 598.659 210.504 598.659 206.911 598.659 203.998 595.746 203.998 592.152 203.998 588.559 206.911 585.645 210.504 585.645 214.098 585.645 217.011 588.559 217.011 592.152Z" stroke="#FA8072" stroke-width="3.25333" stroke-linecap="round" stroke-linejoin="round" stroke-miterlimit="10" fill="#FA8072" transform="matrix(1 0 0 1.00067 93.0002 1973.57)"/><path d="M217.011 592.152C217.011 595.746 214.098 598.659 210.504 598.659 206.911 598.659 203.998 595.746 203.998 592.152 203.998 588.559 206.911 585.645 210.504 585.645 214.098 585.645 217.011 588.559 217.011 592.152Z" stroke="#FA8072" stroke-width="3.25333" stroke-linecap="round" stroke-linejoin="round" stroke-miterlimit="10" fill="#FA8072" transform="matrix(1 0 0 1.00067 93.0002 1973.57)"/><path d="M217.011 592.152C217.011 595.746 214.098 598.659 210.504 598.659 206.911 598.659 203.998 595.746 203.998 592.152 203.998 588.559 206.911 585.645 210.504 585.645 214.098 585.645 217.011 588.559 217.011 592.152Z" stroke="#FA8072" stroke-width="3.25333" stroke-linecap="round" stroke-linejoin="round" stroke-miterlimit="10" fill="#FA8072" transform="matrix(1 0 0 1.00067 93.0002 1973.57)"/><path d="M217.011 592.152C217.011 595.746 214.098 598.659 210.504 598.659 206.911 598.659 203.998 595.746 203.998 592.152 203.998 588.559 206.911 585.645 210.504 585.645 214.098 585.645 217.011 588.559 217.011 592.152Z" stroke="#FA8072" stroke-width="3.25333" stroke-linecap="round" stroke-linejoin="round" stroke-miterlimit="10" fill="#FA8072" transform="matrix(1 0 0 1.00067 93.0002 1973.57)"/><path d="M217.011 592.152C217.011 595.746 214.098 598.659 210.504 598.659 206.911 598.659 203.998 595.746 203.998 592.152 203.998 588.559 206.911 585.645 210.504 585.645 214.098 585.645 217.011 588.559 217.011 592.152Z" stroke="#FA8072" stroke-width="3.25333" stroke-linecap="round" stroke-linejoin="round" stroke-miterlimit="10" fill="#FA8072" transform="matrix(1 0 0 1.00067 93.0002 1973.57)"/><path d="M217.011 592.152C217.011 595.746 214.098 598.659 210.504 598.659 206.911 598.659 203.998 595.746 203.998 592.152 203.998 588.559 206.911 585.645 210.504 585.645 214.098 585.645 217.011 588.559 217.011 592.152Z" stroke="#FA8072" stroke-width="3.25333" stroke-linecap="round" stroke-linejoin="round" stroke-miterlimit="10" fill="#FA8072" transform="matrix(1 0 0 1.00067 93.0002 1973.57)"/><path d="M217.011 592.152C217.011 595.746 214.098 598.659 210.504 598.659 206.911 598.659 203.998 595.746 203.998 592.152 203.998 588.559 206.911 585.645 210.504 585.645 214.098 585.645 217.011 588.559 217.011 592.152Z" stroke="#FA8072" stroke-width="3.25333" stroke-linecap="round" stroke-linejoin="round" stroke-miterlimit="10" fill="#FA8072" transform="matrix(1 0 0 1.00067 93.0002 1973.57)"/><path d="M217.011 592.152C217.011 595.746 214.098 598.659 210.504 598.659 206.911 598.659 203.998 595.746 203.998 592.152 203.998 588.559 206.911 585.645 210.504 585.645 214.098 585.645 217.011 588.559 217.011 592.152Z" stroke="#FA8072" stroke-width="3.25333" stroke-linecap="round" stroke-linejoin="round" stroke-miterlimit="10" fill="#FA8072" transform="matrix(1 0 0 1.00067 93.0002 1973.57)"/><path d="M217.011 592.152C217.011 595.746 214.098 598.659 210.504 598.659 206.911 598.659 203.998 595.746 203.998 592.152 203.998 588.559 206.911 585.645 210.504 585.645 214.098 585.645 217.011 588.559 217.011 592.152Z" stroke="#FA8072" stroke-width="3.25333" stroke-linecap="round" stroke-linejoin="round" stroke-miterlimit="10" fill="#FA8072" transform="matrix(1 0 0 1.00067 93.0002 1973.57)"/><path d="M217.011 592.152C217.011 595.746 214.098 598.659 210.504 598.659 206.911 598.659 203.998 595.746 203.998 592.152 203.998 588.559 206.911 585.645 210.504 585.645 214.098 585.645 217.011 588.559 217.011 592.152Z" stroke="#FA8072" stroke-width="3.25333" stroke-linecap="round" stroke-linejoin="round" stroke-miterlimit="10" fill="#FA8072" transform="matrix(1 0 0 1.00067 93.0002 1973.57)"/><path d="M217.011 623.54C217.011 627.133 214.098 630.046 210.504 630.046 206.911 630.046 203.998 627.133 203.998 623.54 203.998 619.946 206.911 617.033 210.504 617.033 214.098 617.033 217.011 619.946 217.011 623.54Z" stroke="#FF0000" stroke-width="3.25333" stroke-linecap="round" stroke-linejoin="round" stroke-miterlimit="10" fill="#FF0000" transform="matrix(1 0 0 1.00067 93.0002 1973.57)"/><path d="M217.011 623.54C217.011 627.133 214.098 630.046 210.504 630.046 206.911 630.046 203.998 627.133 203.998 623.54 203.998 619.946 206.911 617.033 210.504 617.033 214.098 617.033 217.011 619.946 217.011 623.54Z" stroke="#FF0000" stroke-width="3.25333" stroke-linecap="round" stroke-linejoin="round" stroke-miterlimit="10" fill="#FF0000" transform="matrix(1 0 0 1.00067 93.0002 1973.57)"/><path d="M217.011 623.54C217.011 627.133 214.098 630.046 210.504 630.046 206.911 630.046 203.998 627.133 203.998 623.54 203.998 619.946 206.911 617.033 210.504 617.033 214.098 617.033 217.011 619.946 217.011 623.54Z" stroke="#FF0000" stroke-width="3.25333" stroke-linecap="round" stroke-linejoin="round" stroke-miterlimit="10" fill="#FF0000" transform="matrix(1 0 0 1.00067 93.0002 1973.57)"/><path d="M217.011 623.54C217.011 627.133 214.098 630.046 210.504 630.046 206.911 630.046 203.998 627.133 203.998 623.54 203.998 619.946 206.911 617.033 210.504 617.033 214.098 617.033 217.011 619.946 217.011 623.54Z" stroke="#FF0000" stroke-width="3.25333" stroke-linecap="round" stroke-linejoin="round" stroke-miterlimit="10" fill="#FF0000" transform="matrix(1 0 0 1.00067 93.0002 1973.57)"/><path d="M217.011 623.54C217.011 627.133 214.098 630.046 210.504 630.046 206.911 630.046 203.998 627.133 203.998 623.54 203.998 619.946 206.911 617.033 210.504 617.033 214.098 617.033 217.011 619.946 217.011 623.54Z" stroke="#FF0000" stroke-width="3.25333" stroke-linecap="round" stroke-linejoin="round" stroke-miterlimit="10" fill="#FF0000" transform="matrix(1 0 0 1.00067 93.0002 1973.57)"/><path d="M217.011 623.54C217.011 627.133 214.098 630.046 210.504 630.046 206.911 630.046 203.998 627.133 203.998 623.54 203.998 619.946 206.911 617.033 210.504 617.033 214.098 617.033 217.011 619.946 217.011 623.54Z" stroke="#FF0000" stroke-width="3.25333" stroke-linecap="round" stroke-linejoin="round" stroke-miterlimit="10" fill="#FF0000" transform="matrix(1 0 0 1.00067 93.0002 1973.57)"/><path d="M217.011 623.54C217.011 627.133 214.098 630.046 210.504 630.046 206.911 630.046 203.998 627.133 203.998 623.54 203.998 619.946 206.911 617.033 210.504 617.033 214.098 617.033 217.011 619.946 217.011 623.54Z" stroke="#FF0000" stroke-width="3.25333" stroke-linecap="round" stroke-linejoin="round" stroke-miterlimit="10" fill="#FF0000" transform="matrix(1 0 0 1.00067 93.0002 1973.57)"/><path d="M217.011 623.54C217.011 627.133 214.098 630.046 210.504 630.046 206.911 630.046 203.998 627.133 203.998 623.54 203.998 619.946 206.911 617.033 210.504 617.033 214.098 617.033 217.011 619.946 217.011 623.54Z" stroke="#FF0000" stroke-width="3.25333" stroke-linecap="round" stroke-linejoin="round" stroke-miterlimit="10" fill="#FF0000" transform="matrix(1 0 0 1.00067 93.0002 1973.57)"/><path d="M217.011 623.54C217.011 627.133 214.098 630.046 210.504 630.046 206.911 630.046 203.998 627.133 203.998 623.54 203.998 619.946 206.911 617.033 210.504 617.033 214.098 617.033 217.011 619.946 217.011 623.54Z" stroke="#FF0000" stroke-width="3.25333" stroke-linecap="round" stroke-linejoin="round" stroke-miterlimit="10" fill="#FF0000" transform="matrix(1 0 0 1.00067 93.0002 1973.57)"/><path d="M217.011 623.54C217.011 627.133 214.098 630.046 210.504 630.046 206.911 630.046 203.998 627.133 203.998 623.54 203.998 619.946 206.911 617.033 210.504 617.033 214.098 617.033 217.011 619.946 217.011 623.54Z" stroke="#FF0000" stroke-width="3.25333" stroke-linecap="round" stroke-linejoin="round" stroke-miterlimit="10" fill="#FF0000" transform="matrix(1 0 0 1.00067 93.0002 1973.57)"/><path d="M911.253 592.152C911.253 595.746 908.34 598.659 904.747 598.659 901.153 598.659 898.24 595.746 898.24 592.152 898.24 588.559 901.153 585.645 904.747 585.645 908.34 585.645 911.253 588.559 911.253 592.152Z" stroke="#ADD8E6" stroke-width="3.25333" stroke-linecap="round" stroke-linejoin="round" stroke-miterlimit="10" fill="#ADD8E6" transform="matrix(1 0 0 1.00067 93.0002 1973.57)"/><path d="M911.253 592.152C911.253 595.746 908.34 598.659 904.747 598.659 901.153 598.659 898.24 595.746 898.24 592.152 898.24 588.559 901.153 585.645 904.747 585.645 908.34 585.645 911.253 588.559 911.253 592.152Z" stroke="#ADD8E6" stroke-width="3.25333" stroke-linecap="round" stroke-linejoin="round" stroke-miterlimit="10" fill="#ADD8E6" transform="matrix(1 0 0 1.00067 93.0002 1973.57)"/><path d="M911.253 592.152C911.253 595.746 908.34 598.659 904.747 598.659 901.153 598.659 898.24 595.746 898.24 592.152 898.24 588.559 901.153 585.645 904.747 585.645 908.34 585.645 911.253 588.559 911.253 592.152Z" stroke="#ADD8E6" stroke-width="3.25333" stroke-linecap="round" stroke-linejoin="round" stroke-miterlimit="10" fill="#ADD8E6" transform="matrix(1 0 0 1.00067 93.0002 1973.57)"/><path d="M911.253 592.152C911.253 595.746 908.34 598.659 904.747 598.659 901.153 598.659 898.24 595.746 898.24 592.152 898.24 588.559 901.153 585.645 904.747 585.645 908.34 585.645 911.253 588.559 911.253 592.152Z" stroke="#ADD8E6" stroke-width="3.25333" stroke-linecap="round" stroke-linejoin="round" stroke-miterlimit="10" fill="#ADD8E6" transform="matrix(1 0 0 1.00067 93.0002 1973.57)"/><path d="M911.253 592.152C911.253 595.746 908.34 598.659 904.747 598.659 901.153 598.659 898.24 595.746 898.24 592.152 898.24 588.559 901.153 585.645 904.747 585.645 908.34 585.645 911.253 588.559 911.253 592.152Z" stroke="#ADD8E6" stroke-width="3.25333" stroke-linecap="round" stroke-linejoin="round" stroke-miterlimit="10" fill="#ADD8E6" transform="matrix(1 0 0 1.00067 93.0002 1973.57)"/><path d="M911.253 592.152C911.253 595.746 908.34 598.659 904.747 598.659 901.153 598.659 898.24 595.746 898.24 592.152 898.24 588.559 901.153 585.645 904.747 585.645 908.34 585.645 911.253 588.559 911.253 592.152Z" stroke="#ADD8E6" stroke-width="3.25333" stroke-linecap="round" stroke-linejoin="round" stroke-miterlimit="10" fill="#ADD8E6" transform="matrix(1 0 0 1.00067 93.0002 1973.57)"/><path d="M911.253 592.152C911.253 595.746 908.34 598.659 904.747 598.659 901.153 598.659 898.24 595.746 898.24 592.152 898.24 588.559 901.153 585.645 904.747 585.645 908.34 585.645 911.253 588.559 911.253 592.152Z" stroke="#ADD8E6" stroke-width="3.25333" stroke-linecap="round" stroke-linejoin="round" stroke-miterlimit="10" fill="#ADD8E6" transform="matrix(1 0 0 1.00067 93.0002 1973.57)"/><path d="M911.253 592.152C911.253 595.746 908.34 598.659 904.747 598.659 901.153 598.659 898.24 595.746 898.24 592.152 898.24 588.559 901.153 585.645 904.747 585.645 908.34 585.645 911.253 588.559 911.253 592.152Z" stroke="#ADD8E6" stroke-width="3.25333" stroke-linecap="round" stroke-linejoin="round" stroke-miterlimit="10" fill="#ADD8E6" transform="matrix(1 0 0 1.00067 93.0002 1973.57)"/><path d="M911.253 592.152C911.253 595.746 908.34 598.659 904.747 598.659 901.153 598.659 898.24 595.746 898.24 592.152 898.24 588.559 901.153 585.645 904.747 585.645 908.34 585.645 911.253 588.559 911.253 592.152Z" stroke="#ADD8E6" stroke-width="3.25333" stroke-linecap="round" stroke-linejoin="round" stroke-miterlimit="10" fill="#ADD8E6" transform="matrix(1 0 0 1.00067 93.0002 1973.57)"/><path d="M911.253 592.152C911.253 595.746 908.34 598.659 904.747 598.659 901.153 598.659 898.24 595.746 898.24 592.152 898.24 588.559 901.153 585.645 904.747 585.645 908.34 585.645 911.253 588.559 911.253 592.152Z" stroke="#ADD8E6" stroke-width="3.25333" stroke-linecap="round" stroke-linejoin="round" stroke-miterlimit="10" fill="#ADD8E6" transform="matrix(1 0 0 1.00067 93.0002 1973.57)"/><path d="M911.253 623.54C911.253 627.133 908.34 630.046 904.747 630.046 901.153 630.046 898.24 627.133 898.24 623.54 898.24 619.946 901.153 617.033 904.747 617.033 908.34 617.033 911.253 619.946 911.253 623.54Z" stroke="#0000FF" stroke-width="3.25333" stroke-linecap="round" stroke-linejoin="round" stroke-miterlimit="10" fill="#0000FF" transform="matrix(1 0 0 1.00067 93.0002 1973.57)"/><path d="M911.253 623.54C911.253 627.133 908.34 630.046 904.747 630.046 901.153 630.046 898.24 627.133 898.24 623.54 898.24 619.946 901.153 617.033 904.747 617.033 908.34 617.033 911.253 619.946 911.253 623.54Z" stroke="#0000FF" stroke-width="3.25333" stroke-linecap="round" stroke-linejoin="round" stroke-miterlimit="10" fill="#0000FF" transform="matrix(1 0 0 1.00067 93.0002 1973.57)"/><path d="M911.253 623.54C911.253 627.133 908.34 630.046 904.747 630.046 901.153 630.046 898.24 627.133 898.24 623.54 898.24 619.946 901.153 617.033 904.747 617.033 908.34 617.033 911.253 619.946 911.253 623.54Z" stroke="#0000FF" stroke-width="3.25333" stroke-linecap="round" stroke-linejoin="round" stroke-miterlimit="10" fill="#0000FF" transform="matrix(1 0 0 1.00067 93.0002 1973.57)"/><path d="M911.253 623.54C911.253 627.133 908.34 630.046 904.747 630.046 901.153 630.046 898.24 627.133 898.24 623.54 898.24 619.946 901.153 617.033 904.747 617.033 908.34 617.033 911.253 619.946 911.253 623.54Z" stroke="#0000FF" stroke-width="3.25333" stroke-linecap="round" stroke-linejoin="round" stroke-miterlimit="10" fill="#0000FF" transform="matrix(1 0 0 1.00067 93.0002 1973.57)"/><path d="M911.253 623.54C911.253 627.133 908.34 630.046 904.747 630.046 901.153 630.046 898.24 627.133 898.24 623.54 898.24 619.946 901.153 617.033 904.747 617.033 908.34 617.033 911.253 619.946 911.253 623.54Z" stroke="#0000FF" stroke-width="3.25333" stroke-linecap="round" stroke-linejoin="round" stroke-miterlimit="10" fill="#0000FF" transform="matrix(1 0 0 1.00067 93.0002 1973.57)"/><path d="M911.253 623.54C911.253 627.133 908.34 630.046 904.747 630.046 901.153 630.046 898.24 627.133 898.24 623.54 898.24 619.946 901.153 617.033 904.747 617.033 908.34 617.033 911.253 619.946 911.253 623.54Z" stroke="#0000FF" stroke-width="3.25333" stroke-linecap="round" stroke-linejoin="round" stroke-miterlimit="10" fill="#0000FF" transform="matrix(1 0 0 1.00067 93.0002 1973.57)"/><path d="M911.253 623.54C911.253 627.133 908.34 630.046 904.747 630.046 901.153 630.046 898.24 627.133 898.24 623.54 898.24 619.946 901.153 617.033 904.747 617.033 908.34 617.033 911.253 619.946 911.253 623.54Z" stroke="#0000FF" stroke-width="3.25333" stroke-linecap="round" stroke-linejoin="round" stroke-miterlimit="10" fill="#0000FF" transform="matrix(1 0 0 1.00067 93.0002 1973.57)"/><path d="M911.253 623.54C911.253 627.133 908.34 630.046 904.747 630.046 901.153 630.046 898.24 627.133 898.24 623.54 898.24 619.946 901.153 617.033 904.747 617.033 908.34 617.033 911.253 619.946 911.253 623.54Z" stroke="#0000FF" stroke-width="3.25333" stroke-linecap="round" stroke-linejoin="round" stroke-miterlimit="10" fill="#0000FF" transform="matrix(1 0 0 1.00067 93.0002 1973.57)"/><path d="M911.253 623.54C911.253 627.133 908.34 630.046 904.747 630.046 901.153 630.046 898.24 627.133 898.24 623.54 898.24 619.946 901.153 617.033 904.747 617.033 908.34 617.033 911.253 619.946 911.253 623.54Z" stroke="#0000FF" stroke-width="3.25333" stroke-linecap="round" stroke-linejoin="round" stroke-miterlimit="10" fill="#0000FF" transform="matrix(1 0 0 1.00067 93.0002 1973.57)"/><path d="M911.253 623.54C911.253 627.133 908.34 630.046 904.747 630.046 901.153 630.046 898.24 627.133 898.24 623.54 898.24 619.946 901.153 617.033 904.747 617.033 908.34 617.033 911.253 619.946 911.253 623.54Z" stroke="#0000FF" stroke-width="3.25333" stroke-linecap="round" stroke-linejoin="round" stroke-miterlimit="10" fill="#0000FF" transform="matrix(1 0 0 1.00067 93.0002 1973.57)"/><path d="M571.761 465.501 571.761 520.991" stroke="#FFA500" stroke-width="3.89483" stroke-linejoin="round" stroke-miterlimit="10" stroke-dasharray="5.22366 15.6252" fill="none" transform="matrix(1 0 0 1.00067 93.0002 1973.57)"/><path d="M571.761 465.501 571.761 520.991" stroke="#FFA500" stroke-width="3.89483" stroke-linejoin="round" stroke-miterlimit="10" stroke-dasharray="5.22366 15.6252" fill="none" transform="matrix(1 0 0 1.00067 93.0002 1973.57)"/><path d="M571.761 465.501 571.761 520.991" stroke="#FFA500" stroke-width="3.89483" stroke-linejoin="round" stroke-miterlimit="10" stroke-dasharray="5.22366 15.6252" fill="none" transform="matrix(1 0 0 1.00067 93.0002 1973.57)"/><path d="M571.761 465.501 571.761 520.991" stroke="#FFA500" stroke-width="3.89483" stroke-linejoin="round" stroke-miterlimit="10" stroke-dasharray="5.22366 15.6252" fill="none" transform="matrix(1 0 0 1.00067 93.0002 1973.57)"/><path d="M571.761 465.501 571.761 520.991" stroke="#FFA500" stroke-width="3.89483" stroke-linejoin="round" stroke-miterlimit="10" stroke-dasharray="5.22366 15.6252" fill="none" transform="matrix(1 0 0 1.00067 93.0002 1973.57)"/><path d="M571.761 465.501 571.761 520.991" stroke="#FFA500" stroke-width="3.89483" stroke-linejoin="round" stroke-miterlimit="10" stroke-dasharray="5.22366 15.6252" fill="none" transform="matrix(1 0 0 1.00067 93.0002 1973.57)"/><path d="M571.761 465.501 571.761 520.991" stroke="#FFA500" stroke-width="3.89483" stroke-linejoin="round" stroke-miterlimit="10" stroke-dasharray="5.22366 15.6252" fill="none" transform="matrix(1 0 0 1.00067 93.0002 1973.57)"/><path d="M571.761 465.501 571.761 520.991" stroke="#FFA500" stroke-width="3.89483" stroke-linejoin="round" stroke-miterlimit="10" stroke-dasharray="5.22366 15.6252" fill="none" transform="matrix(1 0 0 1.00067 93.0002 1973.57)"/><path d="M571.761 465.501 571.761 520.991" stroke="#FFA500" stroke-width="3.89483" stroke-linejoin="round" stroke-miterlimit="10" stroke-dasharray="5.22366 15.6252" fill="none" transform="matrix(1 0 0 1.00067 93.0002 1973.57)"/><path d="M571.761 465.501 571.761 520.991" stroke="#FFA500" stroke-width="3.89483" stroke-linejoin="round" stroke-miterlimit="10" stroke-dasharray="5.22366 15.6252" fill="none" transform="matrix(1 0 0 1.00067 93.0002 1973.57)"/><path d="M571.761 520.991 616.483 520.991" stroke="#FFA500" stroke-width="3.89483" stroke-linejoin="round" stroke-miterlimit="10" fill="none" transform="matrix(1 0 0 1.00067 93.0002 1973.57)"/><path d="M571.761 520.991 616.483 520.991" stroke="#FFA500" stroke-width="3.89483" stroke-linejoin="round" stroke-miterlimit="10" fill="none" transform="matrix(1 0 0 1.00067 93.0002 1973.57)"/><path d="M571.761 520.991 616.483 520.991" stroke="#FFA500" stroke-width="3.89483" stroke-linejoin="round" stroke-miterlimit="10" fill="none" transform="matrix(1 0 0 1.00067 93.0002 1973.57)"/><path d="M571.761 520.991 616.483 520.991" stroke="#FFA500" stroke-width="3.89483" stroke-linejoin="round" stroke-miterlimit="10" fill="none" transform="matrix(1 0 0 1.00067 93.0002 1973.57)"/><path d="M571.761 520.991 616.483 520.991" stroke="#FFA500" stroke-width="3.89483" stroke-linejoin="round" stroke-miterlimit="10" fill="none" transform="matrix(1 0 0 1.00067 93.0002 1973.57)"/><path d="M571.761 520.991 616.483 520.991" stroke="#FFA500" stroke-width="3.89483" stroke-linejoin="round" stroke-miterlimit="10" fill="none" transform="matrix(1 0 0 1.00067 93.0002 1973.57)"/><path d="M571.761 520.991 616.483 520.991" stroke="#FFA500" stroke-width="3.89483" stroke-linejoin="round" stroke-miterlimit="10" fill="none" transform="matrix(1 0 0 1.00067 93.0002 1973.57)"/><path d="M571.761 520.991 616.483 520.991" stroke="#FFA500" stroke-width="3.89483" stroke-linejoin="round" stroke-miterlimit="10" fill="none" transform="matrix(1 0 0 1.00067 93.0002 1973.57)"/><path d="M571.761 520.991 616.483 520.991" stroke="#FFA500" stroke-width="3.89483" stroke-linejoin="round" stroke-miterlimit="10" fill="none" transform="matrix(1 0 0 1.00067 93.0002 1973.57)"/><path d="M571.761 520.991 616.483 520.991" stroke="#FFA500" stroke-width="3.89483" stroke-linejoin="round" stroke-miterlimit="10" fill="none" transform="matrix(1 0 0 1.00067 93.0002 1973.57)"/><path d="M616.483 520.991 616.483 576.481" stroke="#FFA500" stroke-width="3.89483" stroke-linejoin="round" stroke-miterlimit="10" stroke-dasharray="5.22366 15.6252" fill="none" transform="matrix(1 0 0 1.00067 93.0002 1973.57)"/><path d="M616.483 520.991 616.483 576.481" stroke="#FFA500" stroke-width="3.89483" stroke-linejoin="round" stroke-miterlimit="10" stroke-dasharray="5.22366 15.6252" fill="none" transform="matrix(1 0 0 1.00067 93.0002 1973.57)"/><path d="M616.483 520.991 616.483 576.481" stroke="#FFA500" stroke-width="3.89483" stroke-linejoin="round" stroke-miterlimit="10" stroke-dasharray="5.22366 15.6252" fill="none" transform="matrix(1 0 0 1.00067 93.0002 1973.57)"/><path d="M616.483 520.991 616.483 576.481" stroke="#FFA500" stroke-width="3.89483" stroke-linejoin="round" stroke-miterlimit="10" stroke-dasharray="5.22366 15.6252" fill="none" transform="matrix(1 0 0 1.00067 93.0002 1973.57)"/><path d="M616.483 520.991 616.483 576.481" stroke="#FFA500" stroke-width="3.89483" stroke-linejoin="round" stroke-miterlimit="10" stroke-dasharray="5.22366 15.6252" fill="none" transform="matrix(1 0 0 1.00067 93.0002 1973.57)"/><path d="M616.483 520.991 616.483 576.481" stroke="#FFA500" stroke-width="3.89483" stroke-linejoin="round" stroke-miterlimit="10" stroke-dasharray="5.22366 15.6252" fill="none" transform="matrix(1 0 0 1.00067 93.0002 1973.57)"/><path d="M616.483 520.991 616.483 576.481" stroke="#FFA500" stroke-width="3.89483" stroke-linejoin="round" stroke-miterlimit="10" stroke-dasharray="5.22366 15.6252" fill="none" transform="matrix(1 0 0 1.00067 93.0002 1973.57)"/><path d="M616.483 520.991 616.483 576.481" stroke="#FFA500" stroke-width="3.89483" stroke-linejoin="round" stroke-miterlimit="10" stroke-dasharray="5.22366 15.6252" fill="none" transform="matrix(1 0 0 1.00067 93.0002 1973.57)"/><path d="M616.483 520.991 616.483 576.481" stroke="#FFA500" stroke-width="3.89483" stroke-linejoin="round" stroke-miterlimit="10" stroke-dasharray="5.22366 15.6252" fill="none" transform="matrix(1 0 0 1.00067 93.0002 1973.57)"/><path d="M616.483 520.991 616.483 576.481" stroke="#FFA500" stroke-width="3.89483" stroke-linejoin="round" stroke-miterlimit="10" stroke-dasharray="5.22366 15.6252" fill="none" transform="matrix(1 0 0 1.00067 93.0002 1973.57)"/><path d="M637.561 576.481 637.561 520.991" stroke="#FFA500" stroke-width="3.89483" stroke-linejoin="round" stroke-miterlimit="10" stroke-dasharray="5.22366 15.6252" fill="none" transform="matrix(1 0 0 1.00067 93.0002 1973.57)"/><path d="M637.561 576.481 637.561 520.991" stroke="#FFA500" stroke-width="3.89483" stroke-linejoin="round" stroke-miterlimit="10" stroke-dasharray="5.22366 15.6252" fill="none" transform="matrix(1 0 0 1.00067 93.0002 1973.57)"/><path d="M637.561 576.481 637.561 520.991" stroke="#FFA500" stroke-width="3.89483" stroke-linejoin="round" stroke-miterlimit="10" stroke-dasharray="5.22366 15.6252" fill="none" transform="matrix(1 0 0 1.00067 93.0002 1973.57)"/><path d="M637.561 576.481 637.561 520.991" stroke="#FFA500" stroke-width="3.89483" stroke-linejoin="round" stroke-miterlimit="10" stroke-dasharray="5.22366 15.6252" fill="none" transform="matrix(1 0 0 1.00067 93.0002 1973.57)"/><path d="M637.561 576.481 637.561 520.991" stroke="#FFA500" stroke-width="3.89483" stroke-linejoin="round" stroke-miterlimit="10" stroke-dasharray="5.22366 15.6252" fill="none" transform="matrix(1 0 0 1.00067 93.0002 1973.57)"/><path d="M637.561 576.481 637.561 520.991" stroke="#FFA500" stroke-width="3.89483" stroke-linejoin="round" stroke-miterlimit="10" stroke-dasharray="5.22366 15.6252" fill="none" transform="matrix(1 0 0 1.00067 93.0002 1973.57)"/><path d="M637.561 576.481 637.561 520.991" stroke="#FFA500" stroke-width="3.89483" stroke-linejoin="round" stroke-miterlimit="10" stroke-dasharray="5.22366 15.6252" fill="none" transform="matrix(1 0 0 1.00067 93.0002 1973.57)"/><path d="M637.561 576.481 637.561 520.991" stroke="#FFA500" stroke-width="3.89483" stroke-linejoin="round" stroke-miterlimit="10" stroke-dasharray="5.22366 15.6252" fill="none" transform="matrix(1 0 0 1.00067 93.0002 1973.57)"/><path d="M637.561 576.481 637.561 520.991" stroke="#FFA500" stroke-width="3.89483" stroke-linejoin="round" stroke-miterlimit="10" stroke-dasharray="5.22366 15.6252" fill="none" transform="matrix(1 0 0 1.00067 93.0002 1973.57)"/><path d="M637.561 576.481 637.561 520.991" stroke="#FFA500" stroke-width="3.89483" stroke-linejoin="round" stroke-miterlimit="10" stroke-dasharray="5.22366 15.6252" fill="none" transform="matrix(1 0 0 1.00067 93.0002 1973.57)"/><path d="M637.561 520.991 706.843 520.991" stroke="#FFA500" stroke-width="3.89483" stroke-linejoin="round" stroke-miterlimit="10" fill="none" transform="matrix(1 0 0 1.00067 93.0002 1973.57)"/><path d="M637.561 520.991 706.843 520.991" stroke="#FFA500" stroke-width="3.89483" stroke-linejoin="round" stroke-miterlimit="10" fill="none" transform="matrix(1 0 0 1.00067 93.0002 1973.57)"/><path d="M637.561 520.991 706.843 520.991" stroke="#FFA500" stroke-width="3.89483" stroke-linejoin="round" stroke-miterlimit="10" fill="none" transform="matrix(1 0 0 1.00067 93.0002 1973.57)"/><path d="M637.561 520.991 706.843 520.991" stroke="#FFA500" stroke-width="3.89483" stroke-linejoin="round" stroke-miterlimit="10" fill="none" transform="matrix(1 0 0 1.00067 93.0002 1973.57)"/><path d="M637.561 520.991 706.843 520.991" stroke="#FFA500" stroke-width="3.89483" stroke-linejoin="round" stroke-miterlimit="10" fill="none" transform="matrix(1 0 0 1.00067 93.0002 1973.57)"/><path d="M637.561 520.991 706.843 520.991" stroke="#FFA500" stroke-width="3.89483" stroke-linejoin="round" stroke-miterlimit="10" fill="none" transform="matrix(1 0 0 1.00067 93.0002 1973.57)"/><path d="M637.561 520.991 706.843 520.991" stroke="#FFA500" stroke-width="3.89483" stroke-linejoin="round" stroke-miterlimit="10" fill="none" transform="matrix(1 0 0 1.00067 93.0002 1973.57)"/><path d="M637.561 520.991 706.843 520.991" stroke="#FFA500" stroke-width="3.89483" stroke-linejoin="round" stroke-miterlimit="10" fill="none" transform="matrix(1 0 0 1.00067 93.0002 1973.57)"/><path d="M637.561 520.991 706.843 520.991" stroke="#FFA500" stroke-width="3.89483" stroke-linejoin="round" stroke-miterlimit="10" fill="none" transform="matrix(1 0 0 1.00067 93.0002 1973.57)"/><path d="M637.561 520.991 706.843 520.991" stroke="#FFA500" stroke-width="3.89483" stroke-linejoin="round" stroke-miterlimit="10" fill="none" transform="matrix(1 0 0 1.00067 93.0002 1973.57)"/><path d="M706.843 520.991 706.843 465.501" stroke="#FFA500" stroke-width="3.89483" stroke-linejoin="round" stroke-miterlimit="10" stroke-dasharray="5.22366 15.6252" fill="none" transform="matrix(1 0 0 1.00067 93.0002 1973.57)"/><path d="M706.843 520.991 706.843 465.501" stroke="#FFA500" stroke-width="3.89483" stroke-linejoin="round" stroke-miterlimit="10" stroke-dasharray="5.22366 15.6252" fill="none" transform="matrix(1 0 0 1.00067 93.0002 1973.57)"/><path d="M706.843 520.991 706.843 465.501" stroke="#FFA500" stroke-width="3.89483" stroke-linejoin="round" stroke-miterlimit="10" stroke-dasharray="5.22366 15.6252" fill="none" transform="matrix(1 0 0 1.00067 93.0002 1973.57)"/><path d="M706.843 520.991 706.843 465.501" stroke="#FFA500" stroke-width="3.89483" stroke-linejoin="round" stroke-miterlimit="10" stroke-dasharray="5.22366 15.6252" fill="none" transform="matrix(1 0 0 1.00067 93.0002 1973.57)"/><path d="M706.843 520.991 706.843 465.501" stroke="#FFA500" stroke-width="3.89483" stroke-linejoin="round" stroke-miterlimit="10" stroke-dasharray="5.22366 15.6252" fill="none" transform="matrix(1 0 0 1.00067 93.0002 1973.57)"/><path d="M706.843 520.991 706.843 465.501" stroke="#FFA500" stroke-width="3.89483" stroke-linejoin="round" stroke-miterlimit="10" stroke-dasharray="5.22366 15.6252" fill="none" transform="matrix(1 0 0 1.00067 93.0002 1973.57)"/><path d="M706.843 520.991 706.843 465.501" stroke="#FFA500" stroke-width="3.89483" stroke-linejoin="round" stroke-miterlimit="10" stroke-dasharray="5.22366 15.6252" fill="none" transform="matrix(1 0 0 1.00067 93.0002 1973.57)"/><path d="M706.843 520.991 706.843 465.501" stroke="#FFA500" stroke-width="3.89483" stroke-linejoin="round" stroke-miterlimit="10" stroke-dasharray="5.22366 15.6252" fill="none" transform="matrix(1 0 0 1.00067 93.0002 1973.57)"/><path d="M706.843 520.991 706.843 465.501" stroke="#FFA500" stroke-width="3.89483" stroke-linejoin="round" stroke-miterlimit="10" stroke-dasharray="5.22366 15.6252" fill="none" transform="matrix(1 0 0 1.00067 93.0002 1973.57)"/><path d="M706.843 520.991 706.843 465.501" stroke="#FFA500" stroke-width="3.89483" stroke-linejoin="round" stroke-miterlimit="10" stroke-dasharray="5.22366 15.6252" fill="none" transform="matrix(1 0 0 1.00067 93.0002 1973.57)"/><text fill="#FFA500" font-family="Arial,Arial_MSFontService,sans-serif" font-weight="400" font-size="8.54" transform="matrix(4.58216 0 0 4.58521 819.134 2509)"></text><text fill="#FFA500" font-family="Arial,Arial_MSFontService,sans-serif" font-weight="400" font-size="8.54" transform="matrix(4.58216 0 0 4.58521 845.273 2509)">right</text><text fill="#FFA500" font-family="Arial,Arial_MSFontService,sans-serif" font-weight="400" font-size="8.54" transform="matrix(4.58216 0 0 4.58521 921.396 2509)">-</text><text fill="#FFA500" font-family="Arial,Arial_MSFontService,sans-serif" font-weight="400" font-size="8.54" transform="matrix(4.58216 0 0 4.58521 934.428 2509)"></text><text fill="#FFA500" font-family="Arial,Arial_MSFontService,sans-serif" font-weight="400" font-size="8.54" transform="matrix(4.58216 0 0 4.58521 960.566 2509)">left</text></g><path d="M125.643 659.693 125.643 25.1102" stroke="#000000" stroke-width="4.90291" stroke-linejoin="round" stroke-miterlimit="10" fill="none" transform="matrix(1 0 0 1.00067 93.0002 1973.57)"/><text fill="#4D4D4D" font-family="Arial,Arial_MSFontService,sans-serif" font-weight="400" font-size="7" transform="matrix(4.58216 0 0 4.58521 178.214 2640)">0</text><text fill="#4D4D4D" font-family="Arial,Arial_MSFontService,sans-serif" font-weight="400" font-size="7" transform="matrix(4.58216 0 0 4.58521 160.376 2431)">10</text><text fill="#4D4D4D" font-family="Arial,Arial_MSFontService,sans-serif" font-weight="400" font-size="7" transform="matrix(4.58216 0 0 4.58521 160.376 2222)">20</text><text fill="#4D4D4D" font-family="Arial,Arial_MSFontService,sans-serif" font-weight="400" font-size="7" transform="matrix(4.58216 0 0 4.58521 160.376 2013)">30</text><path d="M113.088 654.882 125.643 654.882" stroke="#333333" stroke-width="4.90291" stroke-linejoin="round" stroke-miterlimit="10" fill="none" transform="matrix(1 0 0 1.00067 93.0002 1973.57)"/><path d="M113.088 445.844 125.643 445.844" stroke="#333333" stroke-width="4.90291" stroke-linejoin="round" stroke-miterlimit="10" fill="none" transform="matrix(1 0 0 1.00067 93.0002 1973.57)"/><path d="M113.088 236.806 125.643 236.806" stroke="#333333" stroke-width="4.90291" stroke-linejoin="round" stroke-miterlimit="10" fill="none" transform="matrix(1 0 0 1.00067 93.0002 1973.57)"/><path d="M113.088 27.7679 125.643 27.7679" stroke="#333333" stroke-width="4.90291" stroke-linejoin="round" stroke-miterlimit="10" fill="none" transform="matrix(1 0 0 1.00067 93.0002 1973.57)"/><path d="M125.643 659.693 1143.89 659.693" stroke="#000000" stroke-width="4.90291" stroke-linejoin="round" stroke-miterlimit="10" fill="none" transform="matrix(1 0 0 1.00067 93.0002 1973.57)"/><path d="M249.086 672.248 249.086 659.693" stroke="#333333" stroke-width="4.90291" stroke-linejoin="round" stroke-miterlimit="10" fill="none" transform="matrix(1 0 0 1.00067 93.0002 1973.57)"/><path d="M441.903 672.248 441.903 659.693" stroke="#333333" stroke-width="4.90291" stroke-linejoin="round" stroke-miterlimit="10" fill="none" transform="matrix(1 0 0 1.00067 93.0002 1973.57)"/><path d="M634.766 672.248 634.766 659.693" stroke="#333333" stroke-width="4.90291" stroke-linejoin="round" stroke-miterlimit="10" fill="none" transform="matrix(1 0 0 1.00067 93.0002 1973.57)"/><path d="M827.629 672.248 827.629 659.693" stroke="#333333" stroke-width="4.90291" stroke-linejoin="round" stroke-miterlimit="10" fill="none" transform="matrix(1 0 0 1.00067 93.0002 1973.57)"/><path d="M1020.45 672.248 1020.45 659.693" stroke="#333333" stroke-width="4.90291" stroke-linejoin="round" stroke-miterlimit="10" fill="none" transform="matrix(1 0 0 1.00067 93.0002 1973.57)"/><text fill="#4D4D4D" font-family="Arial,Arial_MSFontService,sans-serif" font-weight="400" font-size="7" transform="matrix(4.58216 0 0 4.58521 318.907 2679)">-</text><text fill="#4D4D4D" font-family="Arial,Arial_MSFontService,sans-serif" font-weight="400" font-size="7" transform="matrix(4.58216 0 0 4.58521 329.588 2679)">20</text><text fill="#4D4D4D" font-family="Arial,Arial_MSFontService,sans-serif" font-weight="400" font-size="7" transform="matrix(4.58216 0 0 4.58521 511.724 2679)">-</text><text fill="#4D4D4D" font-family="Arial,Arial_MSFontService,sans-serif" font-weight="400" font-size="7" transform="matrix(4.58216 0 0 4.58521 522.405 2679)">10</text><text fill="#4D4D4D" font-family="Arial,Arial_MSFontService,sans-serif" font-weight="400" font-size="7" transform="matrix(4.58216 0 0 4.58521 718.847 2679)">0</text><text fill="#4D4D4D" font-family="Arial,Arial_MSFontService,sans-serif" font-weight="400" font-size="7" transform="matrix(4.58216 0 0 4.58521 902.791 2679)">10</text><text fill="#4D4D4D" font-family="Arial,Arial_MSFontService,sans-serif" font-weight="400" font-size="7" transform="matrix(4.58216 0 0 4.58521 1095.61 2679)">20</text><text font-family="Arial,Arial_MSFontService,sans-serif" font-weight="400" font-size="7" transform="matrix(4.58216 0 0 4.58521 665.198 2722)">Angle </text><text font-family="Arial,Arial_MSFontService,sans-serif" font-weight="400" font-size="7" transform="matrix(4.58216 0 0 4.58521 756.145 2722)">(</text><text font-family="Arial,Arial_MSFontService,sans-serif" font-weight="400" font-size="7" transform="matrix(4.58216 0 0 4.58521 766.826 2722)"></text><text font-family="Arial,Arial_MSFontService,sans-serif" font-weight="400" font-size="7" transform="matrix(4.58216 0 0 4.58521 779.653 2722)">)</text><text font-family="Arial,Arial_MSFontService,sans-serif" font-weight="400" font-size="7" transform="matrix(2.80576e-16 -4.58521 4.58216 2.80763e-16 141.067 2564)">Probability of Biased Condition </text><text font-family="Arial,Arial_MSFontService,sans-serif" font-weight="400" font-size="7" transform="matrix(2.80576e-16 -4.58521 4.58216 2.80763e-16 141.067 2118)">(%)</text><text fill="#FA8072" font-family="Arial,Arial_MSFontService,sans-serif" font-weight="400" font-size="32" transform="matrix(1 0 0 1 323.718 2576)">neutral</text><text fill="#FF0000" font-family="Arial,Arial_MSFontService,sans-serif" font-weight="400" font-size="32" transform="matrix(1 0 0 1 323.718 2615)">biased</text><text fill="#ADD8E6" font-family="Arial,Arial_MSFontService,sans-serif" font-weight="400" font-size="32" transform="matrix(1 0 0 1 1014.36 2577)">neutral</text><text fill="#0000FF" font-family="Arial,Arial_MSFontService,sans-serif" font-weight="400" font-size="32" transform="matrix(1 0 0 1 1014.36 2616)">biased</text><rect x="649" y="1998" width="139" height="39.0002" fill="#FFFFFF"/><text font-family="Arial,Arial_MSFontService,sans-serif" font-weight="400" font-size="32" transform="matrix(1 0 0 1 652.587 2029)">180 km/h</text></g></svg>