<svg width="1168" height="791" xmlns="http://www.w3.org/2000/svg" xmlns:xlink="http://www.w3.org/1999/xlink" xml:space="preserve" overflow="hidden"><g transform="translate(-93 -2743)"><g><g><g><path d="M0 0 1168 0 1168 778.667-2.23547e-05 778.667Z" fill="#FFFFFF" transform="matrix(1 0 0 1.00024 93.0002 2754.57)"/><g><path d="M1.46504e-13 0 1168 0 1168 778.667-2.23547e-05 778.667Z" stroke="#FFFFFF" stroke-width="4.89871" stroke-linecap="round" stroke-linejoin="round" stroke-miterlimit="10" fill="#FFFFFF" transform="matrix(1 0 0 1.00024 93.0002 2754.57)"/></g><g><path d="M501.454 628.088 508.184 624.929 514.914 621.725 521.644 618.428 528.374 615.086 535.104 611.652 541.789 608.036 548.518 604.281 555.249 600.298 561.979 596.132 568.709 591.737 575.439 587.021 582.169 582.031 588.899 576.72 595.583 571.043 602.313 565 609.043 558.545 615.773 551.723 622.503 544.444 629.233 536.707 635.963 528.557 642.693 519.905 649.423 510.748 656.107 501.088 662.837 490.879 669.567 480.165 676.297 468.857 683.027 457 689.757 444.593 696.487 431.636 703.217 418.222 709.901 404.396 716.631 390.157 723.361 375.599 730.091 360.719 736.821 345.565 743.551 330.228 750.281 314.662 757.011 299.005 763.696 283.21 770.426 267.415 777.156 251.574 783.886 235.825 790.616 220.259 797.346 204.922 804.076 189.905 810.806 175.209 817.49 161.017 824.22 147.373 830.95 134.28 837.68 121.918 844.41 110.29 851.14 99.4851 857.87 89.5961 864.6 80.7143 871.284 72.9313 878.014 66.2929 884.744 61.0279 891.474 57.0906 898.204 54.7099 904.934 53.8858 911.664 54.8015 918.394 57.5027 925.078 62.1267 931.808 68.7651 938.539 77.5095 945.268 88.4515 951.999 101.683 958.729 116.974 965.459 134.188 972.189 153.142 978.873 173.698 985.603 195.628 992.333 218.748 999.063 242.967 1005.79 268.01 1012.52 293.785 1019.25 320.065 1025.98 346.71 1032.71 373.493 1032.71 373.767 1025.98 346.939 1019.25 320.293 1012.52 294.014 1005.79 268.239 999.063 243.15 992.333 218.977 985.603 195.857 978.873 173.927 972.189 153.371 965.459 134.417 958.729 117.203 951.999 101.912 945.268 88.7262 938.539 77.7385 931.808 68.994 925.078 62.3556 918.394 57.7316 911.664 55.0304 904.934 54.1148 898.204 54.9388 891.474 57.3195 884.744 61.2568 878.014 66.5676 871.284 73.1602 864.6 80.9432 857.87 89.8708 851.14 99.7598 844.41 110.519 837.68 122.147 830.95 134.509 824.22 147.602 817.49 161.245 810.806 175.438 804.076 190.134 797.346 205.151 790.616 220.488 783.886 236.1 777.156 251.849 770.426 267.644 763.696 283.484 757.011 299.234 750.281 314.937 743.551 330.457 736.821 345.794 730.091 360.948 723.361 375.827 716.631 390.386 709.901 404.625 703.217 418.451 696.487 431.865 689.757 444.821 683.027 457.228 676.297 469.132 669.567 480.394 662.837 491.153 656.107 501.317 649.423 510.977 642.693 520.088 635.963 528.741 629.233 536.936 622.503 544.673 615.773 551.952 609.043 558.774 602.313 565.229 595.583 571.272 588.899 576.949 582.169 582.306 575.439 587.296 568.709 591.966 561.979 596.361 555.249 600.527 548.518 604.51 541.789 608.265 535.104 611.836 528.374 615.315 521.644 618.657 514.914 621.908 508.184 625.158 501.454 628.363Z" fill="#999999" fill-opacity="0.4" transform="matrix(1 0 0 1.00024 93.0002 2754.57)"/><path d="M501.454 628.226 508.184 625.021 514.914 621.816 521.644 618.566 528.374 615.178 535.104 611.744 541.789 608.127 548.518 604.373 555.249 600.436 561.979 596.27 568.709 591.829 575.439 587.159 582.169 582.169 588.899 576.858 595.583 571.181 602.313 565.092 609.043 558.682 615.773 551.815 622.503 544.535 629.233 536.844 635.963 528.649 642.693 519.996 649.423 510.84 656.107 501.18 662.837 491.016 669.567 480.257 676.297 468.995 683.027 457.137 689.757 444.684 696.487 431.773 703.217 418.359 709.901 404.533 716.631 390.295 723.361 375.69 730.091 360.857 736.821 345.703 743.551 330.32 750.281 314.8 757.011 299.096 763.696 283.347 770.426 267.506 777.156 251.711 783.886 235.962 790.616 220.396 797.346 205.059 804.076 189.997 810.806 175.346 817.49 161.154 824.22 147.465 830.95 134.417 837.68 122.01 844.41 110.381 851.14 99.6224 857.87 89.7334 864.6 80.8517 871.284 73.0229 878.014 66.4302 884.744 61.1195 891.474 57.228 898.204 54.8015 904.934 54.0232 911.664 54.9388 918.394 57.64 925.078 62.264 931.808 68.9025 938.539 77.6469 945.268 88.5889 951.999 101.774 958.729 117.111 965.459 134.325 972.189 153.279 978.873 173.79 985.603 195.72 992.333 218.885 999.063 243.059 1005.79 268.147 1012.52 293.877 1019.25 320.156 1025.98 346.801 1032.71 373.63" stroke="#0000FF" stroke-width="1.96864" stroke-linejoin="round" stroke-miterlimit="10" fill="none" transform="matrix(1 0 0 1.00024 93.0002 2754.57)"/><path d="M235.733 373.493 242.463 346.71 249.193 320.065 255.923 293.785 262.653 268.01 269.383 242.967 276.113 218.748 282.843 195.628 289.528 173.698 296.258 153.142 302.988 134.188 309.718 116.974 316.448 101.683 323.178 88.4515 329.908 77.5095 336.638 68.7651 343.322 62.1267 350.052 57.5027 356.782 54.8015 363.512 53.8858 370.242 54.7099 376.972 57.0906 383.702 61.0279 390.432 66.2929 397.162 72.9313 403.846 80.7143 410.576 89.5961 417.306 99.4851 424.036 110.29 430.766 121.918 437.496 134.28 444.226 147.373 450.956 161.017 457.641 175.209 464.371 189.905 471.101 204.922 477.831 220.259 484.561 235.825 491.291 251.574 498.021 267.415 504.751 283.21 511.435 299.005 518.165 314.662 524.895 330.228 531.625 345.565 538.355 360.719 545.085 375.599 551.815 390.157 558.545 404.396 565.229 418.222 571.959 431.636 578.689 444.593 585.419 457 592.149 468.857 598.879 480.165 605.609 490.879 612.339 501.088 619.023 510.748 625.753 519.905 632.483 528.557 639.213 536.707 645.943 544.444 652.673 551.723 659.403 558.545 666.133 565 672.818 571.043 679.548 576.72 686.278 582.031 693.008 587.021 699.738 591.737 706.468 596.132 713.198 600.298 719.928 604.281 726.612 608.036 733.342 611.652 740.072 615.086 746.802 618.428 753.532 621.725 760.262 624.929 766.992 628.088 766.992 628.363 760.262 625.158 753.532 621.908 746.802 618.657 740.072 615.315 733.342 611.836 726.612 608.265 719.928 604.51 713.198 600.527 706.468 596.361 699.738 591.966 693.008 587.296 686.278 582.306 679.548 576.949 672.818 571.272 666.133 565.229 659.403 558.774 652.673 551.952 645.943 544.673 639.213 536.936 632.483 528.741 625.753 520.088 619.023 510.977 612.339 501.317 605.609 491.153 598.879 480.394 592.149 469.132 585.419 457.228 578.689 444.821 571.959 431.865 565.229 418.451 558.545 404.625 551.815 390.386 545.085 375.827 538.355 360.948 531.625 345.794 524.895 330.457 518.165 314.937 511.435 299.234 504.751 283.484 498.021 267.644 491.291 251.849 484.561 236.1 477.831 220.488 471.101 205.151 464.371 190.134 457.641 175.438 450.956 161.245 444.226 147.602 437.496 134.509 430.766 122.147 424.036 110.519 417.306 99.7598 410.576 89.8708 403.846 80.9432 397.162 73.1602 390.432 66.5676 383.702 61.2568 376.972 57.3195 370.242 54.9388 363.512 54.1148 356.782 55.0304 350.052 57.7316 343.322 62.3556 336.638 68.994 329.908 77.7385 323.178 88.7262 316.448 101.912 309.718 117.203 302.988 134.417 296.258 153.371 289.528 173.927 282.843 195.857 276.113 218.977 269.383 243.15 262.653 268.239 255.923 294.014 249.193 320.293 242.463 346.939 235.733 373.767Z" fill="#999999" fill-opacity="0.4" transform="matrix(1 0 0 1.00024 93.0002 2754.57)"/><path d="M235.733 373.63 242.463 346.801 249.193 320.156 255.923 293.877 262.653 268.147 269.383 243.059 276.113 218.885 282.843 195.72 289.528 173.79 296.258 153.279 302.988 134.325 309.718 117.111 316.448 101.774 323.178 88.5889 329.908 77.6469 336.638 68.9025 343.322 62.264 350.052 57.64 356.782 54.9388 363.512 54.0232 370.242 54.8015 376.972 57.228 383.702 61.1195 390.432 66.4302 397.162 73.0229 403.846 80.8517 410.576 89.7334 417.306 99.6224 424.036 110.381 430.766 122.01 437.496 134.417 444.226 147.465 450.956 161.154 457.641 175.346 464.371 189.997 471.101 205.059 477.831 220.396 484.561 235.962 491.291 251.711 498.021 267.506 504.751 283.347 511.435 299.096 518.165 314.8 524.895 330.32 531.625 345.703 538.355 360.857 545.085 375.69 551.815 390.295 558.545 404.533 565.229 418.359 571.959 431.773 578.689 444.684 585.419 457.137 592.149 468.995 598.879 480.257 605.609 491.016 612.339 501.18 619.023 510.84 625.753 519.996 632.483 528.649 639.213 536.844 645.943 544.535 652.673 551.815 659.403 558.682 666.133 565.092 672.818 571.181 679.548 576.858 686.278 582.169 693.008 587.159 699.738 591.829 706.468 596.27 713.198 600.436 719.928 604.373 726.612 608.127 733.342 611.744 740.072 615.178 746.802 618.566 753.532 621.816 760.262 625.021 766.992 628.226" stroke="#FF0000" stroke-width="1.96864" stroke-linejoin="round" stroke-miterlimit="10" fill="none" transform="matrix(1 0 0 1.00024 93.0002 2754.57)"/><path d="M766.992 628.226 699.417 628.226" stroke="#000000" stroke-width="1.96864" stroke-linejoin="round" stroke-miterlimit="10" fill="none" transform="matrix(1 0 0 1.00024 93.0002 2754.57)"/><path d="M713.656 619.985 699.417 628.226 713.656 636.466" stroke="#000000" stroke-width="1.96864" stroke-linejoin="round" stroke-miterlimit="10" fill="none" transform="matrix(1 0 0 1.00024 93.0002 2754.57)"/><path d="M235.733 373.63 268.01 373.63" stroke="#000000" stroke-width="1.96864" stroke-linejoin="round" stroke-miterlimit="10" fill="none" transform="matrix(1 0 0 1.00024 93.0002 2754.57)"/><path d="M253.726 381.871 268.01 373.63 253.726 365.389" stroke="#000000" stroke-width="1.96864" stroke-linejoin="round" stroke-miterlimit="10" fill="none" transform="matrix(1 0 0 1.00024 93.0002 2754.57)"/><path d="M501.454 275.656 439.557 275.656" stroke="#000000" stroke-width="1.96864" stroke-linejoin="round" stroke-miterlimit="10" fill="none" transform="matrix(1 0 0 1.00024 93.0002 2754.57)"/><path d="M453.841 267.415 439.557 275.656 453.841 283.896" stroke="#000000" stroke-width="1.96864" stroke-linejoin="round" stroke-miterlimit="10" fill="none" transform="matrix(1 0 0 1.00024 93.0002 2754.57)"/><path d="M412.82 92.8924 364.84 92.8924" stroke="#000000" stroke-width="1.96864" stroke-linejoin="round" stroke-miterlimit="10" fill="none" transform="matrix(1 0 0 1.00024 93.0002 2754.57)"/><path d="M379.124 84.6516 364.84 92.8924 379.124 101.133" stroke="#000000" stroke-width="1.96864" stroke-linejoin="round" stroke-miterlimit="10" fill="none" transform="matrix(1 0 0 1.00024 93.0002 2754.57)"/><path d="M324.368 86.4371 302.53 86.4371" stroke="#000000" stroke-width="1.96864" stroke-linejoin="round" stroke-miterlimit="10" fill="none" transform="matrix(1 0 0 1.00024 93.0002 2754.57)"/><path d="M316.814 78.1963 302.53 86.4371 316.814 94.6779" stroke="#000000" stroke-width="1.96864" stroke-linejoin="round" stroke-miterlimit="10" fill="none" transform="matrix(1 0 0 1.00024 93.0002 2754.57)"/><path d="M678.54 575.988 611.607 575.988" stroke="#000000" stroke-width="1.96864" stroke-linejoin="round" stroke-miterlimit="10" fill="none" transform="matrix(1 0 0 1.00024 93.0002 2754.57)"/><path d="M625.891 567.747 611.607 575.988 625.891 584.229" stroke="#000000" stroke-width="1.96864" stroke-linejoin="round" stroke-miterlimit="10" fill="none" transform="matrix(1 0 0 1.00024 93.0002 2754.57)"/><path d="M589.906 465.103 543.07 465.103" stroke="#000000" stroke-width="1.96864" stroke-linejoin="round" stroke-miterlimit="10" fill="none" transform="matrix(1 0 0 1.00024 93.0002 2754.57)"/><path d="M557.354 456.862 543.07 465.103 557.354 473.344" stroke="#000000" stroke-width="1.96864" stroke-linejoin="round" stroke-miterlimit="10" fill="none" transform="matrix(1 0 0 1.00024 93.0002 2754.57)"/><path d="M501.454 628.226 514.823 628.226" stroke="#000000" stroke-width="1.96864" stroke-linejoin="round" stroke-miterlimit="10" fill="none" transform="matrix(1 0 0 1.00024 93.0002 2754.57)"/><path d="M500.539 636.466 514.823 628.226 500.539 619.985" stroke="#000000" stroke-width="1.96864" stroke-linejoin="round" stroke-miterlimit="10" fill="none" transform="matrix(1 0 0 1.00024 93.0002 2754.57)"/><path d="M1032.71 373.63 996.911 373.63" stroke="#000000" stroke-width="1.96864" stroke-linejoin="round" stroke-miterlimit="10" fill="none" transform="matrix(1 0 0 1.00024 93.0002 2754.57)"/><path d="M1011.15 365.389 996.911 373.63 1011.15 381.871" stroke="#000000" stroke-width="1.96864" stroke-linejoin="round" stroke-miterlimit="10" fill="none" transform="matrix(1 0 0 1.00024 93.0002 2754.57)"/><path d="M766.992 275.656 794.553 275.656" stroke="#000000" stroke-width="1.96864" stroke-linejoin="round" stroke-miterlimit="10" fill="none" transform="matrix(1 0 0 1.00024 93.0002 2754.57)"/><path d="M780.269 283.896 794.553 275.656 780.269 267.415" stroke="#000000" stroke-width="1.96864" stroke-linejoin="round" stroke-miterlimit="10" fill="none" transform="matrix(1 0 0 1.00024 93.0002 2754.57)"/><path d="M855.627 92.8924 875.588 92.8924" stroke="#000000" stroke-width="1.96864" stroke-linejoin="round" stroke-miterlimit="10" fill="none" transform="matrix(1 0 0 1.00024 93.0002 2754.57)"/><path d="M861.304 101.133 875.588 92.8924 861.304 84.6516" stroke="#000000" stroke-width="1.96864" stroke-linejoin="round" stroke-miterlimit="10" fill="none" transform="matrix(1 0 0 1.00024 93.0002 2754.57)"/><path d="M944.078 86.4371 940.461 86.4371" stroke="#000000" stroke-width="1.96864" stroke-linejoin="round" stroke-miterlimit="10" fill="none" transform="matrix(1 0 0 1.00024 93.0002 2754.57)"/><path d="M954.745 78.1963 940.461 86.4371 954.745 94.6779" stroke="#000000" stroke-width="1.96864" stroke-linejoin="round" stroke-miterlimit="10" fill="none" transform="matrix(1 0 0 1.00024 93.0002 2754.57)"/><path d="M589.906 575.988 599.245 575.988" stroke="#000000" stroke-width="1.96864" stroke-linejoin="round" stroke-miterlimit="10" fill="none" transform="matrix(1 0 0 1.00024 93.0002 2754.57)"/><path d="M585.007 584.229 599.245 575.988 585.007 567.747" stroke="#000000" stroke-width="1.96864" stroke-linejoin="round" stroke-miterlimit="10" fill="none" transform="matrix(1 0 0 1.00024 93.0002 2754.57)"/><path d="M678.54 465.103 701.065 465.103" stroke="#000000" stroke-width="1.96864" stroke-linejoin="round" stroke-miterlimit="10" fill="none" transform="matrix(1 0 0 1.00024 93.0002 2754.57)"/><path d="M686.781 473.344 701.065 465.103 686.781 456.862" stroke="#000000" stroke-width="1.96864" stroke-linejoin="round" stroke-miterlimit="10" fill="none" transform="matrix(1 0 0 1.00024 93.0002 2754.57)"/><path d="M259.357 373.63C259.357 377.22 256.446 380.131 252.856 380.131 249.266 380.131 246.355 377.22 246.355 373.63 246.355 370.039 249.266 367.129 252.856 367.129 256.446 367.129 259.357 370.039 259.357 373.63Z" stroke="#FA8072" stroke-width="3.25055" stroke-linecap="round" stroke-linejoin="round" stroke-miterlimit="10" fill="#FA8072" transform="matrix(1 0 0 1.00024 93.0002 2754.57)"/><path d="M338.377 86.4371C338.377 90.0276 335.467 92.9382 331.876 92.9382 328.286 92.9382 325.375 90.0276 325.375 86.4371 325.375 82.8466 328.286 79.936 331.876 79.936 335.467 79.936 338.377 82.8466 338.377 86.4371Z" stroke="#FA8072" stroke-width="3.25055" stroke-linecap="round" stroke-linejoin="round" stroke-miterlimit="10" fill="#FA8072" transform="matrix(1 0 0 1.00024 93.0002 2754.57)"/><path d="M434.795 92.8924C434.795 96.4829 431.884 99.3935 428.294 99.3935 424.704 99.3935 421.793 96.4829 421.793 92.8924 421.793 89.302 424.704 86.3913 428.294 86.3913 431.884 86.3913 434.795 89.302 434.795 92.8924Z" stroke="#FA8072" stroke-width="3.25055" stroke-linecap="round" stroke-linejoin="round" stroke-miterlimit="10" fill="#FA8072" transform="matrix(1 0 0 1.00024 93.0002 2754.57)"/><path d="M557.583 275.656C557.583 279.246 554.673 282.157 551.082 282.157 547.492 282.157 544.581 279.246 544.581 275.656 544.581 272.065 547.492 269.155 551.082 269.155 554.673 269.155 557.583 272.065 557.583 275.656Z" stroke="#FA8072" stroke-width="3.25055" stroke-linecap="round" stroke-linejoin="round" stroke-miterlimit="10" fill="#FA8072" transform="matrix(1 0 0 1.00024 93.0002 2754.57)"/><path d="M611.011 465.103C611.011 468.693 608.101 471.604 604.51 471.604 600.92 471.604 598.009 468.693 598.009 465.103 598.009 461.513 600.92 458.602 604.51 458.602 608.101 458.602 611.011 461.513 611.011 465.103Z" stroke="#FA8072" stroke-width="3.25055" stroke-linecap="round" stroke-linejoin="round" stroke-miterlimit="10" fill="#FA8072" transform="matrix(1 0 0 1.00024 93.0002 2754.57)"/><path d="M677.716 575.988C677.716 579.578 674.806 582.489 671.215 582.489 667.625 582.489 664.714 579.578 664.714 575.988 664.714 572.398 667.625 569.487 671.215 569.487 674.806 569.487 677.716 572.398 677.716 575.988Z" stroke="#FA8072" stroke-width="3.25055" stroke-linecap="round" stroke-linejoin="round" stroke-miterlimit="10" fill="#FA8072" transform="matrix(1 0 0 1.00024 93.0002 2754.57)"/><path d="M753.349 628.226C753.349 631.816 750.438 634.727 746.848 634.727 743.257 634.727 740.347 631.816 740.347 628.226 740.347 624.635 743.257 621.725 746.848 621.725 750.438 621.725 753.349 624.635 753.349 628.226Z" stroke="#FA8072" stroke-width="3.25055" stroke-linecap="round" stroke-linejoin="round" stroke-miterlimit="10" fill="#FA8072" transform="matrix(1 0 0 1.00024 93.0002 2754.57)"/><path d="M276.342 375.69 276.342 371.524" stroke="#FA8072" stroke-width="3.8915" stroke-linejoin="round" stroke-miterlimit="10" fill="none" transform="matrix(1 0 0 1.00024 93.0002 2754.57)"/><path d="M276.342 373.63 229.324 373.63" stroke="#FA8072" stroke-width="3.8915" stroke-linejoin="round" stroke-miterlimit="10" fill="none" transform="matrix(1 0 0 1.00024 93.0002 2754.57)"/><path d="M229.324 375.69 229.324 371.524" stroke="#FA8072" stroke-width="3.8915" stroke-linejoin="round" stroke-miterlimit="10" fill="none" transform="matrix(1 0 0 1.00024 93.0002 2754.57)"/><path d="M358.155 88.5431 358.155 84.3311" stroke="#FA8072" stroke-width="3.8915" stroke-linejoin="round" stroke-miterlimit="10" fill="none" transform="matrix(1 0 0 1.00024 93.0002 2754.57)"/><path d="M358.155 86.4371 305.552 86.4371" stroke="#FA8072" stroke-width="3.8915" stroke-linejoin="round" stroke-miterlimit="10" fill="none" transform="matrix(1 0 0 1.00024 93.0002 2754.57)"/><path d="M305.552 88.5431 305.552 84.3311" stroke="#FA8072" stroke-width="3.8915" stroke-linejoin="round" stroke-miterlimit="10" fill="none" transform="matrix(1 0 0 1.00024 93.0002 2754.57)"/><path d="M457.732 94.9984 457.732 90.8322" stroke="#FA8072" stroke-width="3.8915" stroke-linejoin="round" stroke-miterlimit="10" fill="none" transform="matrix(1 0 0 1.00024 93.0002 2754.57)"/><path d="M457.732 92.8924 398.856 92.8924" stroke="#FA8072" stroke-width="3.8915" stroke-linejoin="round" stroke-miterlimit="10" fill="none" transform="matrix(1 0 0 1.00024 93.0002 2754.57)"/><path d="M398.856 94.9984 398.856 90.8322" stroke="#FA8072" stroke-width="3.8915" stroke-linejoin="round" stroke-miterlimit="10" fill="none" transform="matrix(1 0 0 1.00024 93.0002 2754.57)"/><path d="M583.954 277.762 583.954 273.595" stroke="#FA8072" stroke-width="3.8915" stroke-linejoin="round" stroke-miterlimit="10" fill="none" transform="matrix(1 0 0 1.00024 93.0002 2754.57)"/><path d="M583.954 275.656 518.165 275.656" stroke="#FA8072" stroke-width="3.8915" stroke-linejoin="round" stroke-miterlimit="10" fill="none" transform="matrix(1 0 0 1.00024 93.0002 2754.57)"/><path d="M518.165 277.762 518.165 273.595" stroke="#FA8072" stroke-width="3.8915" stroke-linejoin="round" stroke-miterlimit="10" fill="none" transform="matrix(1 0 0 1.00024 93.0002 2754.57)"/><path d="M634.772 467.163 634.772 462.997" stroke="#FA8072" stroke-width="3.8915" stroke-linejoin="round" stroke-miterlimit="10" fill="none" transform="matrix(1 0 0 1.00024 93.0002 2754.57)"/><path d="M634.772 465.103 574.248 465.103" stroke="#FA8072" stroke-width="3.8915" stroke-linejoin="round" stroke-miterlimit="10" fill="none" transform="matrix(1 0 0 1.00024 93.0002 2754.57)"/><path d="M574.248 467.163 574.248 462.997" stroke="#FA8072" stroke-width="3.8915" stroke-linejoin="round" stroke-miterlimit="10" fill="none" transform="matrix(1 0 0 1.00024 93.0002 2754.57)"/><path d="M695.251 578.094 695.251 573.928" stroke="#FA8072" stroke-width="3.8915" stroke-linejoin="round" stroke-miterlimit="10" fill="none" transform="matrix(1 0 0 1.00024 93.0002 2754.57)"/><path d="M695.251 575.988 647.18 575.988" stroke="#FA8072" stroke-width="3.8915" stroke-linejoin="round" stroke-miterlimit="10" fill="none" transform="matrix(1 0 0 1.00024 93.0002 2754.57)"/><path d="M647.18 578.094 647.18 573.928" stroke="#FA8072" stroke-width="3.8915" stroke-linejoin="round" stroke-miterlimit="10" fill="none" transform="matrix(1 0 0 1.00024 93.0002 2754.57)"/><path d="M769.098 630.286 769.098 626.12" stroke="#FA8072" stroke-width="3.8915" stroke-linejoin="round" stroke-miterlimit="10" fill="none" transform="matrix(1 0 0 1.00024 93.0002 2754.57)"/><path d="M769.098 628.226 724.598 628.226" stroke="#FA8072" stroke-width="3.8915" stroke-linejoin="round" stroke-miterlimit="10" fill="none" transform="matrix(1 0 0 1.00024 93.0002 2754.57)"/><path d="M724.598 630.286 724.598 626.12" stroke="#FA8072" stroke-width="3.8915" stroke-linejoin="round" stroke-miterlimit="10" fill="none" transform="matrix(1 0 0 1.00024 93.0002 2754.57)"/><path d="M558.911 628.226C558.911 631.816 556 634.727 552.41 634.727 548.82 634.727 545.909 631.816 545.909 628.226 545.909 624.635 548.82 621.725 552.41 621.725 556 621.725 558.911 624.635 558.911 628.226Z" stroke="#ADD8E6" stroke-width="3.25055" stroke-linecap="round" stroke-linejoin="round" stroke-miterlimit="10" fill="#ADD8E6" transform="matrix(1 0 0 1.00024 93.0002 2754.57)"/><path d="M600.939 575.988C600.939 579.578 598.029 582.489 594.438 582.489 590.848 582.489 587.937 579.578 587.937 575.988 587.937 572.398 590.848 569.487 594.438 569.487 598.029 569.487 600.939 572.398 600.939 575.988Z" stroke="#ADD8E6" stroke-width="3.25055" stroke-linecap="round" stroke-linejoin="round" stroke-miterlimit="10" fill="#ADD8E6" transform="matrix(1 0 0 1.00024 93.0002 2754.57)"/><path d="M681.516 465.103C681.516 468.693 678.606 471.604 675.015 471.604 671.425 471.604 668.514 468.693 668.514 465.103 668.514 461.513 671.425 458.602 675.015 458.602 678.606 458.602 681.516 461.513 681.516 465.103Z" stroke="#ADD8E6" stroke-width="3.25055" stroke-linecap="round" stroke-linejoin="round" stroke-miterlimit="10" fill="#ADD8E6" transform="matrix(1 0 0 1.00024 93.0002 2754.57)"/><path d="M780.727 275.656C780.727 279.246 777.816 282.157 774.226 282.157 770.635 282.157 767.724 279.246 767.724 275.656 767.724 272.065 770.635 269.155 774.226 269.155 777.816 269.155 780.727 272.065 780.727 275.656Z" stroke="#ADD8E6" stroke-width="3.25055" stroke-linecap="round" stroke-linejoin="round" stroke-miterlimit="10" fill="#ADD8E6" transform="matrix(1 0 0 1.00024 93.0002 2754.57)"/><path d="M843.174 92.8924C843.174 96.4829 840.263 99.3935 836.673 99.3935 833.082 99.3935 830.172 96.4829 830.172 92.8924 830.172 89.302 833.082 86.3913 836.673 86.3913 840.263 86.3913 843.174 89.302 843.174 92.8924Z" stroke="#ADD8E6" stroke-width="3.25055" stroke-linecap="round" stroke-linejoin="round" stroke-miterlimit="10" fill="#ADD8E6" transform="matrix(1 0 0 1.00024 93.0002 2754.57)"/><path d="M952.868 86.4371C952.868 90.0276 949.958 92.9382 946.367 92.9382 942.777 92.9382 939.866 90.0276 939.866 86.4371 939.866 82.8466 942.777 79.936 946.367 79.936 949.958 79.936 952.868 82.8466 952.868 86.4371Z" stroke="#ADD8E6" stroke-width="3.25055" stroke-linecap="round" stroke-linejoin="round" stroke-miterlimit="10" fill="#ADD8E6" transform="matrix(1 0 0 1.00024 93.0002 2754.57)"/><path d="M1055.6 373.63C1055.6 377.22 1052.69 380.131 1049.1 380.131 1045.51 380.131 1042.6 377.22 1042.6 373.63 1042.6 370.039 1045.51 367.129 1049.1 367.129 1052.69 367.129 1055.6 370.039 1055.6 373.63Z" stroke="#ADD8E6" stroke-width="3.25055" stroke-linecap="round" stroke-linejoin="round" stroke-miterlimit="10" fill="#ADD8E6" transform="matrix(1 0 0 1.00024 93.0002 2754.57)"/><path d="M585.373 630.286 585.373 626.12" stroke="#ADD8E6" stroke-width="3.8915" stroke-linejoin="round" stroke-miterlimit="10" fill="none" transform="matrix(1 0 0 1.00024 93.0002 2754.57)"/><path d="M585.373 628.226 519.447 628.226" stroke="#ADD8E6" stroke-width="3.8915" stroke-linejoin="round" stroke-miterlimit="10" fill="none" transform="matrix(1 0 0 1.00024 93.0002 2754.57)"/><path d="M519.447 630.286 519.447 626.12" stroke="#ADD8E6" stroke-width="3.8915" stroke-linejoin="round" stroke-miterlimit="10" fill="none" transform="matrix(1 0 0 1.00024 93.0002 2754.57)"/><path d="M620.443 578.094 620.443 573.928" stroke="#ADD8E6" stroke-width="3.8915" stroke-linejoin="round" stroke-miterlimit="10" fill="none" transform="matrix(1 0 0 1.00024 93.0002 2754.57)"/><path d="M620.443 575.988 568.48 575.988" stroke="#ADD8E6" stroke-width="3.8915" stroke-linejoin="round" stroke-miterlimit="10" fill="none" transform="matrix(1 0 0 1.00024 93.0002 2754.57)"/><path d="M568.48 578.094 568.48 573.928" stroke="#ADD8E6" stroke-width="3.8915" stroke-linejoin="round" stroke-miterlimit="10" fill="none" transform="matrix(1 0 0 1.00024 93.0002 2754.57)"/><path d="M695.434 467.163 695.434 462.997" stroke="#ADD8E6" stroke-width="3.8915" stroke-linejoin="round" stroke-miterlimit="10" fill="none" transform="matrix(1 0 0 1.00024 93.0002 2754.57)"/><path d="M695.434 465.103 654.55 465.103" stroke="#ADD8E6" stroke-width="3.8915" stroke-linejoin="round" stroke-miterlimit="10" fill="none" transform="matrix(1 0 0 1.00024 93.0002 2754.57)"/><path d="M654.55 467.163 654.55 462.997" stroke="#ADD8E6" stroke-width="3.8915" stroke-linejoin="round" stroke-miterlimit="10" fill="none" transform="matrix(1 0 0 1.00024 93.0002 2754.57)"/><path d="M799.406 277.762 799.406 273.595" stroke="#ADD8E6" stroke-width="3.8915" stroke-linejoin="round" stroke-miterlimit="10" fill="none" transform="matrix(1 0 0 1.00024 93.0002 2754.57)"/><path d="M799.406 275.656 749 275.656" stroke="#ADD8E6" stroke-width="3.8915" stroke-linejoin="round" stroke-miterlimit="10" fill="none" transform="matrix(1 0 0 1.00024 93.0002 2754.57)"/><path d="M749 277.762 749 273.595" stroke="#ADD8E6" stroke-width="3.8915" stroke-linejoin="round" stroke-miterlimit="10" fill="none" transform="matrix(1 0 0 1.00024 93.0002 2754.57)"/><path d="M863.227 94.9984 863.227 90.8322" stroke="#ADD8E6" stroke-width="3.8915" stroke-linejoin="round" stroke-miterlimit="10" fill="none" transform="matrix(1 0 0 1.00024 93.0002 2754.57)"/><path d="M863.227 92.8924 810.073 92.8924" stroke="#ADD8E6" stroke-width="3.8915" stroke-linejoin="round" stroke-miterlimit="10" fill="none" transform="matrix(1 0 0 1.00024 93.0002 2754.57)"/><path d="M810.073 94.9984 810.073 90.8322" stroke="#ADD8E6" stroke-width="3.8915" stroke-linejoin="round" stroke-miterlimit="10" fill="none" transform="matrix(1 0 0 1.00024 93.0002 2754.57)"/><path d="M972.463 88.5431 972.463 84.3311" stroke="#ADD8E6" stroke-width="3.8915" stroke-linejoin="round" stroke-miterlimit="10" fill="none" transform="matrix(1 0 0 1.00024 93.0002 2754.57)"/><path d="M972.463 86.4371 920.271 86.4371" stroke="#ADD8E6" stroke-width="3.8915" stroke-linejoin="round" stroke-miterlimit="10" fill="none" transform="matrix(1 0 0 1.00024 93.0002 2754.57)"/><path d="M920.271 88.5431 920.271 84.3311" stroke="#ADD8E6" stroke-width="3.8915" stroke-linejoin="round" stroke-miterlimit="10" fill="none" transform="matrix(1 0 0 1.00024 93.0002 2754.57)"/><path d="M1079.04 375.69 1079.04 371.524" stroke="#ADD8E6" stroke-width="3.8915" stroke-linejoin="round" stroke-miterlimit="10" fill="none" transform="matrix(1 0 0 1.00024 93.0002 2754.57)"/><path d="M1079.04 373.63 1019.16 373.63" stroke="#ADD8E6" stroke-width="3.8915" stroke-linejoin="round" stroke-miterlimit="10" fill="none" transform="matrix(1 0 0 1.00024 93.0002 2754.57)"/><path d="M1019.16 375.69 1019.16 371.524" stroke="#ADD8E6" stroke-width="3.8915" stroke-linejoin="round" stroke-miterlimit="10" fill="none" transform="matrix(1 0 0 1.00024 93.0002 2754.57)"/><path d="M521.324 628.226C521.324 631.816 518.413 634.727 514.823 634.727 511.232 634.727 508.322 631.816 508.322 628.226 508.322 624.635 511.232 621.725 514.823 621.725 518.413 621.725 521.324 624.635 521.324 628.226Z" stroke="#0000FF" stroke-width="3.25055" stroke-linecap="round" stroke-linejoin="round" stroke-miterlimit="10" fill="#0000FF" transform="matrix(1 0 0 1.00024 93.0002 2754.57)"/><path d="M605.746 575.988C605.746 579.578 602.836 582.489 599.245 582.489 595.655 582.489 592.744 579.578 592.744 575.988 592.744 572.398 595.655 569.487 599.245 569.487 602.836 569.487 605.746 572.398 605.746 575.988Z" stroke="#0000FF" stroke-width="3.25055" stroke-linecap="round" stroke-linejoin="round" stroke-miterlimit="10" fill="#0000FF" transform="matrix(1 0 0 1.00024 93.0002 2754.57)"/><path d="M707.566 465.103C707.566 468.693 704.656 471.604 701.065 471.604 697.475 471.604 694.564 468.693 694.564 465.103 694.564 461.513 697.475 458.602 701.065 458.602 704.656 458.602 707.566 461.513 707.566 465.103Z" stroke="#0000FF" stroke-width="3.25055" stroke-linecap="round" stroke-linejoin="round" stroke-miterlimit="10" fill="#0000FF" transform="matrix(1 0 0 1.00024 93.0002 2754.57)"/><path d="M801.054 275.656C801.054 279.246 798.143 282.157 794.553 282.157 790.963 282.157 788.052 279.246 788.052 275.656 788.052 272.065 790.963 269.155 794.553 269.155 798.143 269.155 801.054 272.065 801.054 275.656Z" stroke="#0000FF" stroke-width="3.25055" stroke-linecap="round" stroke-linejoin="round" stroke-miterlimit="10" fill="#0000FF" transform="matrix(1 0 0 1.00024 93.0002 2754.57)"/><path d="M882.089 92.8924C882.089 96.4829 879.178 99.3935 875.588 99.3935 871.997 99.3935 869.087 96.4829 869.087 92.8924 869.087 89.302 871.997 86.3913 875.588 86.3913 879.178 86.3913 882.089 89.302 882.089 92.8924Z" stroke="#0000FF" stroke-width="3.25055" stroke-linecap="round" stroke-linejoin="round" stroke-miterlimit="10" fill="#0000FF" transform="matrix(1 0 0 1.00024 93.0002 2754.57)"/><path d="M946.962 86.4371C946.962 90.0276 944.052 92.9382 940.461 92.9382 936.871 92.9382 933.96 90.0276 933.96 86.4371 933.96 82.8466 936.871 79.936 940.461 79.936 944.052 79.936 946.962 82.8466 946.962 86.4371Z" stroke="#0000FF" stroke-width="3.25055" stroke-linecap="round" stroke-linejoin="round" stroke-miterlimit="10" fill="#0000FF" transform="matrix(1 0 0 1.00024 93.0002 2754.57)"/><path d="M1003.41 373.63C1003.41 377.22 1000.5 380.131 996.911 380.131 993.321 380.131 990.41 377.22 990.41 373.63 990.41 370.039 993.321 367.129 996.911 367.129 1000.5 367.129 1003.41 370.039 1003.41 373.63Z" stroke="#0000FF" stroke-width="3.25055" stroke-linecap="round" stroke-linejoin="round" stroke-miterlimit="10" fill="#0000FF" transform="matrix(1 0 0 1.00024 93.0002 2754.57)"/><path d="M561.154 630.286 561.154 626.12" stroke="#0000FF" stroke-width="3.8915" stroke-linejoin="round" stroke-miterlimit="10" fill="none" transform="matrix(1 0 0 1.00024 93.0002 2754.57)"/><path d="M561.154 628.226 468.537 628.226" stroke="#0000FF" stroke-width="3.8915" stroke-linejoin="round" stroke-miterlimit="10" fill="none" transform="matrix(1 0 0 1.00024 93.0002 2754.57)"/><path d="M468.537 630.286 468.537 626.12" stroke="#0000FF" stroke-width="3.8915" stroke-linejoin="round" stroke-miterlimit="10" fill="none" transform="matrix(1 0 0 1.00024 93.0002 2754.57)"/><path d="M640.495 578.094 640.495 573.928" stroke="#0000FF" stroke-width="3.8915" stroke-linejoin="round" stroke-miterlimit="10" fill="none" transform="matrix(1 0 0 1.00024 93.0002 2754.57)"/><path d="M640.495 575.988 558.041 575.988" stroke="#0000FF" stroke-width="3.8915" stroke-linejoin="round" stroke-miterlimit="10" fill="none" transform="matrix(1 0 0 1.00024 93.0002 2754.57)"/><path d="M558.041 578.094 558.041 573.928" stroke="#0000FF" stroke-width="3.8915" stroke-linejoin="round" stroke-miterlimit="10" fill="none" transform="matrix(1 0 0 1.00024 93.0002 2754.57)"/><path d="M737.279 467.163 737.279 462.997" stroke="#0000FF" stroke-width="3.8915" stroke-linejoin="round" stroke-miterlimit="10" fill="none" transform="matrix(1 0 0 1.00024 93.0002 2754.57)"/><path d="M737.279 465.103 664.852 465.103" stroke="#0000FF" stroke-width="3.8915" stroke-linejoin="round" stroke-miterlimit="10" fill="none" transform="matrix(1 0 0 1.00024 93.0002 2754.57)"/><path d="M664.852 467.163 664.852 462.997" stroke="#0000FF" stroke-width="3.8915" stroke-linejoin="round" stroke-miterlimit="10" fill="none" transform="matrix(1 0 0 1.00024 93.0002 2754.57)"/><path d="M832.094 277.762 832.094 273.595" stroke="#0000FF" stroke-width="3.8915" stroke-linejoin="round" stroke-miterlimit="10" fill="none" transform="matrix(1 0 0 1.00024 93.0002 2754.57)"/><path d="M832.094 275.656 756.966 275.656" stroke="#0000FF" stroke-width="3.8915" stroke-linejoin="round" stroke-miterlimit="10" fill="none" transform="matrix(1 0 0 1.00024 93.0002 2754.57)"/><path d="M756.966 277.762 756.966 273.595" stroke="#0000FF" stroke-width="3.8915" stroke-linejoin="round" stroke-miterlimit="10" fill="none" transform="matrix(1 0 0 1.00024 93.0002 2754.57)"/><path d="M915.876 94.9984 915.876 90.8322" stroke="#0000FF" stroke-width="3.8915" stroke-linejoin="round" stroke-miterlimit="10" fill="none" transform="matrix(1 0 0 1.00024 93.0002 2754.57)"/><path d="M915.876 92.8924 835.299 92.8924" stroke="#0000FF" stroke-width="3.8915" stroke-linejoin="round" stroke-miterlimit="10" fill="none" transform="matrix(1 0 0 1.00024 93.0002 2754.57)"/><path d="M835.299 94.9984 835.299 90.8322" stroke="#0000FF" stroke-width="3.8915" stroke-linejoin="round" stroke-miterlimit="10" fill="none" transform="matrix(1 0 0 1.00024 93.0002 2754.57)"/><path d="M980.658 88.5431 980.658 84.3311" stroke="#0000FF" stroke-width="3.8915" stroke-linejoin="round" stroke-miterlimit="10" fill="none" transform="matrix(1 0 0 1.00024 93.0002 2754.57)"/><path d="M980.658 86.4371 900.264 86.4371" stroke="#0000FF" stroke-width="3.8915" stroke-linejoin="round" stroke-miterlimit="10" fill="none" transform="matrix(1 0 0 1.00024 93.0002 2754.57)"/><path d="M900.264 88.5431 900.264 84.3311" stroke="#0000FF" stroke-width="3.8915" stroke-linejoin="round" stroke-miterlimit="10" fill="none" transform="matrix(1 0 0 1.00024 93.0002 2754.57)"/><path d="M1040.04 375.69 1040.04 371.524" stroke="#0000FF" stroke-width="3.8915" stroke-linejoin="round" stroke-miterlimit="10" fill="none" transform="matrix(1 0 0 1.00024 93.0002 2754.57)"/><path d="M1040.04 373.63 953.738 373.63" stroke="#0000FF" stroke-width="3.8915" stroke-linejoin="round" stroke-miterlimit="10" fill="none" transform="matrix(1 0 0 1.00024 93.0002 2754.57)"/><path d="M953.738 375.69 953.738 371.524" stroke="#0000FF" stroke-width="3.8915" stroke-linejoin="round" stroke-miterlimit="10" fill="none" transform="matrix(1 0 0 1.00024 93.0002 2754.57)"/><path d="M274.511 373.63C274.511 377.22 271.6 380.131 268.01 380.131 264.42 380.131 261.509 377.22 261.509 373.63 261.509 370.039 264.42 367.129 268.01 367.129 271.6 367.129 274.511 370.039 274.511 373.63Z" stroke="#FF0000" stroke-width="3.25055" stroke-linecap="round" stroke-linejoin="round" stroke-miterlimit="10" fill="#FF0000" transform="matrix(1 0 0 1.00024 93.0002 2754.57)"/><path d="M309.031 86.4371C309.031 90.0276 306.12 92.9382 302.53 92.9382 298.939 92.9382 296.029 90.0276 296.029 86.4371 296.029 82.8466 298.939 79.936 302.53 79.936 306.12 79.936 309.031 82.8466 309.031 86.4371Z" stroke="#FF0000" stroke-width="3.25055" stroke-linecap="round" stroke-linejoin="round" stroke-miterlimit="10" fill="#FF0000" transform="matrix(1 0 0 1.00024 93.0002 2754.57)"/><path d="M371.341 92.8924C371.341 96.4829 368.43 99.3935 364.84 99.3935 361.249 99.3935 358.339 96.4829 358.339 92.8924 358.339 89.302 361.249 86.3913 364.84 86.3913 368.43 86.3913 371.341 89.302 371.341 92.8924Z" stroke="#FF0000" stroke-width="3.25055" stroke-linecap="round" stroke-linejoin="round" stroke-miterlimit="10" fill="#FF0000" transform="matrix(1 0 0 1.00024 93.0002 2754.57)"/><path d="M446.058 275.656C446.058 279.246 443.147 282.157 439.557 282.157 435.966 282.157 433.055 279.246 433.055 275.656 433.055 272.065 435.966 269.155 439.557 269.155 443.147 269.155 446.058 272.065 446.058 275.656Z" stroke="#FF0000" stroke-width="3.25055" stroke-linecap="round" stroke-linejoin="round" stroke-miterlimit="10" fill="#FF0000" transform="matrix(1 0 0 1.00024 93.0002 2754.57)"/><path d="M549.572 465.103C549.572 468.693 546.661 471.604 543.07 471.604 539.48 471.604 536.569 468.693 536.569 465.103 536.569 461.513 539.48 458.602 543.07 458.602 546.661 458.602 549.572 461.513 549.572 465.103Z" stroke="#FF0000" stroke-width="3.25055" stroke-linecap="round" stroke-linejoin="round" stroke-miterlimit="10" fill="#FF0000" transform="matrix(1 0 0 1.00024 93.0002 2754.57)"/><path d="M618.108 575.988C618.108 579.578 615.197 582.489 611.607 582.489 608.016 582.489 605.106 579.578 605.106 575.988 605.106 572.398 608.016 569.487 611.607 569.487 615.197 569.487 618.108 572.398 618.108 575.988Z" stroke="#FF0000" stroke-width="3.25055" stroke-linecap="round" stroke-linejoin="round" stroke-miterlimit="10" fill="#FF0000" transform="matrix(1 0 0 1.00024 93.0002 2754.57)"/><path d="M705.918 628.226C705.918 631.816 703.008 634.727 699.417 634.727 695.827 634.727 692.916 631.816 692.916 628.226 692.916 624.635 695.827 621.725 699.417 621.725 703.008 621.725 705.918 624.635 705.918 628.226Z" stroke="#FF0000" stroke-width="3.25055" stroke-linecap="round" stroke-linejoin="round" stroke-miterlimit="10" fill="#FF0000" transform="matrix(1 0 0 1.00024 93.0002 2754.57)"/><path d="M316.997 375.69 316.997 371.524" stroke="#FF0000" stroke-width="3.8915" stroke-linejoin="round" stroke-miterlimit="10" fill="none" transform="matrix(1 0 0 1.00024 93.0002 2754.57)"/><path d="M316.997 373.63 219.023 373.63" stroke="#FF0000" stroke-width="3.8915" stroke-linejoin="round" stroke-miterlimit="10" fill="none" transform="matrix(1 0 0 1.00024 93.0002 2754.57)"/><path d="M219.023 375.69 219.023 371.524" stroke="#FF0000" stroke-width="3.8915" stroke-linejoin="round" stroke-miterlimit="10" fill="none" transform="matrix(1 0 0 1.00024 93.0002 2754.57)"/><path d="M348.038 88.5431 348.038 84.3311" stroke="#FF0000" stroke-width="3.8915" stroke-linejoin="round" stroke-miterlimit="10" fill="none" transform="matrix(1 0 0 1.00024 93.0002 2754.57)"/><path d="M348.038 86.4371 257.022 86.4371" stroke="#FF0000" stroke-width="3.8915" stroke-linejoin="round" stroke-miterlimit="10" fill="none" transform="matrix(1 0 0 1.00024 93.0002 2754.57)"/><path d="M257.022 88.5431 257.022 84.3311" stroke="#FF0000" stroke-width="3.8915" stroke-linejoin="round" stroke-miterlimit="10" fill="none" transform="matrix(1 0 0 1.00024 93.0002 2754.57)"/><path d="M410.759 94.9984 410.759 90.8322" stroke="#FF0000" stroke-width="3.8915" stroke-linejoin="round" stroke-miterlimit="10" fill="none" transform="matrix(1 0 0 1.00024 93.0002 2754.57)"/><path d="M410.759 92.8924 318.966 92.8924" stroke="#FF0000" stroke-width="3.8915" stroke-linejoin="round" stroke-miterlimit="10" fill="none" transform="matrix(1 0 0 1.00024 93.0002 2754.57)"/><path d="M318.966 94.9984 318.966 90.8322" stroke="#FF0000" stroke-width="3.8915" stroke-linejoin="round" stroke-miterlimit="10" fill="none" transform="matrix(1 0 0 1.00024 93.0002 2754.57)"/><path d="M482.546 277.762 482.546 273.595" stroke="#FF0000" stroke-width="3.8915" stroke-linejoin="round" stroke-miterlimit="10" fill="none" transform="matrix(1 0 0 1.00024 93.0002 2754.57)"/><path d="M482.546 275.656 396.567 275.656" stroke="#FF0000" stroke-width="3.8915" stroke-linejoin="round" stroke-miterlimit="10" fill="none" transform="matrix(1 0 0 1.00024 93.0002 2754.57)"/><path d="M396.567 277.762 396.567 273.595" stroke="#FF0000" stroke-width="3.8915" stroke-linejoin="round" stroke-miterlimit="10" fill="none" transform="matrix(1 0 0 1.00024 93.0002 2754.57)"/><path d="M584.732 467.163 584.732 462.997" stroke="#FF0000" stroke-width="3.8915" stroke-linejoin="round" stroke-miterlimit="10" fill="none" transform="matrix(1 0 0 1.00024 93.0002 2754.57)"/><path d="M584.732 465.103 501.408 465.103" stroke="#FF0000" stroke-width="3.8915" stroke-linejoin="round" stroke-miterlimit="10" fill="none" transform="matrix(1 0 0 1.00024 93.0002 2754.57)"/><path d="M501.408 467.163 501.408 462.997" stroke="#FF0000" stroke-width="3.8915" stroke-linejoin="round" stroke-miterlimit="10" fill="none" transform="matrix(1 0 0 1.00024 93.0002 2754.57)"/><path d="M643.288 578.094 643.288 573.928" stroke="#FF0000" stroke-width="3.8915" stroke-linejoin="round" stroke-miterlimit="10" fill="none" transform="matrix(1 0 0 1.00024 93.0002 2754.57)"/><path d="M643.288 575.988 579.925 575.988" stroke="#FF0000" stroke-width="3.8915" stroke-linejoin="round" stroke-miterlimit="10" fill="none" transform="matrix(1 0 0 1.00024 93.0002 2754.57)"/><path d="M579.925 578.094 579.925 573.928" stroke="#FF0000" stroke-width="3.8915" stroke-linejoin="round" stroke-miterlimit="10" fill="none" transform="matrix(1 0 0 1.00024 93.0002 2754.57)"/><path d="M748.679 630.286 748.679 626.12" stroke="#FF0000" stroke-width="3.8915" stroke-linejoin="round" stroke-miterlimit="10" fill="none" transform="matrix(1 0 0 1.00024 93.0002 2754.57)"/><path d="M748.679 628.226 650.155 628.226" stroke="#FF0000" stroke-width="3.8915" stroke-linejoin="round" stroke-miterlimit="10" fill="none" transform="matrix(1 0 0 1.00024 93.0002 2754.57)"/><path d="M650.155 630.286 650.155 626.12" stroke="#FF0000" stroke-width="3.8915" stroke-linejoin="round" stroke-miterlimit="10" fill="none" transform="matrix(1 0 0 1.00024 93.0002 2754.57)"/><path d="M216.825 591.646C216.825 595.236 213.915 598.147 210.324 598.147 206.734 598.147 203.823 595.236 203.823 591.646 203.823 588.055 206.734 585.144 210.324 585.144 213.915 585.144 216.825 588.055 216.825 591.646Z" stroke="#FA8072" stroke-width="3.25055" stroke-linecap="round" stroke-linejoin="round" stroke-miterlimit="10" fill="#FA8072" transform="matrix(1 0 0 1.00024 93.0002 2754.57)"/><path d="M216.825 591.646C216.825 595.236 213.915 598.147 210.324 598.147 206.734 598.147 203.823 595.236 203.823 591.646 203.823 588.055 206.734 585.144 210.324 585.144 213.915 585.144 216.825 588.055 216.825 591.646Z" stroke="#FA8072" stroke-width="3.25055" stroke-linecap="round" stroke-linejoin="round" stroke-miterlimit="10" fill="#FA8072" transform="matrix(1 0 0 1.00024 93.0002 2754.57)"/><path d="M216.825 591.646C216.825 595.236 213.915 598.147 210.324 598.147 206.734 598.147 203.823 595.236 203.823 591.646 203.823 588.055 206.734 585.144 210.324 585.144 213.915 585.144 216.825 588.055 216.825 591.646Z" stroke="#FA8072" stroke-width="3.25055" stroke-linecap="round" stroke-linejoin="round" stroke-miterlimit="10" fill="#FA8072" transform="matrix(1 0 0 1.00024 93.0002 2754.57)"/><path d="M216.825 591.646C216.825 595.236 213.915 598.147 210.324 598.147 206.734 598.147 203.823 595.236 203.823 591.646 203.823 588.055 206.734 585.144 210.324 585.144 213.915 585.144 216.825 588.055 216.825 591.646Z" stroke="#FA8072" stroke-width="3.25055" stroke-linecap="round" stroke-linejoin="round" stroke-miterlimit="10" fill="#FA8072" transform="matrix(1 0 0 1.00024 93.0002 2754.57)"/><path d="M216.825 591.646C216.825 595.236 213.915 598.147 210.324 598.147 206.734 598.147 203.823 595.236 203.823 591.646 203.823 588.055 206.734 585.144 210.324 585.144 213.915 585.144 216.825 588.055 216.825 591.646Z" stroke="#FA8072" stroke-width="3.25055" stroke-linecap="round" stroke-linejoin="round" stroke-miterlimit="10" fill="#FA8072" transform="matrix(1 0 0 1.00024 93.0002 2754.57)"/><path d="M216.825 591.646C216.825 595.236 213.915 598.147 210.324 598.147 206.734 598.147 203.823 595.236 203.823 591.646 203.823 588.055 206.734 585.144 210.324 585.144 213.915 585.144 216.825 588.055 216.825 591.646Z" stroke="#FA8072" stroke-width="3.25055" stroke-linecap="round" stroke-linejoin="round" stroke-miterlimit="10" fill="#FA8072" transform="matrix(1 0 0 1.00024 93.0002 2754.57)"/><path d="M216.825 591.646C216.825 595.236 213.915 598.147 210.324 598.147 206.734 598.147 203.823 595.236 203.823 591.646 203.823 588.055 206.734 585.144 210.324 585.144 213.915 585.144 216.825 588.055 216.825 591.646Z" stroke="#FA8072" stroke-width="3.25055" stroke-linecap="round" stroke-linejoin="round" stroke-miterlimit="10" fill="#FA8072" transform="matrix(1 0 0 1.00024 93.0002 2754.57)"/><path d="M216.825 591.646C216.825 595.236 213.915 598.147 210.324 598.147 206.734 598.147 203.823 595.236 203.823 591.646 203.823 588.055 206.734 585.144 210.324 585.144 213.915 585.144 216.825 588.055 216.825 591.646Z" stroke="#FA8072" stroke-width="3.25055" stroke-linecap="round" stroke-linejoin="round" stroke-miterlimit="10" fill="#FA8072" transform="matrix(1 0 0 1.00024 93.0002 2754.57)"/><path d="M216.825 591.646C216.825 595.236 213.915 598.147 210.324 598.147 206.734 598.147 203.823 595.236 203.823 591.646 203.823 588.055 206.734 585.144 210.324 585.144 213.915 585.144 216.825 588.055 216.825 591.646Z" stroke="#FA8072" stroke-width="3.25055" stroke-linecap="round" stroke-linejoin="round" stroke-miterlimit="10" fill="#FA8072" transform="matrix(1 0 0 1.00024 93.0002 2754.57)"/><path d="M216.825 591.646C216.825 595.236 213.915 598.147 210.324 598.147 206.734 598.147 203.823 595.236 203.823 591.646 203.823 588.055 206.734 585.144 210.324 585.144 213.915 585.144 216.825 588.055 216.825 591.646Z" stroke="#FA8072" stroke-width="3.25055" stroke-linecap="round" stroke-linejoin="round" stroke-miterlimit="10" fill="#FA8072" transform="matrix(1 0 0 1.00024 93.0002 2754.57)"/><path d="M216.825 623.006C216.825 626.597 213.915 629.508 210.324 629.508 206.734 629.508 203.823 626.597 203.823 623.006 203.823 619.416 206.734 616.505 210.324 616.505 213.915 616.505 216.825 619.416 216.825 623.006Z" stroke="#FF0000" stroke-width="3.25055" stroke-linecap="round" stroke-linejoin="round" stroke-miterlimit="10" fill="#FF0000" transform="matrix(1 0 0 1.00024 93.0002 2754.57)"/><path d="M216.825 623.006C216.825 626.597 213.915 629.508 210.324 629.508 206.734 629.508 203.823 626.597 203.823 623.006 203.823 619.416 206.734 616.505 210.324 616.505 213.915 616.505 216.825 619.416 216.825 623.006Z" stroke="#FF0000" stroke-width="3.25055" stroke-linecap="round" stroke-linejoin="round" stroke-miterlimit="10" fill="#FF0000" transform="matrix(1 0 0 1.00024 93.0002 2754.57)"/><path d="M216.825 623.006C216.825 626.597 213.915 629.508 210.324 629.508 206.734 629.508 203.823 626.597 203.823 623.006 203.823 619.416 206.734 616.505 210.324 616.505 213.915 616.505 216.825 619.416 216.825 623.006Z" stroke="#FF0000" stroke-width="3.25055" stroke-linecap="round" stroke-linejoin="round" stroke-miterlimit="10" fill="#FF0000" transform="matrix(1 0 0 1.00024 93.0002 2754.57)"/><path d="M216.825 623.006C216.825 626.597 213.915 629.508 210.324 629.508 206.734 629.508 203.823 626.597 203.823 623.006 203.823 619.416 206.734 616.505 210.324 616.505 213.915 616.505 216.825 619.416 216.825 623.006Z" stroke="#FF0000" stroke-width="3.25055" stroke-linecap="round" stroke-linejoin="round" stroke-miterlimit="10" fill="#FF0000" transform="matrix(1 0 0 1.00024 93.0002 2754.57)"/><path d="M216.825 623.006C216.825 626.597 213.915 629.508 210.324 629.508 206.734 629.508 203.823 626.597 203.823 623.006 203.823 619.416 206.734 616.505 210.324 616.505 213.915 616.505 216.825 619.416 216.825 623.006Z" stroke="#FF0000" stroke-width="3.25055" stroke-linecap="round" stroke-linejoin="round" stroke-miterlimit="10" fill="#FF0000" transform="matrix(1 0 0 1.00024 93.0002 2754.57)"/><path d="M216.825 623.006C216.825 626.597 213.915 629.508 210.324 629.508 206.734 629.508 203.823 626.597 203.823 623.006 203.823 619.416 206.734 616.505 210.324 616.505 213.915 616.505 216.825 619.416 216.825 623.006Z" stroke="#FF0000" stroke-width="3.25055" stroke-linecap="round" stroke-linejoin="round" stroke-miterlimit="10" fill="#FF0000" transform="matrix(1 0 0 1.00024 93.0002 2754.57)"/><path d="M216.825 623.006C216.825 626.597 213.915 629.508 210.324 629.508 206.734 629.508 203.823 626.597 203.823 623.006 203.823 619.416 206.734 616.505 210.324 616.505 213.915 616.505 216.825 619.416 216.825 623.006Z" stroke="#FF0000" stroke-width="3.25055" stroke-linecap="round" stroke-linejoin="round" stroke-miterlimit="10" fill="#FF0000" transform="matrix(1 0 0 1.00024 93.0002 2754.57)"/><path d="M216.825 623.006C216.825 626.597 213.915 629.508 210.324 629.508 206.734 629.508 203.823 626.597 203.823 623.006 203.823 619.416 206.734 616.505 210.324 616.505 213.915 616.505 216.825 619.416 216.825 623.006Z" stroke="#FF0000" stroke-width="3.25055" stroke-linecap="round" stroke-linejoin="round" stroke-miterlimit="10" fill="#FF0000" transform="matrix(1 0 0 1.00024 93.0002 2754.57)"/><path d="M216.825 623.006C216.825 626.597 213.915 629.508 210.324 629.508 206.734 629.508 203.823 626.597 203.823 623.006 203.823 619.416 206.734 616.505 210.324 616.505 213.915 616.505 216.825 619.416 216.825 623.006Z" stroke="#FF0000" stroke-width="3.25055" stroke-linecap="round" stroke-linejoin="round" stroke-miterlimit="10" fill="#FF0000" transform="matrix(1 0 0 1.00024 93.0002 2754.57)"/><path d="M216.825 623.006C216.825 626.597 213.915 629.508 210.324 629.508 206.734 629.508 203.823 626.597 203.823 623.006 203.823 619.416 206.734 616.505 210.324 616.505 213.915 616.505 216.825 619.416 216.825 623.006Z" stroke="#FF0000" stroke-width="3.25055" stroke-linecap="round" stroke-linejoin="round" stroke-miterlimit="10" fill="#FF0000" transform="matrix(1 0 0 1.00024 93.0002 2754.57)"/><path d="M910.474 591.646C910.474 595.236 907.563 598.147 903.973 598.147 900.382 598.147 897.472 595.236 897.472 591.646 897.472 588.055 900.382 585.144 903.973 585.144 907.563 585.144 910.474 588.055 910.474 591.646Z" stroke="#ADD8E6" stroke-width="3.25055" stroke-linecap="round" stroke-linejoin="round" stroke-miterlimit="10" fill="#ADD8E6" transform="matrix(1 0 0 1.00024 93.0002 2754.57)"/><path d="M910.474 591.646C910.474 595.236 907.563 598.147 903.973 598.147 900.382 598.147 897.472 595.236 897.472 591.646 897.472 588.055 900.382 585.144 903.973 585.144 907.563 585.144 910.474 588.055 910.474 591.646Z" stroke="#ADD8E6" stroke-width="3.25055" stroke-linecap="round" stroke-linejoin="round" stroke-miterlimit="10" fill="#ADD8E6" transform="matrix(1 0 0 1.00024 93.0002 2754.57)"/><path d="M910.474 591.646C910.474 595.236 907.563 598.147 903.973 598.147 900.382 598.147 897.472 595.236 897.472 591.646 897.472 588.055 900.382 585.144 903.973 585.144 907.563 585.144 910.474 588.055 910.474 591.646Z" stroke="#ADD8E6" stroke-width="3.25055" stroke-linecap="round" stroke-linejoin="round" stroke-miterlimit="10" fill="#ADD8E6" transform="matrix(1 0 0 1.00024 93.0002 2754.57)"/><path d="M910.474 591.646C910.474 595.236 907.563 598.147 903.973 598.147 900.382 598.147 897.472 595.236 897.472 591.646 897.472 588.055 900.382 585.144 903.973 585.144 907.563 585.144 910.474 588.055 910.474 591.646Z" stroke="#ADD8E6" stroke-width="3.25055" stroke-linecap="round" stroke-linejoin="round" stroke-miterlimit="10" fill="#ADD8E6" transform="matrix(1 0 0 1.00024 93.0002 2754.57)"/><path d="M910.474 591.646C910.474 595.236 907.563 598.147 903.973 598.147 900.382 598.147 897.472 595.236 897.472 591.646 897.472 588.055 900.382 585.144 903.973 585.144 907.563 585.144 910.474 588.055 910.474 591.646Z" stroke="#ADD8E6" stroke-width="3.25055" stroke-linecap="round" stroke-linejoin="round" stroke-miterlimit="10" fill="#ADD8E6" transform="matrix(1 0 0 1.00024 93.0002 2754.57)"/><path d="M910.474 591.646C910.474 595.236 907.563 598.147 903.973 598.147 900.382 598.147 897.472 595.236 897.472 591.646 897.472 588.055 900.382 585.144 903.973 585.144 907.563 585.144 910.474 588.055 910.474 591.646Z" stroke="#ADD8E6" stroke-width="3.25055" stroke-linecap="round" stroke-linejoin="round" stroke-miterlimit="10" fill="#ADD8E6" transform="matrix(1 0 0 1.00024 93.0002 2754.57)"/><path d="M910.474 591.646C910.474 595.236 907.563 598.147 903.973 598.147 900.382 598.147 897.472 595.236 897.472 591.646 897.472 588.055 900.382 585.144 903.973 585.144 907.563 585.144 910.474 588.055 910.474 591.646Z" stroke="#ADD8E6" stroke-width="3.25055" stroke-linecap="round" stroke-linejoin="round" stroke-miterlimit="10" fill="#ADD8E6" transform="matrix(1 0 0 1.00024 93.0002 2754.57)"/><path d="M910.474 591.646C910.474 595.236 907.563 598.147 903.973 598.147 900.382 598.147 897.472 595.236 897.472 591.646 897.472 588.055 900.382 585.144 903.973 585.144 907.563 585.144 910.474 588.055 910.474 591.646Z" stroke="#ADD8E6" stroke-width="3.25055" stroke-linecap="round" stroke-linejoin="round" stroke-miterlimit="10" fill="#ADD8E6" transform="matrix(1 0 0 1.00024 93.0002 2754.57)"/><path d="M910.474 591.646C910.474 595.236 907.563 598.147 903.973 598.147 900.382 598.147 897.472 595.236 897.472 591.646 897.472 588.055 900.382 585.144 903.973 585.144 907.563 585.144 910.474 588.055 910.474 591.646Z" stroke="#ADD8E6" stroke-width="3.25055" stroke-linecap="round" stroke-linejoin="round" stroke-miterlimit="10" fill="#ADD8E6" transform="matrix(1 0 0 1.00024 93.0002 2754.57)"/><path d="M910.474 591.646C910.474 595.236 907.563 598.147 903.973 598.147 900.382 598.147 897.472 595.236 897.472 591.646 897.472 588.055 900.382 585.144 903.973 585.144 907.563 585.144 910.474 588.055 910.474 591.646Z" stroke="#ADD8E6" stroke-width="3.25055" stroke-linecap="round" stroke-linejoin="round" stroke-miterlimit="10" fill="#ADD8E6" transform="matrix(1 0 0 1.00024 93.0002 2754.57)"/><path d="M910.474 623.006C910.474 626.597 907.563 629.508 903.973 629.508 900.382 629.508 897.472 626.597 897.472 623.006 897.472 619.416 900.382 616.505 903.973 616.505 907.563 616.505 910.474 619.416 910.474 623.006Z" stroke="#0000FF" stroke-width="3.25055" stroke-linecap="round" stroke-linejoin="round" stroke-miterlimit="10" fill="#0000FF" transform="matrix(1 0 0 1.00024 93.0002 2754.57)"/><path d="M910.474 623.006C910.474 626.597 907.563 629.508 903.973 629.508 900.382 629.508 897.472 626.597 897.472 623.006 897.472 619.416 900.382 616.505 903.973 616.505 907.563 616.505 910.474 619.416 910.474 623.006Z" stroke="#0000FF" stroke-width="3.25055" stroke-linecap="round" stroke-linejoin="round" stroke-miterlimit="10" fill="#0000FF" transform="matrix(1 0 0 1.00024 93.0002 2754.57)"/><path d="M910.474 623.006C910.474 626.597 907.563 629.508 903.973 629.508 900.382 629.508 897.472 626.597 897.472 623.006 897.472 619.416 900.382 616.505 903.973 616.505 907.563 616.505 910.474 619.416 910.474 623.006Z" stroke="#0000FF" stroke-width="3.25055" stroke-linecap="round" stroke-linejoin="round" stroke-miterlimit="10" fill="#0000FF" transform="matrix(1 0 0 1.00024 93.0002 2754.57)"/><path d="M910.474 623.006C910.474 626.597 907.563 629.508 903.973 629.508 900.382 629.508 897.472 626.597 897.472 623.006 897.472 619.416 900.382 616.505 903.973 616.505 907.563 616.505 910.474 619.416 910.474 623.006Z" stroke="#0000FF" stroke-width="3.25055" stroke-linecap="round" stroke-linejoin="round" stroke-miterlimit="10" fill="#0000FF" transform="matrix(1 0 0 1.00024 93.0002 2754.57)"/><path d="M910.474 623.006C910.474 626.597 907.563 629.508 903.973 629.508 900.382 629.508 897.472 626.597 897.472 623.006 897.472 619.416 900.382 616.505 903.973 616.505 907.563 616.505 910.474 619.416 910.474 623.006Z" stroke="#0000FF" stroke-width="3.25055" stroke-linecap="round" stroke-linejoin="round" stroke-miterlimit="10" fill="#0000FF" transform="matrix(1 0 0 1.00024 93.0002 2754.57)"/><path d="M910.474 623.006C910.474 626.597 907.563 629.508 903.973 629.508 900.382 629.508 897.472 626.597 897.472 623.006 897.472 619.416 900.382 616.505 903.973 616.505 907.563 616.505 910.474 619.416 910.474 623.006Z" stroke="#0000FF" stroke-width="3.25055" stroke-linecap="round" stroke-linejoin="round" stroke-miterlimit="10" fill="#0000FF" transform="matrix(1 0 0 1.00024 93.0002 2754.57)"/><path d="M910.474 623.006C910.474 626.597 907.563 629.508 903.973 629.508 900.382 629.508 897.472 626.597 897.472 623.006 897.472 619.416 900.382 616.505 903.973 616.505 907.563 616.505 910.474 619.416 910.474 623.006Z" stroke="#0000FF" stroke-width="3.25055" stroke-linecap="round" stroke-linejoin="round" stroke-miterlimit="10" fill="#0000FF" transform="matrix(1 0 0 1.00024 93.0002 2754.57)"/><path d="M910.474 623.006C910.474 626.597 907.563 629.508 903.973 629.508 900.382 629.508 897.472 626.597 897.472 623.006 897.472 619.416 900.382 616.505 903.973 616.505 907.563 616.505 910.474 619.416 910.474 623.006Z" stroke="#0000FF" stroke-width="3.25055" stroke-linecap="round" stroke-linejoin="round" stroke-miterlimit="10" fill="#0000FF" transform="matrix(1 0 0 1.00024 93.0002 2754.57)"/><path d="M910.474 623.006C910.474 626.597 907.563 629.508 903.973 629.508 900.382 629.508 897.472 626.597 897.472 623.006 897.472 619.416 900.382 616.505 903.973 616.505 907.563 616.505 910.474 619.416 910.474 623.006Z" stroke="#0000FF" stroke-width="3.25055" stroke-linecap="round" stroke-linejoin="round" stroke-miterlimit="10" fill="#0000FF" transform="matrix(1 0 0 1.00024 93.0002 2754.57)"/><path d="M910.474 623.006C910.474 626.597 907.563 629.508 903.973 629.508 900.382 629.508 897.472 626.597 897.472 623.006 897.472 619.416 900.382 616.505 903.973 616.505 907.563 616.505 910.474 619.416 910.474 623.006Z" stroke="#0000FF" stroke-width="3.25055" stroke-linecap="round" stroke-linejoin="round" stroke-miterlimit="10" fill="#0000FF" transform="matrix(1 0 0 1.00024 93.0002 2754.57)"/></g><g><path d="M125.535 659.129 125.535 25.0887" stroke="#000000" stroke-width="4.89871" stroke-linejoin="round" stroke-miterlimit="10" fill="none" transform="matrix(1 0 0 1.00024 93.0002 2754.57)"/><text fill="#4D4D4D" font-family="Arial,Arial_MSFontService,sans-serif" font-weight="400" font-size="7" transform="matrix(4.57824 0 0 4.57934 177.652 3421)">0</text><text fill="#4D4D4D" font-family="Arial,Arial_MSFontService,sans-serif" font-weight="400" font-size="7" transform="matrix(4.57824 0 0 4.57934 159.339 3212)">10</text><text fill="#4D4D4D" font-family="Arial,Arial_MSFontService,sans-serif" font-weight="400" font-size="7" transform="matrix(4.57824 0 0 4.57934 159.339 3003)">20</text><text fill="#4D4D4D" font-family="Arial,Arial_MSFontService,sans-serif" font-weight="400" font-size="7" transform="matrix(4.57824 0 0 4.57934 159.339 2794)">30</text><path d="M112.991 654.322 125.535 654.322" stroke="#333333" stroke-width="4.89871" stroke-linejoin="round" stroke-miterlimit="10" fill="none" transform="matrix(1 0 0 1.00024 93.0002 2754.57)"/><path d="M112.991 445.462 125.535 445.462" stroke="#333333" stroke-width="4.89871" stroke-linejoin="round" stroke-miterlimit="10" fill="none" transform="matrix(1 0 0 1.00024 93.0002 2754.57)"/><path d="M112.991 236.603 125.535 236.603" stroke="#333333" stroke-width="4.89871" stroke-linejoin="round" stroke-miterlimit="10" fill="none" transform="matrix(1 0 0 1.00024 93.0002 2754.57)"/><path d="M112.991 27.7441 125.535 27.7441" stroke="#333333" stroke-width="4.89871" stroke-linejoin="round" stroke-miterlimit="10" fill="none" transform="matrix(1 0 0 1.00024 93.0002 2754.57)"/><path d="M125.535 659.129 1142.91 659.129" stroke="#000000" stroke-width="4.89871" stroke-linejoin="round" stroke-miterlimit="10" fill="none" transform="matrix(1 0 0 1.00024 93.0002 2754.57)"/><path d="M248.873 671.673 248.873 659.129" stroke="#333333" stroke-width="4.89871" stroke-linejoin="round" stroke-miterlimit="10" fill="none" transform="matrix(1 0 0 1.00024 93.0002 2754.57)"/><path d="M441.525 671.673 441.525 659.129" stroke="#333333" stroke-width="4.89871" stroke-linejoin="round" stroke-miterlimit="10" fill="none" transform="matrix(1 0 0 1.00024 93.0002 2754.57)"/><path d="M634.223 671.673 634.223 659.129" stroke="#333333" stroke-width="4.89871" stroke-linejoin="round" stroke-miterlimit="10" fill="none" transform="matrix(1 0 0 1.00024 93.0002 2754.57)"/><path d="M826.921 671.673 826.921 659.129" stroke="#333333" stroke-width="4.89871" stroke-linejoin="round" stroke-miterlimit="10" fill="none" transform="matrix(1 0 0 1.00024 93.0002 2754.57)"/><path d="M1019.57 671.673 1019.57 659.129" stroke="#333333" stroke-width="4.89871" stroke-linejoin="round" stroke-miterlimit="10" fill="none" transform="matrix(1 0 0 1.00024 93.0002 2754.57)"/><text fill="#4D4D4D" font-family="Arial,Arial_MSFontService,sans-serif" font-weight="400" font-size="7" transform="matrix(4.57824 0 0 4.57934 318.982 3459)">-</text><text fill="#4D4D4D" font-family="Arial,Arial_MSFontService,sans-serif" font-weight="400" font-size="7" transform="matrix(4.57824 0 0 4.57934 328.138 3459)">20</text><text fill="#4D4D4D" font-family="Arial,Arial_MSFontService,sans-serif" font-weight="400" font-size="7" transform="matrix(4.57824 0 0 4.57934 511.634 3459)">-</text><text fill="#4D4D4D" font-family="Arial,Arial_MSFontService,sans-serif" font-weight="400" font-size="7" transform="matrix(4.57824 0 0 4.57934 520.791 3459)">10</text><text fill="#4D4D4D" font-family="Arial,Arial_MSFontService,sans-serif" font-weight="400" font-size="7" transform="matrix(4.57824 0 0 4.57934 718.067 3459)">0</text><text fill="#4D4D4D" font-family="Arial,Arial_MSFontService,sans-serif" font-weight="400" font-size="7" transform="matrix(4.57824 0 0 4.57934 901.608 3459)">10</text><text fill="#4D4D4D" font-family="Arial,Arial_MSFontService,sans-serif" font-weight="400" font-size="7" transform="matrix(4.57824 0 0 4.57934 1094.26 3459)">20</text><text font-family="Arial,Arial_MSFontService,sans-serif" font-weight="400" font-size="7" transform="matrix(4.57824 0 0 4.57934 653.971 3502)">Angles </text><text font-family="Arial,Arial_MSFontService,sans-serif" font-weight="400" font-size="7" transform="matrix(4.57824 0 0 4.57934 768.427 3502)">(</text><text font-family="Arial,Arial_MSFontService,sans-serif" font-weight="400" font-size="7" transform="matrix(4.57824 0 0 4.57934 777.584 3502)"></text><text font-family="Arial,Arial_MSFontService,sans-serif" font-weight="400" font-size="7" transform="matrix(4.57824 0 0 4.57934 791.319 3502)">)</text><text font-family="Arial,Arial_MSFontService,sans-serif" font-weight="400" font-size="7" transform="matrix(2.80336e-16 -4.57934 4.57824 2.80404e-16 141.026 3202)">probability </text><text font-family="Arial,Arial_MSFontService,sans-serif" font-weight="400" font-size="7" transform="matrix(2.80336e-16 -4.57934 4.57824 2.80404e-16 141.026 3037)">(%)</text></g></g></g></g><text fill="#ADD8E6" font-family="Arial,Arial_MSFontService,sans-serif" font-weight="400" font-size="32" transform="matrix(1 0 0 1 1014.36 3353)">neutral</text><text fill="#0000FF" font-family="Arial,Arial_MSFontService,sans-serif" font-weight="400" font-size="32" transform="matrix(1 0 0 1 1014.36 3392)">biased</text><text fill="#FA8072" font-family="Arial,Arial_MSFontService,sans-serif" font-weight="400" font-size="32" transform="matrix(1 0 0 1 323.718 3353)">neutral</text><text fill="#FF0000" font-family="Arial,Arial_MSFontService,sans-serif" font-weight="400" font-size="32" transform="matrix(1 0 0 1 323.718 3392)">biased</text><rect x="649" y="2754" width="139" height="36.9998" fill="#FFFFFF"/><text font-family="Arial,Arial_MSFontService,sans-serif" font-weight="400" font-size="32" transform="matrix(1 0 0 1 652.588 2785)">260 km/h</text></g></svg>