<svg width="1169" height="791" xmlns="http://www.w3.org/2000/svg" xmlns:xlink="http://www.w3.org/1999/xlink" xml:space="preserve" overflow="hidden"><g transform="translate(-93 -2743)"><g><g><g><path d="M0 0 1168.28 0 1168.28 778.855-2.23601e-05 778.855Z" fill="#FFFFFF" transform="matrix(1.00061 0 0 1 93.0002 2754.57)"/><g><path d="M0 0 1168.28 0 1168.28 778.855-2.23601e-05 778.855Z" stroke="#FFFFFF" stroke-width="4.8999" stroke-linecap="round" stroke-linejoin="round" stroke-miterlimit="10" fill="#FFFFFF" transform="matrix(1.00061 0 0 1 93.0002 2754.57)"/></g><g><path d="M501.575 628.24 508.307 625.08 515.039 621.875 521.77 618.578 528.502 615.235 535.234 611.8 541.919 608.182 548.651 604.427 555.383 600.443 562.114 596.276 568.846 591.88 575.578 587.163 582.309 582.172 589.041 576.86 595.727 571.181 602.458 565.137 609.19 558.68 615.922 551.857 622.653 544.575 629.385 536.836 636.117 528.685 642.848 520.03 649.58 510.871 656.266 501.209 662.997 490.997 669.729 480.281 676.461 468.971 683.192 457.11 689.924 444.7 696.655 431.74 703.387 418.323 710.073 404.493 716.805 390.252 723.536 375.689 730.268 360.806 736.999 345.649 743.731 330.308 750.463 314.738 757.194 299.077 763.88 283.278 770.612 267.479 777.343 251.635 784.075 235.882 790.807 220.312 797.538 204.971 804.27 189.951 811.002 175.251 817.687 161.055 824.419 147.409 831.151 134.312 837.882 121.948 844.614 110.316 851.346 99.5091 858.077 89.6177 864.809 80.7338 871.495 72.9489 878.226 66.3089 884.958 61.0426 891.69 57.1044 898.421 54.7231 905.153 53.8989 911.885 54.8147 918.616 57.5165 925.302 62.1417 932.034 68.7817 938.765 77.5283 945.497 88.4729 952.229 101.707 958.96 117.002 965.692 134.221 972.423 153.179 979.109 173.74 985.841 195.675 992.573 218.801 999.304 243.026 1006.04 268.075 1012.77 293.856 1019.5 320.142 1026.23 346.794 1032.96 373.583 1032.96 373.858 1026.23 347.023 1019.5 320.371 1012.77 294.085 1006.04 268.304 999.304 243.209 992.573 219.03 985.841 195.904 979.109 173.969 972.423 153.408 965.692 134.45 958.96 117.231 952.229 101.936 945.497 88.7477 938.765 77.7572 932.034 69.0107 925.302 62.3706 918.616 57.7455 911.885 55.0437 905.153 54.1278 898.421 54.9521 891.69 57.3334 884.958 61.2716 878.226 66.5836 871.495 73.1779 864.809 80.9628 858.077 89.8925 851.346 99.7839 844.614 110.545 837.882 122.177 831.151 134.541 824.419 147.638 817.687 161.284 811.002 175.48 804.27 190.18 797.538 205.2 790.807 220.541 784.075 236.157 777.343 251.91 770.612 267.708 763.88 283.553 757.194 299.306 750.463 315.013 743.731 330.537 736.999 345.878 730.268 361.035 723.536 375.918 716.805 390.481 710.073 404.722 703.387 418.552 696.655 431.969 689.924 444.929 683.192 457.339 676.461 469.245 669.729 480.51 662.997 491.272 656.266 501.438 649.58 511.1 642.848 520.213 636.117 528.868 629.385 537.065 622.653 544.804 615.922 552.086 609.19 558.909 602.458 565.366 595.727 571.41 589.041 577.089 582.309 582.447 575.578 587.438 568.846 592.109 562.114 596.505 555.383 600.672 548.651 604.656 541.919 608.411 535.234 611.983 528.502 615.464 521.77 618.807 515.039 622.058 508.307 625.309 501.575 628.515Z" fill="#999999" fill-opacity="0.4" transform="matrix(1.00061 0 0 1 93.0002 2754.57)"/><path d="M501.575 628.377 508.307 625.172 515.039 621.966 521.77 618.715 528.502 615.326 535.234 611.892 541.919 608.274 548.651 604.519 555.383 600.581 562.114 596.414 568.846 591.972 575.578 587.301 582.309 582.309 589.041 576.997 595.727 571.319 602.458 565.228 609.19 558.817 615.922 551.948 622.653 544.667 629.385 536.974 636.117 528.777 642.848 520.122 649.58 510.963 656.266 501.301 662.997 491.135 669.729 480.373 676.461 469.108 683.192 457.247 689.924 444.792 696.655 431.878 703.387 418.46 710.073 404.631 716.805 390.389 723.536 375.781 730.268 360.944 736.999 345.786 743.731 330.4 750.463 314.876 757.194 299.168 763.88 283.416 770.612 267.571 777.343 251.772 784.075 236.019 790.807 220.45 797.538 205.109 804.27 190.043 811.002 175.389 817.687 161.193 824.419 147.501 831.151 134.45 837.882 122.039 844.614 110.408 851.346 99.6465 858.077 89.7551 864.809 80.8712 871.495 73.0405 878.226 66.4463 884.958 61.1342 891.69 57.2418 898.421 54.8147 905.153 54.0362 911.885 54.9521 918.616 57.6539 925.302 62.2791 932.034 68.9191 938.765 77.6656 945.497 88.6103 952.229 101.799 958.96 117.14 965.692 134.358 972.423 153.316 979.109 173.832 985.841 195.767 992.573 218.938 999.304 243.117 1006.04 268.212 1012.77 293.948 1019.5 320.233 1026.23 346.885 1032.96 373.72" stroke="#0000FF" stroke-width="1.96912" stroke-linejoin="round" stroke-miterlimit="10" fill="none" transform="matrix(1.00061 0 0 1 93.0002 2754.57)"/><path d="M235.79 373.583 242.522 346.794 249.254 320.142 255.985 293.856 262.717 268.075 269.449 243.026 276.18 218.801 282.912 195.675 289.598 173.74 296.329 153.179 303.061 134.221 309.793 117.002 316.524 101.707 323.256 88.4729 329.987 77.5283 336.719 68.7817 343.405 62.1417 350.137 57.5165 356.868 54.8147 363.6 53.8989 370.331 54.7231 377.063 57.1044 383.795 61.0426 390.526 66.3089 397.258 72.9489 403.944 80.7338 410.675 89.6177 417.407 99.5091 424.139 110.316 430.87 121.948 437.602 134.312 444.334 147.409 451.065 161.055 457.751 175.251 464.483 189.951 471.214 204.971 477.946 220.312 484.678 235.882 491.409 251.635 498.141 267.479 504.873 283.278 511.558 299.077 518.29 314.738 525.022 330.308 531.753 345.649 538.485 360.806 545.217 375.689 551.948 390.252 558.68 404.493 565.366 418.323 572.097 431.74 578.829 444.7 585.561 457.11 592.292 468.971 599.024 480.281 605.755 490.997 612.487 501.209 619.173 510.871 625.905 520.03 632.636 528.685 639.368 536.836 646.099 544.575 652.831 551.857 659.563 558.68 666.294 565.137 672.98 571.181 679.712 576.86 686.443 582.172 693.175 587.163 699.907 591.88 706.638 596.276 713.37 600.443 720.102 604.427 726.788 608.182 733.519 611.8 740.251 615.235 746.982 618.578 753.714 621.875 760.446 625.08 767.177 628.24 767.177 628.515 760.446 625.309 753.714 622.058 746.982 618.807 740.251 615.464 733.519 611.983 726.788 608.411 720.102 604.656 713.37 600.672 706.638 596.505 699.907 592.109 693.175 587.438 686.443 582.447 679.712 577.089 672.98 571.41 666.294 565.366 659.563 558.909 652.831 552.086 646.099 544.804 639.368 537.065 632.636 528.868 625.905 520.213 619.173 511.1 612.487 501.438 605.755 491.272 599.024 480.51 592.292 469.245 585.561 457.339 578.829 444.929 572.097 431.969 565.366 418.552 558.68 404.722 551.948 390.481 545.217 375.918 538.485 361.035 531.753 345.878 525.022 330.537 518.29 315.013 511.558 299.306 504.873 283.553 498.141 267.708 491.409 251.91 484.678 236.157 477.946 220.541 471.214 205.2 464.483 190.18 457.751 175.48 451.065 161.284 444.334 147.638 437.602 134.541 430.87 122.177 424.139 110.545 417.407 99.7839 410.675 89.8925 403.944 80.9628 397.258 73.1779 390.526 66.5836 383.795 61.2716 377.063 57.3334 370.331 54.9521 363.6 54.1278 356.868 55.0437 350.137 57.7455 343.405 62.3706 336.719 69.0107 329.987 77.7572 323.256 88.7477 316.524 101.936 309.793 117.231 303.061 134.45 296.329 153.408 289.598 173.969 282.912 195.904 276.18 219.03 269.449 243.209 262.717 268.304 255.985 294.085 249.254 320.371 242.522 347.023 235.79 373.858Z" fill="#999999" fill-opacity="0.4" transform="matrix(1.00061 0 0 1 93.0002 2754.57)"/><path d="M235.79 373.72 242.522 346.885 249.254 320.233 255.985 293.948 262.717 268.212 269.449 243.117 276.18 218.938 282.912 195.767 289.598 173.832 296.329 153.316 303.061 134.358 309.793 117.14 316.524 101.799 323.256 88.6103 329.987 77.6656 336.719 68.9191 343.405 62.2791 350.137 57.6539 356.868 54.9521 363.6 54.0362 370.331 54.8147 377.063 57.2418 383.795 61.1342 390.526 66.4463 397.258 73.0405 403.944 80.8712 410.675 89.7551 417.407 99.6465 424.139 110.408 430.87 122.039 437.602 134.45 444.334 147.501 451.065 161.193 457.751 175.389 464.483 190.043 471.214 205.109 477.946 220.45 484.678 236.019 491.409 251.772 498.141 267.571 504.873 283.416 511.558 299.168 518.29 314.876 525.022 330.4 531.753 345.786 538.485 360.944 545.217 375.781 551.948 390.389 558.68 404.631 565.366 418.46 572.097 431.878 578.829 444.792 585.561 457.247 592.292 469.108 599.024 480.373 605.755 491.135 612.487 501.301 619.173 510.963 625.905 520.122 632.636 528.777 639.368 536.974 646.099 544.667 652.831 551.948 659.563 558.817 666.294 565.228 672.98 571.319 679.712 576.997 686.443 582.309 693.175 587.301 699.907 591.972 706.638 596.414 713.37 600.581 720.102 604.519 726.788 608.274 733.519 611.892 740.251 615.326 746.982 618.715 753.714 621.966 760.446 625.172 767.177 628.377" stroke="#FF0000" stroke-width="1.96912" stroke-linejoin="round" stroke-miterlimit="10" fill="none" transform="matrix(1.00061 0 0 1 93.0002 2754.57)"/><path d="M767.177 628.377 699.586 628.377" stroke="#000000" stroke-width="1.96912" stroke-linejoin="round" stroke-miterlimit="10" fill="none" transform="matrix(1.00061 0 0 1 93.0002 2754.57)"/><path d="M713.828 620.135 699.586 628.377 713.828 636.62" stroke="#000000" stroke-width="1.96912" stroke-linejoin="round" stroke-miterlimit="10" fill="none" transform="matrix(1.00061 0 0 1 93.0002 2754.57)"/><path d="M235.79 373.72 268.075 373.72" stroke="#000000" stroke-width="1.96912" stroke-linejoin="round" stroke-miterlimit="10" fill="none" transform="matrix(1.00061 0 0 1 93.0002 2754.57)"/><path d="M253.787 381.963 268.075 373.72 253.787 365.477" stroke="#000000" stroke-width="1.96912" stroke-linejoin="round" stroke-miterlimit="10" fill="none" transform="matrix(1.00061 0 0 1 93.0002 2754.57)"/><path d="M501.575 275.722 439.663 275.722" stroke="#000000" stroke-width="1.96912" stroke-linejoin="round" stroke-miterlimit="10" fill="none" transform="matrix(1.00061 0 0 1 93.0002 2754.57)"/><path d="M453.95 267.479 439.663 275.722 453.95 283.965" stroke="#000000" stroke-width="1.96912" stroke-linejoin="round" stroke-miterlimit="10" fill="none" transform="matrix(1.00061 0 0 1 93.0002 2754.57)"/><path d="M412.919 92.9149 364.928 92.9149" stroke="#000000" stroke-width="1.96912" stroke-linejoin="round" stroke-miterlimit="10" fill="none" transform="matrix(1.00061 0 0 1 93.0002 2754.57)"/><path d="M379.215 84.6721 364.928 92.9149 379.215 101.158" stroke="#000000" stroke-width="1.96912" stroke-linejoin="round" stroke-miterlimit="10" fill="none" transform="matrix(1.00061 0 0 1 93.0002 2754.57)"/><path d="M324.446 86.458 302.603 86.458" stroke="#000000" stroke-width="1.96912" stroke-linejoin="round" stroke-miterlimit="10" fill="none" transform="matrix(1.00061 0 0 1 93.0002 2754.57)"/><path d="M316.891 78.2152 302.603 86.458 316.891 94.7008" stroke="#000000" stroke-width="1.96912" stroke-linejoin="round" stroke-miterlimit="10" fill="none" transform="matrix(1.00061 0 0 1 93.0002 2754.57)"/><path d="M678.704 576.127 611.754 576.127" stroke="#000000" stroke-width="1.96912" stroke-linejoin="round" stroke-miterlimit="10" fill="none" transform="matrix(1.00061 0 0 1 93.0002 2754.57)"/><path d="M626.042 567.884 611.754 576.127 626.042 584.37" stroke="#000000" stroke-width="1.96912" stroke-linejoin="round" stroke-miterlimit="10" fill="none" transform="matrix(1.00061 0 0 1 93.0002 2754.57)"/><path d="M590.048 465.215 543.202 465.215" stroke="#000000" stroke-width="1.96912" stroke-linejoin="round" stroke-miterlimit="10" fill="none" transform="matrix(1.00061 0 0 1 93.0002 2754.57)"/><path d="M557.489 456.973 543.202 465.215 557.489 473.458" stroke="#000000" stroke-width="1.96912" stroke-linejoin="round" stroke-miterlimit="10" fill="none" transform="matrix(1.00061 0 0 1 93.0002 2754.57)"/><path d="M501.575 628.377 514.947 628.377" stroke="#000000" stroke-width="1.96912" stroke-linejoin="round" stroke-miterlimit="10" fill="none" transform="matrix(1.00061 0 0 1 93.0002 2754.57)"/><path d="M500.66 636.62 514.947 628.377 500.66 620.135" stroke="#000000" stroke-width="1.96912" stroke-linejoin="round" stroke-miterlimit="10" fill="none" transform="matrix(1.00061 0 0 1 93.0002 2754.57)"/><path d="M1032.96 373.72 997.152 373.72" stroke="#000000" stroke-width="1.96912" stroke-linejoin="round" stroke-miterlimit="10" fill="none" transform="matrix(1.00061 0 0 1 93.0002 2754.57)"/><path d="M1011.39 365.477 997.152 373.72 1011.39 381.963" stroke="#000000" stroke-width="1.96912" stroke-linejoin="round" stroke-miterlimit="10" fill="none" transform="matrix(1.00061 0 0 1 93.0002 2754.57)"/><path d="M767.177 275.722 794.745 275.722" stroke="#000000" stroke-width="1.96912" stroke-linejoin="round" stroke-miterlimit="10" fill="none" transform="matrix(1.00061 0 0 1 93.0002 2754.57)"/><path d="M780.457 283.965 794.745 275.722 780.457 267.479" stroke="#000000" stroke-width="1.96912" stroke-linejoin="round" stroke-miterlimit="10" fill="none" transform="matrix(1.00061 0 0 1 93.0002 2754.57)"/><path d="M855.833 92.9149 875.799 92.9149" stroke="#000000" stroke-width="1.96912" stroke-linejoin="round" stroke-miterlimit="10" fill="none" transform="matrix(1.00061 0 0 1 93.0002 2754.57)"/><path d="M861.512 101.158 875.799 92.9149 861.512 84.6721" stroke="#000000" stroke-width="1.96912" stroke-linejoin="round" stroke-miterlimit="10" fill="none" transform="matrix(1.00061 0 0 1 93.0002 2754.57)"/><path d="M944.306 86.458 940.689 86.458" stroke="#000000" stroke-width="1.96912" stroke-linejoin="round" stroke-miterlimit="10" fill="none" transform="matrix(1.00061 0 0 1 93.0002 2754.57)"/><path d="M954.976 78.2152 940.689 86.458 954.976 94.7008" stroke="#000000" stroke-width="1.96912" stroke-linejoin="round" stroke-miterlimit="10" fill="none" transform="matrix(1.00061 0 0 1 93.0002 2754.57)"/><path d="M590.048 576.127 599.39 576.127" stroke="#000000" stroke-width="1.96912" stroke-linejoin="round" stroke-miterlimit="10" fill="none" transform="matrix(1.00061 0 0 1 93.0002 2754.57)"/><path d="M585.148 584.37 599.39 576.127 585.148 567.884" stroke="#000000" stroke-width="1.96912" stroke-linejoin="round" stroke-miterlimit="10" fill="none" transform="matrix(1.00061 0 0 1 93.0002 2754.57)"/><path d="M678.704 465.215 701.235 465.215" stroke="#000000" stroke-width="1.96912" stroke-linejoin="round" stroke-miterlimit="10" fill="none" transform="matrix(1.00061 0 0 1 93.0002 2754.57)"/><path d="M686.947 473.458 701.235 465.215 686.947 456.973" stroke="#000000" stroke-width="1.96912" stroke-linejoin="round" stroke-miterlimit="10" fill="none" transform="matrix(1.00061 0 0 1 93.0002 2754.57)"/><path d="M259.42 373.72C259.42 377.311 256.508 380.223 252.917 380.223 249.326 380.223 246.414 377.311 246.414 373.72 246.414 370.129 249.326 367.217 252.917 367.217 256.508 367.217 259.42 370.129 259.42 373.72Z" stroke="#FA8072" stroke-width="3.25133" stroke-linecap="round" stroke-linejoin="round" stroke-miterlimit="10" fill="#FA8072" transform="matrix(1.00061 0 0 1 93.0002 2754.57)"/><path d="M338.459 86.458C338.459 90.0493 335.548 92.9607 331.957 92.9607 328.365 92.9607 325.454 90.0493 325.454 86.458 325.454 82.8667 328.365 79.9553 331.957 79.9553 335.548 79.9553 338.459 82.8667 338.459 86.458Z" stroke="#FA8072" stroke-width="3.25133" stroke-linecap="round" stroke-linejoin="round" stroke-miterlimit="10" fill="#FA8072" transform="matrix(1.00061 0 0 1 93.0002 2754.57)"/><path d="M434.9 92.9149C434.9 96.5062 431.989 99.4175 428.398 99.4175 424.806 99.4175 421.895 96.5062 421.895 92.9149 421.895 89.3235 424.806 86.4122 428.398 86.4122 431.989 86.4122 434.9 89.3235 434.9 92.9149Z" stroke="#FA8072" stroke-width="3.25133" stroke-linecap="round" stroke-linejoin="round" stroke-miterlimit="10" fill="#FA8072" transform="matrix(1.00061 0 0 1 93.0002 2754.57)"/><path d="M557.718 275.722C557.718 279.314 554.807 282.225 551.216 282.225 547.624 282.225 544.713 279.314 544.713 275.722 544.713 272.131 547.624 269.22 551.216 269.22 554.807 269.22 557.718 272.131 557.718 275.722Z" stroke="#FA8072" stroke-width="3.25133" stroke-linecap="round" stroke-linejoin="round" stroke-miterlimit="10" fill="#FA8072" transform="matrix(1.00061 0 0 1 93.0002 2754.57)"/><path d="M611.159 465.215C611.159 468.807 608.248 471.718 604.656 471.718 601.065 471.718 598.154 468.807 598.154 465.215 598.154 461.624 601.065 458.713 604.656 458.713 608.248 458.713 611.159 461.624 611.159 465.215Z" stroke="#FA8072" stroke-width="3.25133" stroke-linecap="round" stroke-linejoin="round" stroke-miterlimit="10" fill="#FA8072" transform="matrix(1.00061 0 0 1 93.0002 2754.57)"/><path d="M677.88 576.127C677.88 579.718 674.969 582.63 671.377 582.63 667.786 582.63 664.875 579.718 664.875 576.127 664.875 572.536 667.786 569.624 671.377 569.624 674.969 569.624 677.88 572.536 677.88 576.127Z" stroke="#FA8072" stroke-width="3.25133" stroke-linecap="round" stroke-linejoin="round" stroke-miterlimit="10" fill="#FA8072" transform="matrix(1.00061 0 0 1 93.0002 2754.57)"/><path d="M753.531 628.377C753.531 631.969 750.62 634.88 747.028 634.88 743.437 634.88 740.526 631.969 740.526 628.377 740.526 624.786 743.437 621.875 747.028 621.875 750.62 621.875 753.531 624.786 753.531 628.377Z" stroke="#FA8072" stroke-width="3.25133" stroke-linecap="round" stroke-linejoin="round" stroke-miterlimit="10" fill="#FA8072" transform="matrix(1.00061 0 0 1 93.0002 2754.57)"/><path d="M276.409 375.781 276.409 371.614" stroke="#FA8072" stroke-width="3.89244" stroke-linejoin="round" stroke-miterlimit="10" fill="none" transform="matrix(1.00061 0 0 1 93.0002 2754.57)"/><path d="M276.409 373.72 229.379 373.72" stroke="#FA8072" stroke-width="3.89244" stroke-linejoin="round" stroke-miterlimit="10" fill="none" transform="matrix(1.00061 0 0 1 93.0002 2754.57)"/><path d="M229.379 375.781 229.379 371.614" stroke="#FA8072" stroke-width="3.89244" stroke-linejoin="round" stroke-miterlimit="10" fill="none" transform="matrix(1.00061 0 0 1 93.0002 2754.57)"/><path d="M358.242 88.5645 358.242 84.3515" stroke="#FA8072" stroke-width="3.89244" stroke-linejoin="round" stroke-miterlimit="10" fill="none" transform="matrix(1.00061 0 0 1 93.0002 2754.57)"/><path d="M358.242 86.458 305.625 86.458" stroke="#FA8072" stroke-width="3.89244" stroke-linejoin="round" stroke-miterlimit="10" fill="none" transform="matrix(1.00061 0 0 1 93.0002 2754.57)"/><path d="M305.625 88.5645 305.625 84.3515" stroke="#FA8072" stroke-width="3.89244" stroke-linejoin="round" stroke-miterlimit="10" fill="none" transform="matrix(1.00061 0 0 1 93.0002 2754.57)"/><path d="M457.843 95.0214 457.843 90.8542" stroke="#FA8072" stroke-width="3.89244" stroke-linejoin="round" stroke-miterlimit="10" fill="none" transform="matrix(1.00061 0 0 1 93.0002 2754.57)"/><path d="M457.843 92.9149 398.952 92.9149" stroke="#FA8072" stroke-width="3.89244" stroke-linejoin="round" stroke-miterlimit="10" fill="none" transform="matrix(1.00061 0 0 1 93.0002 2754.57)"/><path d="M398.952 95.0214 398.952 90.8542" stroke="#FA8072" stroke-width="3.89244" stroke-linejoin="round" stroke-miterlimit="10" fill="none" transform="matrix(1.00061 0 0 1 93.0002 2754.57)"/><path d="M584.095 277.829 584.095 273.662" stroke="#FA8072" stroke-width="3.89244" stroke-linejoin="round" stroke-miterlimit="10" fill="none" transform="matrix(1.00061 0 0 1 93.0002 2754.57)"/><path d="M584.095 275.722 518.29 275.722" stroke="#FA8072" stroke-width="3.89244" stroke-linejoin="round" stroke-miterlimit="10" fill="none" transform="matrix(1.00061 0 0 1 93.0002 2754.57)"/><path d="M518.29 277.829 518.29 273.662" stroke="#FA8072" stroke-width="3.89244" stroke-linejoin="round" stroke-miterlimit="10" fill="none" transform="matrix(1.00061 0 0 1 93.0002 2754.57)"/><path d="M634.926 467.276 634.926 463.109" stroke="#FA8072" stroke-width="3.89244" stroke-linejoin="round" stroke-miterlimit="10" fill="none" transform="matrix(1.00061 0 0 1 93.0002 2754.57)"/><path d="M634.926 465.215 574.387 465.215" stroke="#FA8072" stroke-width="3.89244" stroke-linejoin="round" stroke-miterlimit="10" fill="none" transform="matrix(1.00061 0 0 1 93.0002 2754.57)"/><path d="M574.387 467.276 574.387 463.109" stroke="#FA8072" stroke-width="3.89244" stroke-linejoin="round" stroke-miterlimit="10" fill="none" transform="matrix(1.00061 0 0 1 93.0002 2754.57)"/><path d="M695.419 578.234 695.419 574.066" stroke="#FA8072" stroke-width="3.89244" stroke-linejoin="round" stroke-miterlimit="10" fill="none" transform="matrix(1.00061 0 0 1 93.0002 2754.57)"/><path d="M695.419 576.127 647.336 576.127" stroke="#FA8072" stroke-width="3.89244" stroke-linejoin="round" stroke-miterlimit="10" fill="none" transform="matrix(1.00061 0 0 1 93.0002 2754.57)"/><path d="M647.336 578.234 647.336 574.066" stroke="#FA8072" stroke-width="3.89244" stroke-linejoin="round" stroke-miterlimit="10" fill="none" transform="matrix(1.00061 0 0 1 93.0002 2754.57)"/><path d="M769.284 630.438 769.284 626.271" stroke="#FA8072" stroke-width="3.89244" stroke-linejoin="round" stroke-miterlimit="10" fill="none" transform="matrix(1.00061 0 0 1 93.0002 2754.57)"/><path d="M769.284 628.377 724.773 628.377" stroke="#FA8072" stroke-width="3.89244" stroke-linejoin="round" stroke-miterlimit="10" fill="none" transform="matrix(1.00061 0 0 1 93.0002 2754.57)"/><path d="M724.773 630.438 724.773 626.271" stroke="#FA8072" stroke-width="3.89244" stroke-linejoin="round" stroke-miterlimit="10" fill="none" transform="matrix(1.00061 0 0 1 93.0002 2754.57)"/><path d="M559.046 628.377C559.046 631.969 556.135 634.88 552.544 634.88 548.952 634.88 546.041 631.969 546.041 628.377 546.041 624.786 548.952 621.875 552.544 621.875 556.135 621.875 559.046 624.786 559.046 628.377Z" stroke="#ADD8E6" stroke-width="3.25133" stroke-linecap="round" stroke-linejoin="round" stroke-miterlimit="10" fill="#ADD8E6" transform="matrix(1.00061 0 0 1 93.0002 2754.57)"/><path d="M601.085 576.127C601.085 579.718 598.173 582.63 594.582 582.63 590.991 582.63 588.079 579.718 588.079 576.127 588.079 572.536 590.991 569.624 594.582 569.624 598.173 569.624 601.085 572.536 601.085 576.127Z" stroke="#ADD8E6" stroke-width="3.25133" stroke-linecap="round" stroke-linejoin="round" stroke-miterlimit="10" fill="#ADD8E6" transform="matrix(1.00061 0 0 1 93.0002 2754.57)"/><path d="M681.681 465.215C681.681 468.807 678.77 471.718 675.178 471.718 671.587 471.718 668.676 468.807 668.676 465.215 668.676 461.624 671.587 458.713 675.178 458.713 678.77 458.713 681.681 461.624 681.681 465.215Z" stroke="#ADD8E6" stroke-width="3.25133" stroke-linecap="round" stroke-linejoin="round" stroke-miterlimit="10" fill="#ADD8E6" transform="matrix(1.00061 0 0 1 93.0002 2754.57)"/><path d="M780.915 275.722C780.915 279.314 778.004 282.225 774.413 282.225 770.821 282.225 767.91 279.314 767.91 275.722 767.91 272.131 770.821 269.22 774.413 269.22 778.004 269.22 780.915 272.131 780.915 275.722Z" stroke="#ADD8E6" stroke-width="3.25133" stroke-linecap="round" stroke-linejoin="round" stroke-miterlimit="10" fill="#ADD8E6" transform="matrix(1.00061 0 0 1 93.0002 2754.57)"/><path d="M843.378 92.9149C843.378 96.5062 840.466 99.4175 836.875 99.4175 833.284 99.4175 830.372 96.5062 830.372 92.9149 830.372 89.3235 833.284 86.4122 836.875 86.4122 840.466 86.4122 843.378 89.3235 843.378 92.9149Z" stroke="#ADD8E6" stroke-width="3.25133" stroke-linecap="round" stroke-linejoin="round" stroke-miterlimit="10" fill="#ADD8E6" transform="matrix(1.00061 0 0 1 93.0002 2754.57)"/><path d="M953.099 86.458C953.099 90.0493 950.187 92.9607 946.596 92.9607 943.005 92.9607 940.093 90.0493 940.093 86.458 940.093 82.8667 943.005 79.9553 946.596 79.9553 950.187 79.9553 953.099 82.8667 953.099 86.458Z" stroke="#ADD8E6" stroke-width="3.25133" stroke-linecap="round" stroke-linejoin="round" stroke-miterlimit="10" fill="#ADD8E6" transform="matrix(1.00061 0 0 1 93.0002 2754.57)"/><path d="M1055.86 373.72C1055.86 377.311 1052.95 380.223 1049.36 380.223 1045.77 380.223 1042.85 377.311 1042.85 373.72 1042.85 370.129 1045.77 367.217 1049.36 367.217 1052.95 367.217 1055.86 370.129 1055.86 373.72Z" stroke="#ADD8E6" stroke-width="3.25133" stroke-linecap="round" stroke-linejoin="round" stroke-miterlimit="10" fill="#ADD8E6" transform="matrix(1.00061 0 0 1 93.0002 2754.57)"/><path d="M585.515 630.438 585.515 626.271" stroke="#ADD8E6" stroke-width="3.89244" stroke-linejoin="round" stroke-miterlimit="10" fill="none" transform="matrix(1.00061 0 0 1 93.0002 2754.57)"/><path d="M585.515 628.377 519.572 628.377" stroke="#ADD8E6" stroke-width="3.89244" stroke-linejoin="round" stroke-miterlimit="10" fill="none" transform="matrix(1.00061 0 0 1 93.0002 2754.57)"/><path d="M519.572 630.438 519.572 626.271" stroke="#ADD8E6" stroke-width="3.89244" stroke-linejoin="round" stroke-miterlimit="10" fill="none" transform="matrix(1.00061 0 0 1 93.0002 2754.57)"/><path d="M620.593 578.234 620.593 574.066" stroke="#ADD8E6" stroke-width="3.89244" stroke-linejoin="round" stroke-miterlimit="10" fill="none" transform="matrix(1.00061 0 0 1 93.0002 2754.57)"/><path d="M620.593 576.127 568.617 576.127" stroke="#ADD8E6" stroke-width="3.89244" stroke-linejoin="round" stroke-miterlimit="10" fill="none" transform="matrix(1.00061 0 0 1 93.0002 2754.57)"/><path d="M568.617 578.234 568.617 574.066" stroke="#ADD8E6" stroke-width="3.89244" stroke-linejoin="round" stroke-miterlimit="10" fill="none" transform="matrix(1.00061 0 0 1 93.0002 2754.57)"/><path d="M695.602 467.276 695.602 463.109" stroke="#ADD8E6" stroke-width="3.89244" stroke-linejoin="round" stroke-miterlimit="10" fill="none" transform="matrix(1.00061 0 0 1 93.0002 2754.57)"/><path d="M695.602 465.215 654.709 465.215" stroke="#ADD8E6" stroke-width="3.89244" stroke-linejoin="round" stroke-miterlimit="10" fill="none" transform="matrix(1.00061 0 0 1 93.0002 2754.57)"/><path d="M654.709 467.276 654.709 463.109" stroke="#ADD8E6" stroke-width="3.89244" stroke-linejoin="round" stroke-miterlimit="10" fill="none" transform="matrix(1.00061 0 0 1 93.0002 2754.57)"/><path d="M799.599 277.829 799.599 273.662" stroke="#ADD8E6" stroke-width="3.89244" stroke-linejoin="round" stroke-miterlimit="10" fill="none" transform="matrix(1.00061 0 0 1 93.0002 2754.57)"/><path d="M799.599 275.722 749.181 275.722" stroke="#ADD8E6" stroke-width="3.89244" stroke-linejoin="round" stroke-miterlimit="10" fill="none" transform="matrix(1.00061 0 0 1 93.0002 2754.57)"/><path d="M749.181 277.829 749.181 273.662" stroke="#ADD8E6" stroke-width="3.89244" stroke-linejoin="round" stroke-miterlimit="10" fill="none" transform="matrix(1.00061 0 0 1 93.0002 2754.57)"/><path d="M863.435 95.0214 863.435 90.8542" stroke="#ADD8E6" stroke-width="3.89244" stroke-linejoin="round" stroke-miterlimit="10" fill="none" transform="matrix(1.00061 0 0 1 93.0002 2754.57)"/><path d="M863.435 92.9149 810.269 92.9149" stroke="#ADD8E6" stroke-width="3.89244" stroke-linejoin="round" stroke-miterlimit="10" fill="none" transform="matrix(1.00061 0 0 1 93.0002 2754.57)"/><path d="M810.269 95.0214 810.269 90.8542" stroke="#ADD8E6" stroke-width="3.89244" stroke-linejoin="round" stroke-miterlimit="10" fill="none" transform="matrix(1.00061 0 0 1 93.0002 2754.57)"/><path d="M972.698 88.5645 972.698 84.3515" stroke="#ADD8E6" stroke-width="3.89244" stroke-linejoin="round" stroke-miterlimit="10" fill="none" transform="matrix(1.00061 0 0 1 93.0002 2754.57)"/><path d="M972.698 86.458 920.494 86.458" stroke="#ADD8E6" stroke-width="3.89244" stroke-linejoin="round" stroke-miterlimit="10" fill="none" transform="matrix(1.00061 0 0 1 93.0002 2754.57)"/><path d="M920.494 88.5645 920.494 84.3515" stroke="#ADD8E6" stroke-width="3.89244" stroke-linejoin="round" stroke-miterlimit="10" fill="none" transform="matrix(1.00061 0 0 1 93.0002 2754.57)"/><path d="M1079.31 375.781 1079.31 371.614" stroke="#ADD8E6" stroke-width="3.89244" stroke-linejoin="round" stroke-miterlimit="10" fill="none" transform="matrix(1.00061 0 0 1 93.0002 2754.57)"/><path d="M1079.31 373.72 1019.41 373.72" stroke="#ADD8E6" stroke-width="3.89244" stroke-linejoin="round" stroke-miterlimit="10" fill="none" transform="matrix(1.00061 0 0 1 93.0002 2754.57)"/><path d="M1019.41 375.781 1019.41 371.614" stroke="#ADD8E6" stroke-width="3.89244" stroke-linejoin="round" stroke-miterlimit="10" fill="none" transform="matrix(1.00061 0 0 1 93.0002 2754.57)"/><path d="M521.45 628.377C521.45 631.969 518.538 634.88 514.947 634.88 511.356 634.88 508.444 631.969 508.444 628.377 508.444 624.786 511.356 621.875 514.947 621.875 518.538 621.875 521.45 624.786 521.45 628.377Z" stroke="#0000FF" stroke-width="3.25133" stroke-linecap="round" stroke-linejoin="round" stroke-miterlimit="10" fill="#0000FF" transform="matrix(1.00061 0 0 1 93.0002 2754.57)"/><path d="M605.893 576.127C605.893 579.718 602.982 582.63 599.39 582.63 595.799 582.63 592.888 579.718 592.888 576.127 592.888 572.536 595.799 569.624 599.39 569.624 602.982 569.624 605.893 572.536 605.893 576.127Z" stroke="#0000FF" stroke-width="3.25133" stroke-linecap="round" stroke-linejoin="round" stroke-miterlimit="10" fill="#0000FF" transform="matrix(1.00061 0 0 1 93.0002 2754.57)"/><path d="M707.737 465.215C707.737 468.807 704.826 471.718 701.235 471.718 697.643 471.718 694.732 468.807 694.732 465.215 694.732 461.624 697.643 458.713 701.235 458.713 704.826 458.713 707.737 461.624 707.737 465.215Z" stroke="#0000FF" stroke-width="3.25133" stroke-linecap="round" stroke-linejoin="round" stroke-miterlimit="10" fill="#0000FF" transform="matrix(1.00061 0 0 1 93.0002 2754.57)"/><path d="M801.248 275.722C801.248 279.314 798.336 282.225 794.745 282.225 791.154 282.225 788.242 279.314 788.242 275.722 788.242 272.131 791.154 269.22 794.745 269.22 798.336 269.22 801.248 272.131 801.248 275.722Z" stroke="#0000FF" stroke-width="3.25133" stroke-linecap="round" stroke-linejoin="round" stroke-miterlimit="10" fill="#0000FF" transform="matrix(1.00061 0 0 1 93.0002 2754.57)"/><path d="M882.302 92.9149C882.302 96.5062 879.391 99.4175 875.799 99.4175 872.208 99.4175 869.297 96.5062 869.297 92.9149 869.297 89.3235 872.208 86.4122 875.799 86.4122 879.391 86.4122 882.302 89.3235 882.302 92.9149Z" stroke="#0000FF" stroke-width="3.25133" stroke-linecap="round" stroke-linejoin="round" stroke-miterlimit="10" fill="#0000FF" transform="matrix(1.00061 0 0 1 93.0002 2754.57)"/><path d="M947.191 86.458C947.191 90.0493 944.28 92.9607 940.689 92.9607 937.097 92.9607 934.186 90.0493 934.186 86.458 934.186 82.8667 937.097 79.9553 940.689 79.9553 944.28 79.9553 947.191 82.8667 947.191 86.458Z" stroke="#0000FF" stroke-width="3.25133" stroke-linecap="round" stroke-linejoin="round" stroke-miterlimit="10" fill="#0000FF" transform="matrix(1.00061 0 0 1 93.0002 2754.57)"/><path d="M1003.65 373.72C1003.65 377.311 1000.74 380.223 997.152 380.223 993.561 380.223 990.649 377.311 990.649 373.72 990.649 370.129 993.561 367.217 997.152 367.217 1000.74 367.217 1003.65 370.129 1003.65 373.72Z" stroke="#0000FF" stroke-width="3.25133" stroke-linecap="round" stroke-linejoin="round" stroke-miterlimit="10" fill="#0000FF" transform="matrix(1.00061 0 0 1 93.0002 2754.57)"/><path d="M561.29 630.438 561.29 626.271" stroke="#0000FF" stroke-width="3.89244" stroke-linejoin="round" stroke-miterlimit="10" fill="none" transform="matrix(1.00061 0 0 1 93.0002 2754.57)"/><path d="M561.29 628.377 468.65 628.377" stroke="#0000FF" stroke-width="3.89244" stroke-linejoin="round" stroke-miterlimit="10" fill="none" transform="matrix(1.00061 0 0 1 93.0002 2754.57)"/><path d="M468.65 630.438 468.65 626.271" stroke="#0000FF" stroke-width="3.89244" stroke-linejoin="round" stroke-miterlimit="10" fill="none" transform="matrix(1.00061 0 0 1 93.0002 2754.57)"/><path d="M640.65 578.234 640.65 574.066" stroke="#0000FF" stroke-width="3.89244" stroke-linejoin="round" stroke-miterlimit="10" fill="none" transform="matrix(1.00061 0 0 1 93.0002 2754.57)"/><path d="M640.65 576.127 558.176 576.127" stroke="#0000FF" stroke-width="3.89244" stroke-linejoin="round" stroke-miterlimit="10" fill="none" transform="matrix(1.00061 0 0 1 93.0002 2754.57)"/><path d="M558.176 578.234 558.176 574.066" stroke="#0000FF" stroke-width="3.89244" stroke-linejoin="round" stroke-miterlimit="10" fill="none" transform="matrix(1.00061 0 0 1 93.0002 2754.57)"/><path d="M737.457 467.276 737.457 463.109" stroke="#0000FF" stroke-width="3.89244" stroke-linejoin="round" stroke-miterlimit="10" fill="none" transform="matrix(1.00061 0 0 1 93.0002 2754.57)"/><path d="M737.457 465.215 665.012 465.215" stroke="#0000FF" stroke-width="3.89244" stroke-linejoin="round" stroke-miterlimit="10" fill="none" transform="matrix(1.00061 0 0 1 93.0002 2754.57)"/><path d="M665.012 467.276 665.012 463.109" stroke="#0000FF" stroke-width="3.89244" stroke-linejoin="round" stroke-miterlimit="10" fill="none" transform="matrix(1.00061 0 0 1 93.0002 2754.57)"/><path d="M832.296 277.829 832.296 273.662" stroke="#0000FF" stroke-width="3.89244" stroke-linejoin="round" stroke-miterlimit="10" fill="none" transform="matrix(1.00061 0 0 1 93.0002 2754.57)"/><path d="M832.296 275.722 757.148 275.722" stroke="#0000FF" stroke-width="3.89244" stroke-linejoin="round" stroke-miterlimit="10" fill="none" transform="matrix(1.00061 0 0 1 93.0002 2754.57)"/><path d="M757.148 277.829 757.148 273.662" stroke="#0000FF" stroke-width="3.89244" stroke-linejoin="round" stroke-miterlimit="10" fill="none" transform="matrix(1.00061 0 0 1 93.0002 2754.57)"/><path d="M916.098 95.0214 916.098 90.8542" stroke="#0000FF" stroke-width="3.89244" stroke-linejoin="round" stroke-miterlimit="10" fill="none" transform="matrix(1.00061 0 0 1 93.0002 2754.57)"/><path d="M916.098 92.9149 835.501 92.9149" stroke="#0000FF" stroke-width="3.89244" stroke-linejoin="round" stroke-miterlimit="10" fill="none" transform="matrix(1.00061 0 0 1 93.0002 2754.57)"/><path d="M835.501 95.0214 835.501 90.8542" stroke="#0000FF" stroke-width="3.89244" stroke-linejoin="round" stroke-miterlimit="10" fill="none" transform="matrix(1.00061 0 0 1 93.0002 2754.57)"/><path d="M980.895 88.5645 980.895 84.3515" stroke="#0000FF" stroke-width="3.89244" stroke-linejoin="round" stroke-miterlimit="10" fill="none" transform="matrix(1.00061 0 0 1 93.0002 2754.57)"/><path d="M980.895 86.458 900.482 86.458" stroke="#0000FF" stroke-width="3.89244" stroke-linejoin="round" stroke-miterlimit="10" fill="none" transform="matrix(1.00061 0 0 1 93.0002 2754.57)"/><path d="M900.482 88.5645 900.482 84.3515" stroke="#0000FF" stroke-width="3.89244" stroke-linejoin="round" stroke-miterlimit="10" fill="none" transform="matrix(1.00061 0 0 1 93.0002 2754.57)"/><path d="M1040.29 375.781 1040.29 371.614" stroke="#0000FF" stroke-width="3.89244" stroke-linejoin="round" stroke-miterlimit="10" fill="none" transform="matrix(1.00061 0 0 1 93.0002 2754.57)"/><path d="M1040.29 373.72 953.969 373.72" stroke="#0000FF" stroke-width="3.89244" stroke-linejoin="round" stroke-miterlimit="10" fill="none" transform="matrix(1.00061 0 0 1 93.0002 2754.57)"/><path d="M953.969 375.781 953.969 371.614" stroke="#0000FF" stroke-width="3.89244" stroke-linejoin="round" stroke-miterlimit="10" fill="none" transform="matrix(1.00061 0 0 1 93.0002 2754.57)"/><path d="M274.577 373.72C274.577 377.311 271.666 380.223 268.075 380.223 264.483 380.223 261.572 377.311 261.572 373.72 261.572 370.129 264.483 367.217 268.075 367.217 271.666 367.217 274.577 370.129 274.577 373.72Z" stroke="#FF0000" stroke-width="3.25133" stroke-linecap="round" stroke-linejoin="round" stroke-miterlimit="10" fill="#FF0000" transform="matrix(1.00061 0 0 1 93.0002 2754.57)"/><path d="M309.106 86.458C309.106 90.0493 306.194 92.9607 302.603 92.9607 299.012 92.9607 296.1 90.0493 296.1 86.458 296.1 82.8667 299.012 79.9553 302.603 79.9553 306.194 79.9553 309.106 82.8667 309.106 86.458Z" stroke="#FF0000" stroke-width="3.25133" stroke-linecap="round" stroke-linejoin="round" stroke-miterlimit="10" fill="#FF0000" transform="matrix(1.00061 0 0 1 93.0002 2754.57)"/><path d="M371.431 92.9149C371.431 96.5062 368.519 99.4175 364.928 99.4175 361.337 99.4175 358.425 96.5062 358.425 92.9149 358.425 89.3235 361.337 86.4122 364.928 86.4122 368.519 86.4122 371.431 89.3235 371.431 92.9149Z" stroke="#FF0000" stroke-width="3.25133" stroke-linecap="round" stroke-linejoin="round" stroke-miterlimit="10" fill="#FF0000" transform="matrix(1.00061 0 0 1 93.0002 2754.57)"/><path d="M446.165 275.722C446.165 279.314 443.254 282.225 439.663 282.225 436.071 282.225 433.16 279.314 433.16 275.722 433.16 272.131 436.071 269.22 439.663 269.22 443.254 269.22 446.165 272.131 446.165 275.722Z" stroke="#FF0000" stroke-width="3.25133" stroke-linecap="round" stroke-linejoin="round" stroke-miterlimit="10" fill="#FF0000" transform="matrix(1.00061 0 0 1 93.0002 2754.57)"/><path d="M549.704 465.215C549.704 468.807 546.793 471.718 543.202 471.718 539.61 471.718 536.699 468.807 536.699 465.215 536.699 461.624 539.61 458.713 543.202 458.713 546.793 458.713 549.704 461.624 549.704 465.215Z" stroke="#FF0000" stroke-width="3.25133" stroke-linecap="round" stroke-linejoin="round" stroke-miterlimit="10" fill="#FF0000" transform="matrix(1.00061 0 0 1 93.0002 2754.57)"/><path d="M618.257 576.127C618.257 579.718 615.346 582.63 611.754 582.63 608.163 582.63 605.252 579.718 605.252 576.127 605.252 572.536 608.163 569.624 611.754 569.624 615.346 569.624 618.257 572.536 618.257 576.127Z" stroke="#FF0000" stroke-width="3.25133" stroke-linecap="round" stroke-linejoin="round" stroke-miterlimit="10" fill="#FF0000" transform="matrix(1.00061 0 0 1 93.0002 2754.57)"/><path d="M706.089 628.377C706.089 631.969 703.178 634.88 699.586 634.88 695.995 634.88 693.084 631.969 693.084 628.377 693.084 624.786 695.995 621.875 699.586 621.875 703.178 621.875 706.089 624.786 706.089 628.377Z" stroke="#FF0000" stroke-width="3.25133" stroke-linecap="round" stroke-linejoin="round" stroke-miterlimit="10" fill="#FF0000" transform="matrix(1.00061 0 0 1 93.0002 2754.57)"/><path d="M317.074 375.781 317.074 371.614" stroke="#FF0000" stroke-width="3.89244" stroke-linejoin="round" stroke-miterlimit="10" fill="none" transform="matrix(1.00061 0 0 1 93.0002 2754.57)"/><path d="M317.074 373.72 219.076 373.72" stroke="#FF0000" stroke-width="3.89244" stroke-linejoin="round" stroke-miterlimit="10" fill="none" transform="matrix(1.00061 0 0 1 93.0002 2754.57)"/><path d="M219.076 375.781 219.076 371.614" stroke="#FF0000" stroke-width="3.89244" stroke-linejoin="round" stroke-miterlimit="10" fill="none" transform="matrix(1.00061 0 0 1 93.0002 2754.57)"/><path d="M348.122 88.5645 348.122 84.3515" stroke="#FF0000" stroke-width="3.89244" stroke-linejoin="round" stroke-miterlimit="10" fill="none" transform="matrix(1.00061 0 0 1 93.0002 2754.57)"/><path d="M348.122 86.458 257.084 86.458" stroke="#FF0000" stroke-width="3.89244" stroke-linejoin="round" stroke-miterlimit="10" fill="none" transform="matrix(1.00061 0 0 1 93.0002 2754.57)"/><path d="M257.084 88.5645 257.084 84.3515" stroke="#FF0000" stroke-width="3.89244" stroke-linejoin="round" stroke-miterlimit="10" fill="none" transform="matrix(1.00061 0 0 1 93.0002 2754.57)"/><path d="M410.859 95.0214 410.859 90.8542" stroke="#FF0000" stroke-width="3.89244" stroke-linejoin="round" stroke-miterlimit="10" fill="none" transform="matrix(1.00061 0 0 1 93.0002 2754.57)"/><path d="M410.859 92.9149 319.043 92.9149" stroke="#FF0000" stroke-width="3.89244" stroke-linejoin="round" stroke-miterlimit="10" fill="none" transform="matrix(1.00061 0 0 1 93.0002 2754.57)"/><path d="M319.043 95.0214 319.043 90.8542" stroke="#FF0000" stroke-width="3.89244" stroke-linejoin="round" stroke-miterlimit="10" fill="none" transform="matrix(1.00061 0 0 1 93.0002 2754.57)"/><path d="M482.663 277.829 482.663 273.662" stroke="#FF0000" stroke-width="3.89244" stroke-linejoin="round" stroke-miterlimit="10" fill="none" transform="matrix(1.00061 0 0 1 93.0002 2754.57)"/><path d="M482.663 275.722 396.663 275.722" stroke="#FF0000" stroke-width="3.89244" stroke-linejoin="round" stroke-miterlimit="10" fill="none" transform="matrix(1.00061 0 0 1 93.0002 2754.57)"/><path d="M396.663 277.829 396.663 273.662" stroke="#FF0000" stroke-width="3.89244" stroke-linejoin="round" stroke-miterlimit="10" fill="none" transform="matrix(1.00061 0 0 1 93.0002 2754.57)"/><path d="M584.874 467.276 584.874 463.109" stroke="#FF0000" stroke-width="3.89244" stroke-linejoin="round" stroke-miterlimit="10" fill="none" transform="matrix(1.00061 0 0 1 93.0002 2754.57)"/><path d="M584.874 465.215 501.53 465.215" stroke="#FF0000" stroke-width="3.89244" stroke-linejoin="round" stroke-miterlimit="10" fill="none" transform="matrix(1.00061 0 0 1 93.0002 2754.57)"/><path d="M501.53 467.276 501.53 463.109" stroke="#FF0000" stroke-width="3.89244" stroke-linejoin="round" stroke-miterlimit="10" fill="none" transform="matrix(1.00061 0 0 1 93.0002 2754.57)"/><path d="M643.443 578.234 643.443 574.066" stroke="#FF0000" stroke-width="3.89244" stroke-linejoin="round" stroke-miterlimit="10" fill="none" transform="matrix(1.00061 0 0 1 93.0002 2754.57)"/><path d="M643.443 576.127 580.065 576.127" stroke="#FF0000" stroke-width="3.89244" stroke-linejoin="round" stroke-miterlimit="10" fill="none" transform="matrix(1.00061 0 0 1 93.0002 2754.57)"/><path d="M580.065 578.234 580.065 574.066" stroke="#FF0000" stroke-width="3.89244" stroke-linejoin="round" stroke-miterlimit="10" fill="none" transform="matrix(1.00061 0 0 1 93.0002 2754.57)"/><path d="M748.86 630.438 748.86 626.271" stroke="#FF0000" stroke-width="3.89244" stroke-linejoin="round" stroke-miterlimit="10" fill="none" transform="matrix(1.00061 0 0 1 93.0002 2754.57)"/><path d="M748.86 628.377 650.312 628.377" stroke="#FF0000" stroke-width="3.89244" stroke-linejoin="round" stroke-miterlimit="10" fill="none" transform="matrix(1.00061 0 0 1 93.0002 2754.57)"/><path d="M650.312 630.438 650.312 626.271" stroke="#FF0000" stroke-width="3.89244" stroke-linejoin="round" stroke-miterlimit="10" fill="none" transform="matrix(1.00061 0 0 1 93.0002 2754.57)"/><path d="M216.878 591.788C216.878 595.38 213.966 598.291 210.375 598.291 206.784 598.291 203.872 595.38 203.872 591.788 203.872 588.197 206.784 585.286 210.375 585.286 213.966 585.286 216.878 588.197 216.878 591.788Z" stroke="#FA8072" stroke-width="3.25133" stroke-linecap="round" stroke-linejoin="round" stroke-miterlimit="10" fill="#FA8072" transform="matrix(1.00061 0 0 1 93.0002 2754.57)"/><path d="M216.878 591.788C216.878 595.38 213.966 598.291 210.375 598.291 206.784 598.291 203.872 595.38 203.872 591.788 203.872 588.197 206.784 585.286 210.375 585.286 213.966 585.286 216.878 588.197 216.878 591.788Z" stroke="#FA8072" stroke-width="3.25133" stroke-linecap="round" stroke-linejoin="round" stroke-miterlimit="10" fill="#FA8072" transform="matrix(1.00061 0 0 1 93.0002 2754.57)"/><path d="M216.878 591.788C216.878 595.38 213.966 598.291 210.375 598.291 206.784 598.291 203.872 595.38 203.872 591.788 203.872 588.197 206.784 585.286 210.375 585.286 213.966 585.286 216.878 588.197 216.878 591.788Z" stroke="#FA8072" stroke-width="3.25133" stroke-linecap="round" stroke-linejoin="round" stroke-miterlimit="10" fill="#FA8072" transform="matrix(1.00061 0 0 1 93.0002 2754.57)"/><path d="M216.878 591.788C216.878 595.38 213.966 598.291 210.375 598.291 206.784 598.291 203.872 595.38 203.872 591.788 203.872 588.197 206.784 585.286 210.375 585.286 213.966 585.286 216.878 588.197 216.878 591.788Z" stroke="#FA8072" stroke-width="3.25133" stroke-linecap="round" stroke-linejoin="round" stroke-miterlimit="10" fill="#FA8072" transform="matrix(1.00061 0 0 1 93.0002 2754.57)"/><path d="M216.878 591.788C216.878 595.38 213.966 598.291 210.375 598.291 206.784 598.291 203.872 595.38 203.872 591.788 203.872 588.197 206.784 585.286 210.375 585.286 213.966 585.286 216.878 588.197 216.878 591.788Z" stroke="#FA8072" stroke-width="3.25133" stroke-linecap="round" stroke-linejoin="round" stroke-miterlimit="10" fill="#FA8072" transform="matrix(1.00061 0 0 1 93.0002 2754.57)"/><path d="M216.878 591.788C216.878 595.38 213.966 598.291 210.375 598.291 206.784 598.291 203.872 595.38 203.872 591.788 203.872 588.197 206.784 585.286 210.375 585.286 213.966 585.286 216.878 588.197 216.878 591.788Z" stroke="#FA8072" stroke-width="3.25133" stroke-linecap="round" stroke-linejoin="round" stroke-miterlimit="10" fill="#FA8072" transform="matrix(1.00061 0 0 1 93.0002 2754.57)"/><path d="M216.878 591.788C216.878 595.38 213.966 598.291 210.375 598.291 206.784 598.291 203.872 595.38 203.872 591.788 203.872 588.197 206.784 585.286 210.375 585.286 213.966 585.286 216.878 588.197 216.878 591.788Z" stroke="#FA8072" stroke-width="3.25133" stroke-linecap="round" stroke-linejoin="round" stroke-miterlimit="10" fill="#FA8072" transform="matrix(1.00061 0 0 1 93.0002 2754.57)"/><path d="M216.878 591.788C216.878 595.38 213.966 598.291 210.375 598.291 206.784 598.291 203.872 595.38 203.872 591.788 203.872 588.197 206.784 585.286 210.375 585.286 213.966 585.286 216.878 588.197 216.878 591.788Z" stroke="#FA8072" stroke-width="3.25133" stroke-linecap="round" stroke-linejoin="round" stroke-miterlimit="10" fill="#FA8072" transform="matrix(1.00061 0 0 1 93.0002 2754.57)"/><path d="M216.878 591.788C216.878 595.38 213.966 598.291 210.375 598.291 206.784 598.291 203.872 595.38 203.872 591.788 203.872 588.197 206.784 585.286 210.375 585.286 213.966 585.286 216.878 588.197 216.878 591.788Z" stroke="#FA8072" stroke-width="3.25133" stroke-linecap="round" stroke-linejoin="round" stroke-miterlimit="10" fill="#FA8072" transform="matrix(1.00061 0 0 1 93.0002 2754.57)"/><path d="M216.878 591.788C216.878 595.38 213.966 598.291 210.375 598.291 206.784 598.291 203.872 595.38 203.872 591.788 203.872 588.197 206.784 585.286 210.375 585.286 213.966 585.286 216.878 588.197 216.878 591.788Z" stroke="#FA8072" stroke-width="3.25133" stroke-linecap="round" stroke-linejoin="round" stroke-miterlimit="10" fill="#FA8072" transform="matrix(1.00061 0 0 1 93.0002 2754.57)"/><path d="M216.878 623.157C216.878 626.748 213.966 629.66 210.375 629.66 206.784 629.66 203.872 626.748 203.872 623.157 203.872 619.566 206.784 616.654 210.375 616.654 213.966 616.654 216.878 619.566 216.878 623.157Z" stroke="#FF0000" stroke-width="3.25133" stroke-linecap="round" stroke-linejoin="round" stroke-miterlimit="10" fill="#FF0000" transform="matrix(1.00061 0 0 1 93.0002 2754.57)"/><path d="M216.878 623.157C216.878 626.748 213.966 629.66 210.375 629.66 206.784 629.66 203.872 626.748 203.872 623.157 203.872 619.566 206.784 616.654 210.375 616.654 213.966 616.654 216.878 619.566 216.878 623.157Z" stroke="#FF0000" stroke-width="3.25133" stroke-linecap="round" stroke-linejoin="round" stroke-miterlimit="10" fill="#FF0000" transform="matrix(1.00061 0 0 1 93.0002 2754.57)"/><path d="M216.878 623.157C216.878 626.748 213.966 629.66 210.375 629.66 206.784 629.66 203.872 626.748 203.872 623.157 203.872 619.566 206.784 616.654 210.375 616.654 213.966 616.654 216.878 619.566 216.878 623.157Z" stroke="#FF0000" stroke-width="3.25133" stroke-linecap="round" stroke-linejoin="round" stroke-miterlimit="10" fill="#FF0000" transform="matrix(1.00061 0 0 1 93.0002 2754.57)"/><path d="M216.878 623.157C216.878 626.748 213.966 629.66 210.375 629.66 206.784 629.66 203.872 626.748 203.872 623.157 203.872 619.566 206.784 616.654 210.375 616.654 213.966 616.654 216.878 619.566 216.878 623.157Z" stroke="#FF0000" stroke-width="3.25133" stroke-linecap="round" stroke-linejoin="round" stroke-miterlimit="10" fill="#FF0000" transform="matrix(1.00061 0 0 1 93.0002 2754.57)"/><path d="M216.878 623.157C216.878 626.748 213.966 629.66 210.375 629.66 206.784 629.66 203.872 626.748 203.872 623.157 203.872 619.566 206.784 616.654 210.375 616.654 213.966 616.654 216.878 619.566 216.878 623.157Z" stroke="#FF0000" stroke-width="3.25133" stroke-linecap="round" stroke-linejoin="round" stroke-miterlimit="10" fill="#FF0000" transform="matrix(1.00061 0 0 1 93.0002 2754.57)"/><path d="M216.878 623.157C216.878 626.748 213.966 629.66 210.375 629.66 206.784 629.66 203.872 626.748 203.872 623.157 203.872 619.566 206.784 616.654 210.375 616.654 213.966 616.654 216.878 619.566 216.878 623.157Z" stroke="#FF0000" stroke-width="3.25133" stroke-linecap="round" stroke-linejoin="round" stroke-miterlimit="10" fill="#FF0000" transform="matrix(1.00061 0 0 1 93.0002 2754.57)"/><path d="M216.878 623.157C216.878 626.748 213.966 629.66 210.375 629.66 206.784 629.66 203.872 626.748 203.872 623.157 203.872 619.566 206.784 616.654 210.375 616.654 213.966 616.654 216.878 619.566 216.878 623.157Z" stroke="#FF0000" stroke-width="3.25133" stroke-linecap="round" stroke-linejoin="round" stroke-miterlimit="10" fill="#FF0000" transform="matrix(1.00061 0 0 1 93.0002 2754.57)"/><path d="M216.878 623.157C216.878 626.748 213.966 629.66 210.375 629.66 206.784 629.66 203.872 626.748 203.872 623.157 203.872 619.566 206.784 616.654 210.375 616.654 213.966 616.654 216.878 619.566 216.878 623.157Z" stroke="#FF0000" stroke-width="3.25133" stroke-linecap="round" stroke-linejoin="round" stroke-miterlimit="10" fill="#FF0000" transform="matrix(1.00061 0 0 1 93.0002 2754.57)"/><path d="M216.878 623.157C216.878 626.748 213.966 629.66 210.375 629.66 206.784 629.66 203.872 626.748 203.872 623.157 203.872 619.566 206.784 616.654 210.375 616.654 213.966 616.654 216.878 619.566 216.878 623.157Z" stroke="#FF0000" stroke-width="3.25133" stroke-linecap="round" stroke-linejoin="round" stroke-miterlimit="10" fill="#FF0000" transform="matrix(1.00061 0 0 1 93.0002 2754.57)"/><path d="M216.878 623.157C216.878 626.748 213.966 629.66 210.375 629.66 206.784 629.66 203.872 626.748 203.872 623.157 203.872 619.566 206.784 616.654 210.375 616.654 213.966 616.654 216.878 619.566 216.878 623.157Z" stroke="#FF0000" stroke-width="3.25133" stroke-linecap="round" stroke-linejoin="round" stroke-miterlimit="10" fill="#FF0000" transform="matrix(1.00061 0 0 1 93.0002 2754.57)"/><path d="M910.694 591.788C910.694 595.38 907.783 598.291 904.191 598.291 900.6 598.291 897.689 595.38 897.689 591.788 897.689 588.197 900.6 585.286 904.191 585.286 907.783 585.286 910.694 588.197 910.694 591.788Z" stroke="#ADD8E6" stroke-width="3.25133" stroke-linecap="round" stroke-linejoin="round" stroke-miterlimit="10" fill="#ADD8E6" transform="matrix(1.00061 0 0 1 93.0002 2754.57)"/><path d="M910.694 591.788C910.694 595.38 907.783 598.291 904.191 598.291 900.6 598.291 897.689 595.38 897.689 591.788 897.689 588.197 900.6 585.286 904.191 585.286 907.783 585.286 910.694 588.197 910.694 591.788Z" stroke="#ADD8E6" stroke-width="3.25133" stroke-linecap="round" stroke-linejoin="round" stroke-miterlimit="10" fill="#ADD8E6" transform="matrix(1.00061 0 0 1 93.0002 2754.57)"/><path d="M910.694 591.788C910.694 595.38 907.783 598.291 904.191 598.291 900.6 598.291 897.689 595.38 897.689 591.788 897.689 588.197 900.6 585.286 904.191 585.286 907.783 585.286 910.694 588.197 910.694 591.788Z" stroke="#ADD8E6" stroke-width="3.25133" stroke-linecap="round" stroke-linejoin="round" stroke-miterlimit="10" fill="#ADD8E6" transform="matrix(1.00061 0 0 1 93.0002 2754.57)"/><path d="M910.694 591.788C910.694 595.38 907.783 598.291 904.191 598.291 900.6 598.291 897.689 595.38 897.689 591.788 897.689 588.197 900.6 585.286 904.191 585.286 907.783 585.286 910.694 588.197 910.694 591.788Z" stroke="#ADD8E6" stroke-width="3.25133" stroke-linecap="round" stroke-linejoin="round" stroke-miterlimit="10" fill="#ADD8E6" transform="matrix(1.00061 0 0 1 93.0002 2754.57)"/><path d="M910.694 591.788C910.694 595.38 907.783 598.291 904.191 598.291 900.6 598.291 897.689 595.38 897.689 591.788 897.689 588.197 900.6 585.286 904.191 585.286 907.783 585.286 910.694 588.197 910.694 591.788Z" stroke="#ADD8E6" stroke-width="3.25133" stroke-linecap="round" stroke-linejoin="round" stroke-miterlimit="10" fill="#ADD8E6" transform="matrix(1.00061 0 0 1 93.0002 2754.57)"/><path d="M910.694 591.788C910.694 595.38 907.783 598.291 904.191 598.291 900.6 598.291 897.689 595.38 897.689 591.788 897.689 588.197 900.6 585.286 904.191 585.286 907.783 585.286 910.694 588.197 910.694 591.788Z" stroke="#ADD8E6" stroke-width="3.25133" stroke-linecap="round" stroke-linejoin="round" stroke-miterlimit="10" fill="#ADD8E6" transform="matrix(1.00061 0 0 1 93.0002 2754.57)"/><path d="M910.694 591.788C910.694 595.38 907.783 598.291 904.191 598.291 900.6 598.291 897.689 595.38 897.689 591.788 897.689 588.197 900.6 585.286 904.191 585.286 907.783 585.286 910.694 588.197 910.694 591.788Z" stroke="#ADD8E6" stroke-width="3.25133" stroke-linecap="round" stroke-linejoin="round" stroke-miterlimit="10" fill="#ADD8E6" transform="matrix(1.00061 0 0 1 93.0002 2754.57)"/><path d="M910.694 591.788C910.694 595.38 907.783 598.291 904.191 598.291 900.6 598.291 897.689 595.38 897.689 591.788 897.689 588.197 900.6 585.286 904.191 585.286 907.783 585.286 910.694 588.197 910.694 591.788Z" stroke="#ADD8E6" stroke-width="3.25133" stroke-linecap="round" stroke-linejoin="round" stroke-miterlimit="10" fill="#ADD8E6" transform="matrix(1.00061 0 0 1 93.0002 2754.57)"/><path d="M910.694 591.788C910.694 595.38 907.783 598.291 904.191 598.291 900.6 598.291 897.689 595.38 897.689 591.788 897.689 588.197 900.6 585.286 904.191 585.286 907.783 585.286 910.694 588.197 910.694 591.788Z" stroke="#ADD8E6" stroke-width="3.25133" stroke-linecap="round" stroke-linejoin="round" stroke-miterlimit="10" fill="#ADD8E6" transform="matrix(1.00061 0 0 1 93.0002 2754.57)"/><path d="M910.694 591.788C910.694 595.38 907.783 598.291 904.191 598.291 900.6 598.291 897.689 595.38 897.689 591.788 897.689 588.197 900.6 585.286 904.191 585.286 907.783 585.286 910.694 588.197 910.694 591.788Z" stroke="#ADD8E6" stroke-width="3.25133" stroke-linecap="round" stroke-linejoin="round" stroke-miterlimit="10" fill="#ADD8E6" transform="matrix(1.00061 0 0 1 93.0002 2754.57)"/><path d="M910.694 623.157C910.694 626.748 907.783 629.66 904.191 629.66 900.6 629.66 897.689 626.748 897.689 623.157 897.689 619.566 900.6 616.654 904.191 616.654 907.783 616.654 910.694 619.566 910.694 623.157Z" stroke="#0000FF" stroke-width="3.25133" stroke-linecap="round" stroke-linejoin="round" stroke-miterlimit="10" fill="#0000FF" transform="matrix(1.00061 0 0 1 93.0002 2754.57)"/><path d="M910.694 623.157C910.694 626.748 907.783 629.66 904.191 629.66 900.6 629.66 897.689 626.748 897.689 623.157 897.689 619.566 900.6 616.654 904.191 616.654 907.783 616.654 910.694 619.566 910.694 623.157Z" stroke="#0000FF" stroke-width="3.25133" stroke-linecap="round" stroke-linejoin="round" stroke-miterlimit="10" fill="#0000FF" transform="matrix(1.00061 0 0 1 93.0002 2754.57)"/><path d="M910.694 623.157C910.694 626.748 907.783 629.66 904.191 629.66 900.6 629.66 897.689 626.748 897.689 623.157 897.689 619.566 900.6 616.654 904.191 616.654 907.783 616.654 910.694 619.566 910.694 623.157Z" stroke="#0000FF" stroke-width="3.25133" stroke-linecap="round" stroke-linejoin="round" stroke-miterlimit="10" fill="#0000FF" transform="matrix(1.00061 0 0 1 93.0002 2754.57)"/><path d="M910.694 623.157C910.694 626.748 907.783 629.66 904.191 629.66 900.6 629.66 897.689 626.748 897.689 623.157 897.689 619.566 900.6 616.654 904.191 616.654 907.783 616.654 910.694 619.566 910.694 623.157Z" stroke="#0000FF" stroke-width="3.25133" stroke-linecap="round" stroke-linejoin="round" stroke-miterlimit="10" fill="#0000FF" transform="matrix(1.00061 0 0 1 93.0002 2754.57)"/><path d="M910.694 623.157C910.694 626.748 907.783 629.66 904.191 629.66 900.6 629.66 897.689 626.748 897.689 623.157 897.689 619.566 900.6 616.654 904.191 616.654 907.783 616.654 910.694 619.566 910.694 623.157Z" stroke="#0000FF" stroke-width="3.25133" stroke-linecap="round" stroke-linejoin="round" stroke-miterlimit="10" fill="#0000FF" transform="matrix(1.00061 0 0 1 93.0002 2754.57)"/><path d="M910.694 623.157C910.694 626.748 907.783 629.66 904.191 629.66 900.6 629.66 897.689 626.748 897.689 623.157 897.689 619.566 900.6 616.654 904.191 616.654 907.783 616.654 910.694 619.566 910.694 623.157Z" stroke="#0000FF" stroke-width="3.25133" stroke-linecap="round" stroke-linejoin="round" stroke-miterlimit="10" fill="#0000FF" transform="matrix(1.00061 0 0 1 93.0002 2754.57)"/><path d="M910.694 623.157C910.694 626.748 907.783 629.66 904.191 629.66 900.6 629.66 897.689 626.748 897.689 623.157 897.689 619.566 900.6 616.654 904.191 616.654 907.783 616.654 910.694 619.566 910.694 623.157Z" stroke="#0000FF" stroke-width="3.25133" stroke-linecap="round" stroke-linejoin="round" stroke-miterlimit="10" fill="#0000FF" transform="matrix(1.00061 0 0 1 93.0002 2754.57)"/><path d="M910.694 623.157C910.694 626.748 907.783 629.66 904.191 629.66 900.6 629.66 897.689 626.748 897.689 623.157 897.689 619.566 900.6 616.654 904.191 616.654 907.783 616.654 910.694 619.566 910.694 623.157Z" stroke="#0000FF" stroke-width="3.25133" stroke-linecap="round" stroke-linejoin="round" stroke-miterlimit="10" fill="#0000FF" transform="matrix(1.00061 0 0 1 93.0002 2754.57)"/><path d="M910.694 623.157C910.694 626.748 907.783 629.66 904.191 629.66 900.6 629.66 897.689 626.748 897.689 623.157 897.689 619.566 900.6 616.654 904.191 616.654 907.783 616.654 910.694 619.566 910.694 623.157Z" stroke="#0000FF" stroke-width="3.25133" stroke-linecap="round" stroke-linejoin="round" stroke-miterlimit="10" fill="#0000FF" transform="matrix(1.00061 0 0 1 93.0002 2754.57)"/><path d="M910.694 623.157C910.694 626.748 907.783 629.66 904.191 629.66 900.6 629.66 897.689 626.748 897.689 623.157 897.689 619.566 900.6 616.654 904.191 616.654 907.783 616.654 910.694 619.566 910.694 623.157Z" stroke="#0000FF" stroke-width="3.25133" stroke-linecap="round" stroke-linejoin="round" stroke-miterlimit="10" fill="#0000FF" transform="matrix(1.00061 0 0 1 93.0002 2754.57)"/><path d="M543.202 465.215 543.202 520.671" stroke="#FFA500" stroke-width="3.89244" stroke-linejoin="round" stroke-miterlimit="10" stroke-dasharray="5.22045 15.6156" fill="none" transform="matrix(1.00061 0 0 1 93.0002 2754.57)"/><path d="M543.202 465.215 543.202 520.671" stroke="#FFA500" stroke-width="3.89244" stroke-linejoin="round" stroke-miterlimit="10" stroke-dasharray="5.22045 15.6156" fill="none" transform="matrix(1.00061 0 0 1 93.0002 2754.57)"/><path d="M543.202 465.215 543.202 520.671" stroke="#FFA500" stroke-width="3.89244" stroke-linejoin="round" stroke-miterlimit="10" stroke-dasharray="5.22045 15.6156" fill="none" transform="matrix(1.00061 0 0 1 93.0002 2754.57)"/><path d="M543.202 465.215 543.202 520.671" stroke="#FFA500" stroke-width="3.89244" stroke-linejoin="round" stroke-miterlimit="10" stroke-dasharray="5.22045 15.6156" fill="none" transform="matrix(1.00061 0 0 1 93.0002 2754.57)"/><path d="M543.202 465.215 543.202 520.671" stroke="#FFA500" stroke-width="3.89244" stroke-linejoin="round" stroke-miterlimit="10" stroke-dasharray="5.22045 15.6156" fill="none" transform="matrix(1.00061 0 0 1 93.0002 2754.57)"/><path d="M543.202 465.215 543.202 520.671" stroke="#FFA500" stroke-width="3.89244" stroke-linejoin="round" stroke-miterlimit="10" stroke-dasharray="5.22045 15.6156" fill="none" transform="matrix(1.00061 0 0 1 93.0002 2754.57)"/><path d="M543.202 465.215 543.202 520.671" stroke="#FFA500" stroke-width="3.89244" stroke-linejoin="round" stroke-miterlimit="10" stroke-dasharray="5.22045 15.6156" fill="none" transform="matrix(1.00061 0 0 1 93.0002 2754.57)"/><path d="M543.202 465.215 543.202 520.671" stroke="#FFA500" stroke-width="3.89244" stroke-linejoin="round" stroke-miterlimit="10" stroke-dasharray="5.22045 15.6156" fill="none" transform="matrix(1.00061 0 0 1 93.0002 2754.57)"/><path d="M543.202 465.215 543.202 520.671" stroke="#FFA500" stroke-width="3.89244" stroke-linejoin="round" stroke-miterlimit="10" stroke-dasharray="5.22045 15.6156" fill="none" transform="matrix(1.00061 0 0 1 93.0002 2754.57)"/><path d="M543.202 465.215 543.202 520.671" stroke="#FFA500" stroke-width="3.89244" stroke-linejoin="round" stroke-miterlimit="10" stroke-dasharray="5.22045 15.6156" fill="none" transform="matrix(1.00061 0 0 1 93.0002 2754.57)"/><path d="M543.202 520.671 599.39 520.671" stroke="#FFA500" stroke-width="3.89244" stroke-linejoin="round" stroke-miterlimit="10" fill="none" transform="matrix(1.00061 0 0 1 93.0002 2754.57)"/><path d="M543.202 520.671 599.39 520.671" stroke="#FFA500" stroke-width="3.89244" stroke-linejoin="round" stroke-miterlimit="10" fill="none" transform="matrix(1.00061 0 0 1 93.0002 2754.57)"/><path d="M543.202 520.671 599.39 520.671" stroke="#FFA500" stroke-width="3.89244" stroke-linejoin="round" stroke-miterlimit="10" fill="none" transform="matrix(1.00061 0 0 1 93.0002 2754.57)"/><path d="M543.202 520.671 599.39 520.671" stroke="#FFA500" stroke-width="3.89244" stroke-linejoin="round" stroke-miterlimit="10" fill="none" transform="matrix(1.00061 0 0 1 93.0002 2754.57)"/><path d="M543.202 520.671 599.39 520.671" stroke="#FFA500" stroke-width="3.89244" stroke-linejoin="round" stroke-miterlimit="10" fill="none" transform="matrix(1.00061 0 0 1 93.0002 2754.57)"/><path d="M543.202 520.671 599.39 520.671" stroke="#FFA500" stroke-width="3.89244" stroke-linejoin="round" stroke-miterlimit="10" fill="none" transform="matrix(1.00061 0 0 1 93.0002 2754.57)"/><path d="M543.202 520.671 599.39 520.671" stroke="#FFA500" stroke-width="3.89244" stroke-linejoin="round" stroke-miterlimit="10" fill="none" transform="matrix(1.00061 0 0 1 93.0002 2754.57)"/><path d="M543.202 520.671 599.39 520.671" stroke="#FFA500" stroke-width="3.89244" stroke-linejoin="round" stroke-miterlimit="10" fill="none" transform="matrix(1.00061 0 0 1 93.0002 2754.57)"/><path d="M543.202 520.671 599.39 520.671" stroke="#FFA500" stroke-width="3.89244" stroke-linejoin="round" stroke-miterlimit="10" fill="none" transform="matrix(1.00061 0 0 1 93.0002 2754.57)"/><path d="M543.202 520.671 599.39 520.671" stroke="#FFA500" stroke-width="3.89244" stroke-linejoin="round" stroke-miterlimit="10" fill="none" transform="matrix(1.00061 0 0 1 93.0002 2754.57)"/><path d="M599.39 520.671 599.39 576.127" stroke="#FFA500" stroke-width="3.89244" stroke-linejoin="round" stroke-miterlimit="10" stroke-dasharray="5.22045 15.6156" fill="none" transform="matrix(1.00061 0 0 1 93.0002 2754.57)"/><path d="M599.39 520.671 599.39 576.127" stroke="#FFA500" stroke-width="3.89244" stroke-linejoin="round" stroke-miterlimit="10" stroke-dasharray="5.22045 15.6156" fill="none" transform="matrix(1.00061 0 0 1 93.0002 2754.57)"/><path d="M599.39 520.671 599.39 576.127" stroke="#FFA500" stroke-width="3.89244" stroke-linejoin="round" stroke-miterlimit="10" stroke-dasharray="5.22045 15.6156" fill="none" transform="matrix(1.00061 0 0 1 93.0002 2754.57)"/><path d="M599.39 520.671 599.39 576.127" stroke="#FFA500" stroke-width="3.89244" stroke-linejoin="round" stroke-miterlimit="10" stroke-dasharray="5.22045 15.6156" fill="none" transform="matrix(1.00061 0 0 1 93.0002 2754.57)"/><path d="M599.39 520.671 599.39 576.127" stroke="#FFA500" stroke-width="3.89244" stroke-linejoin="round" stroke-miterlimit="10" stroke-dasharray="5.22045 15.6156" fill="none" transform="matrix(1.00061 0 0 1 93.0002 2754.57)"/><path d="M599.39 520.671 599.39 576.127" stroke="#FFA500" stroke-width="3.89244" stroke-linejoin="round" stroke-miterlimit="10" stroke-dasharray="5.22045 15.6156" fill="none" transform="matrix(1.00061 0 0 1 93.0002 2754.57)"/><path d="M599.39 520.671 599.39 576.127" stroke="#FFA500" stroke-width="3.89244" stroke-linejoin="round" stroke-miterlimit="10" stroke-dasharray="5.22045 15.6156" fill="none" transform="matrix(1.00061 0 0 1 93.0002 2754.57)"/><path d="M599.39 520.671 599.39 576.127" stroke="#FFA500" stroke-width="3.89244" stroke-linejoin="round" stroke-miterlimit="10" stroke-dasharray="5.22045 15.6156" fill="none" transform="matrix(1.00061 0 0 1 93.0002 2754.57)"/><path d="M599.39 520.671 599.39 576.127" stroke="#FFA500" stroke-width="3.89244" stroke-linejoin="round" stroke-miterlimit="10" stroke-dasharray="5.22045 15.6156" fill="none" transform="matrix(1.00061 0 0 1 93.0002 2754.57)"/><path d="M599.39 520.671 599.39 576.127" stroke="#FFA500" stroke-width="3.89244" stroke-linejoin="round" stroke-miterlimit="10" stroke-dasharray="5.22045 15.6156" fill="none" transform="matrix(1.00061 0 0 1 93.0002 2754.57)"/><path d="M611.754 576.127 611.754 520.671" stroke="#FFA500" stroke-width="3.89244" stroke-linejoin="round" stroke-miterlimit="10" stroke-dasharray="5.22045 15.6156" fill="none" transform="matrix(1.00061 0 0 1 93.0002 2754.57)"/><path d="M611.754 576.127 611.754 520.671" stroke="#FFA500" stroke-width="3.89244" stroke-linejoin="round" stroke-miterlimit="10" stroke-dasharray="5.22045 15.6156" fill="none" transform="matrix(1.00061 0 0 1 93.0002 2754.57)"/><path d="M611.754 576.127 611.754 520.671" stroke="#FFA500" stroke-width="3.89244" stroke-linejoin="round" stroke-miterlimit="10" stroke-dasharray="5.22045 15.6156" fill="none" transform="matrix(1.00061 0 0 1 93.0002 2754.57)"/><path d="M611.754 576.127 611.754 520.671" stroke="#FFA500" stroke-width="3.89244" stroke-linejoin="round" stroke-miterlimit="10" stroke-dasharray="5.22045 15.6156" fill="none" transform="matrix(1.00061 0 0 1 93.0002 2754.57)"/><path d="M611.754 576.127 611.754 520.671" stroke="#FFA500" stroke-width="3.89244" stroke-linejoin="round" stroke-miterlimit="10" stroke-dasharray="5.22045 15.6156" fill="none" transform="matrix(1.00061 0 0 1 93.0002 2754.57)"/><path d="M611.754 576.127 611.754 520.671" stroke="#FFA500" stroke-width="3.89244" stroke-linejoin="round" stroke-miterlimit="10" stroke-dasharray="5.22045 15.6156" fill="none" transform="matrix(1.00061 0 0 1 93.0002 2754.57)"/><path d="M611.754 576.127 611.754 520.671" stroke="#FFA500" stroke-width="3.89244" stroke-linejoin="round" stroke-miterlimit="10" stroke-dasharray="5.22045 15.6156" fill="none" transform="matrix(1.00061 0 0 1 93.0002 2754.57)"/><path d="M611.754 576.127 611.754 520.671" stroke="#FFA500" stroke-width="3.89244" stroke-linejoin="round" stroke-miterlimit="10" stroke-dasharray="5.22045 15.6156" fill="none" transform="matrix(1.00061 0 0 1 93.0002 2754.57)"/><path d="M611.754 576.127 611.754 520.671" stroke="#FFA500" stroke-width="3.89244" stroke-linejoin="round" stroke-miterlimit="10" stroke-dasharray="5.22045 15.6156" fill="none" transform="matrix(1.00061 0 0 1 93.0002 2754.57)"/><path d="M611.754 576.127 611.754 520.671" stroke="#FFA500" stroke-width="3.89244" stroke-linejoin="round" stroke-miterlimit="10" stroke-dasharray="5.22045 15.6156" fill="none" transform="matrix(1.00061 0 0 1 93.0002 2754.57)"/><path d="M611.754 520.671 701.235 520.671" stroke="#FFA500" stroke-width="3.89244" stroke-linejoin="round" stroke-miterlimit="10" fill="none" transform="matrix(1.00061 0 0 1 93.0002 2754.57)"/><path d="M611.754 520.671 701.235 520.671" stroke="#FFA500" stroke-width="3.89244" stroke-linejoin="round" stroke-miterlimit="10" fill="none" transform="matrix(1.00061 0 0 1 93.0002 2754.57)"/><path d="M611.754 520.671 701.235 520.671" stroke="#FFA500" stroke-width="3.89244" stroke-linejoin="round" stroke-miterlimit="10" fill="none" transform="matrix(1.00061 0 0 1 93.0002 2754.57)"/><path d="M611.754 520.671 701.235 520.671" stroke="#FFA500" stroke-width="3.89244" stroke-linejoin="round" stroke-miterlimit="10" fill="none" transform="matrix(1.00061 0 0 1 93.0002 2754.57)"/><path d="M611.754 520.671 701.235 520.671" stroke="#FFA500" stroke-width="3.89244" stroke-linejoin="round" stroke-miterlimit="10" fill="none" transform="matrix(1.00061 0 0 1 93.0002 2754.57)"/><path d="M611.754 520.671 701.235 520.671" stroke="#FFA500" stroke-width="3.89244" stroke-linejoin="round" stroke-miterlimit="10" fill="none" transform="matrix(1.00061 0 0 1 93.0002 2754.57)"/><path d="M611.754 520.671 701.235 520.671" stroke="#FFA500" stroke-width="3.89244" stroke-linejoin="round" stroke-miterlimit="10" fill="none" transform="matrix(1.00061 0 0 1 93.0002 2754.57)"/><path d="M611.754 520.671 701.235 520.671" stroke="#FFA500" stroke-width="3.89244" stroke-linejoin="round" stroke-miterlimit="10" fill="none" transform="matrix(1.00061 0 0 1 93.0002 2754.57)"/><path d="M611.754 520.671 701.235 520.671" stroke="#FFA500" stroke-width="3.89244" stroke-linejoin="round" stroke-miterlimit="10" fill="none" transform="matrix(1.00061 0 0 1 93.0002 2754.57)"/><path d="M611.754 520.671 701.235 520.671" stroke="#FFA500" stroke-width="3.89244" stroke-linejoin="round" stroke-miterlimit="10" fill="none" transform="matrix(1.00061 0 0 1 93.0002 2754.57)"/><path d="M701.235 520.671 701.235 465.215" stroke="#FFA500" stroke-width="3.89244" stroke-linejoin="round" stroke-miterlimit="10" stroke-dasharray="5.22045 15.6156" fill="none" transform="matrix(1.00061 0 0 1 93.0002 2754.57)"/><path d="M701.235 520.671 701.235 465.215" stroke="#FFA500" stroke-width="3.89244" stroke-linejoin="round" stroke-miterlimit="10" stroke-dasharray="5.22045 15.6156" fill="none" transform="matrix(1.00061 0 0 1 93.0002 2754.57)"/><path d="M701.235 520.671 701.235 465.215" stroke="#FFA500" stroke-width="3.89244" stroke-linejoin="round" stroke-miterlimit="10" stroke-dasharray="5.22045 15.6156" fill="none" transform="matrix(1.00061 0 0 1 93.0002 2754.57)"/><path d="M701.235 520.671 701.235 465.215" stroke="#FFA500" stroke-width="3.89244" stroke-linejoin="round" stroke-miterlimit="10" stroke-dasharray="5.22045 15.6156" fill="none" transform="matrix(1.00061 0 0 1 93.0002 2754.57)"/><path d="M701.235 520.671 701.235 465.215" stroke="#FFA500" stroke-width="3.89244" stroke-linejoin="round" stroke-miterlimit="10" stroke-dasharray="5.22045 15.6156" fill="none" transform="matrix(1.00061 0 0 1 93.0002 2754.57)"/><path d="M701.235 520.671 701.235 465.215" stroke="#FFA500" stroke-width="3.89244" stroke-linejoin="round" stroke-miterlimit="10" stroke-dasharray="5.22045 15.6156" fill="none" transform="matrix(1.00061 0 0 1 93.0002 2754.57)"/><path d="M701.235 520.671 701.235 465.215" stroke="#FFA500" stroke-width="3.89244" stroke-linejoin="round" stroke-miterlimit="10" stroke-dasharray="5.22045 15.6156" fill="none" transform="matrix(1.00061 0 0 1 93.0002 2754.57)"/><path d="M701.235 520.671 701.235 465.215" stroke="#FFA500" stroke-width="3.89244" stroke-linejoin="round" stroke-miterlimit="10" stroke-dasharray="5.22045 15.6156" fill="none" transform="matrix(1.00061 0 0 1 93.0002 2754.57)"/><path d="M701.235 520.671 701.235 465.215" stroke="#FFA500" stroke-width="3.89244" stroke-linejoin="round" stroke-miterlimit="10" stroke-dasharray="5.22045 15.6156" fill="none" transform="matrix(1.00061 0 0 1 93.0002 2754.57)"/><path d="M701.235 520.671 701.235 465.215" stroke="#FFA500" stroke-width="3.89244" stroke-linejoin="round" stroke-miterlimit="10" stroke-dasharray="5.22045 15.6156" fill="none" transform="matrix(1.00061 0 0 1 93.0002 2754.57)"/><text fill="#FFA500" font-family="Arial,Arial_MSFontService,sans-serif" font-weight="400" font-size="8.54" transform="matrix(4.58216 0 0 4.57934 813.957 3289)"></text><text fill="#FFA500" font-family="Arial,Arial_MSFontService,sans-serif" font-weight="400" font-size="8.54" transform="matrix(4.58216 0 0 4.57934 840.095 3289)">right</text><text fill="#FFA500" font-family="Arial,Arial_MSFontService,sans-serif" font-weight="400" font-size="8.54" transform="matrix(4.58216 0 0 4.57934 916.219 3289)">-</text><text fill="#FFA500" font-family="Arial,Arial_MSFontService,sans-serif" font-weight="400" font-size="8.54" transform="matrix(4.58216 0 0 4.57934 929.25 3289)"></text><text fill="#FFA500" font-family="Arial,Arial_MSFontService,sans-serif" font-weight="400" font-size="8.54" transform="matrix(4.58216 0 0 4.57934 955.388 3289)">left</text></g><g><path d="M125.566 659.288 125.566 25.0948" stroke="#000000" stroke-width="4.8999" stroke-linejoin="round" stroke-miterlimit="10" fill="none" transform="matrix(1.00061 0 0 1 93.0002 2754.57)"/><text fill="#4D4D4D" font-family="Arial,Arial_MSFontService,sans-serif" font-weight="400" font-size="7" transform="matrix(4.58216 0 0 4.57934 178.214 3421)">0</text><text fill="#4D4D4D" font-family="Arial,Arial_MSFontService,sans-serif" font-weight="400" font-size="7" transform="matrix(4.58216 0 0 4.57934 160.376 3212)">10</text><text fill="#4D4D4D" font-family="Arial,Arial_MSFontService,sans-serif" font-weight="400" font-size="7" transform="matrix(4.58216 0 0 4.57934 160.376 3003)">20</text><text fill="#4D4D4D" font-family="Arial,Arial_MSFontService,sans-serif" font-weight="400" font-size="7" transform="matrix(4.58216 0 0 4.57934 160.376 2794)">30</text><path d="M113.018 654.48 125.566 654.48" stroke="#333333" stroke-width="4.8999" stroke-linejoin="round" stroke-miterlimit="10" fill="none" transform="matrix(1.00061 0 0 1 93.0002 2754.57)"/><path d="M113.018 445.57 125.566 445.57" stroke="#333333" stroke-width="4.8999" stroke-linejoin="round" stroke-miterlimit="10" fill="none" transform="matrix(1.00061 0 0 1 93.0002 2754.57)"/><path d="M113.018 236.66 125.566 236.66" stroke="#333333" stroke-width="4.8999" stroke-linejoin="round" stroke-miterlimit="10" fill="none" transform="matrix(1.00061 0 0 1 93.0002 2754.57)"/><path d="M113.018 27.7508 125.566 27.7508" stroke="#333333" stroke-width="4.8999" stroke-linejoin="round" stroke-miterlimit="10" fill="none" transform="matrix(1.00061 0 0 1 93.0002 2754.57)"/><path d="M125.566 659.288 1143.19 659.288" stroke="#000000" stroke-width="4.8999" stroke-linejoin="round" stroke-miterlimit="10" fill="none" transform="matrix(1.00061 0 0 1 93.0002 2754.57)"/><path d="M248.933 671.835 248.933 659.288" stroke="#333333" stroke-width="4.8999" stroke-linejoin="round" stroke-miterlimit="10" fill="none" transform="matrix(1.00061 0 0 1 93.0002 2754.57)"/><path d="M441.632 671.835 441.632 659.288" stroke="#333333" stroke-width="4.8999" stroke-linejoin="round" stroke-miterlimit="10" fill="none" transform="matrix(1.00061 0 0 1 93.0002 2754.57)"/><path d="M634.376 671.835 634.376 659.288" stroke="#333333" stroke-width="4.8999" stroke-linejoin="round" stroke-miterlimit="10" fill="none" transform="matrix(1.00061 0 0 1 93.0002 2754.57)"/><path d="M827.121 671.835 827.121 659.288" stroke="#333333" stroke-width="4.8999" stroke-linejoin="round" stroke-miterlimit="10" fill="none" transform="matrix(1.00061 0 0 1 93.0002 2754.57)"/><path d="M1019.82 671.835 1019.82 659.288" stroke="#333333" stroke-width="4.8999" stroke-linejoin="round" stroke-miterlimit="10" fill="none" transform="matrix(1.00061 0 0 1 93.0002 2754.57)"/><text fill="#4D4D4D" font-family="Arial,Arial_MSFontService,sans-serif" font-weight="400" font-size="7" transform="matrix(4.58216 0 0 4.57934 318.907 3459)">-</text><text fill="#4D4D4D" font-family="Arial,Arial_MSFontService,sans-serif" font-weight="400" font-size="7" transform="matrix(4.58216 0 0 4.57934 329.588 3459)">20</text><text fill="#4D4D4D" font-family="Arial,Arial_MSFontService,sans-serif" font-weight="400" font-size="7" transform="matrix(4.58216 0 0 4.57934 511.724 3459)">-</text><text fill="#4D4D4D" font-family="Arial,Arial_MSFontService,sans-serif" font-weight="400" font-size="7" transform="matrix(4.58216 0 0 4.57934 522.405 3459)">10</text><text fill="#4D4D4D" font-family="Arial,Arial_MSFontService,sans-serif" font-weight="400" font-size="7" transform="matrix(4.58216 0 0 4.57934 718.847 3459)">0</text><text fill="#4D4D4D" font-family="Arial,Arial_MSFontService,sans-serif" font-weight="400" font-size="7" transform="matrix(4.58216 0 0 4.57934 902.791 3459)">10</text><text fill="#4D4D4D" font-family="Arial,Arial_MSFontService,sans-serif" font-weight="400" font-size="7" transform="matrix(4.58216 0 0 4.57934 1095.61 3459)">20</text><text font-family="Arial,Arial_MSFontService,sans-serif" font-weight="400" font-size="7" transform="matrix(4.58216 0 0 4.57934 665.198 3502)">Angle </text><text font-family="Arial,Arial_MSFontService,sans-serif" font-weight="400" font-size="7" transform="matrix(4.58216 0 0 4.57934 756.145 3502)">(</text><text font-family="Arial,Arial_MSFontService,sans-serif" font-weight="400" font-size="7" transform="matrix(4.58216 0 0 4.57934 766.826 3502)"></text><text font-family="Arial,Arial_MSFontService,sans-serif" font-weight="400" font-size="7" transform="matrix(4.58216 0 0 4.57934 779.653 3502)">)</text><text font-family="Arial,Arial_MSFontService,sans-serif" font-weight="400" font-size="7" transform="matrix(2.80576e-16 -4.57934 4.58216 2.80404e-16 141.067 3344)">Probability of Biased Condition </text><text font-family="Arial,Arial_MSFontService,sans-serif" font-weight="400" font-size="7" transform="matrix(2.80576e-16 -4.57934 4.58216 2.80404e-16 141.067 2899)">(%)</text></g></g></g></g><text fill="#ADD8E6" font-family="Arial,Arial_MSFontService,sans-serif" font-weight="400" font-size="32" transform="matrix(1 0 0 1 1014.36 3353)">neutral</text><text fill="#0000FF" font-family="Arial,Arial_MSFontService,sans-serif" font-weight="400" font-size="32" transform="matrix(1 0 0 1 1014.36 3392)">biased</text><text fill="#FA8072" font-family="Arial,Arial_MSFontService,sans-serif" font-weight="400" font-size="32" transform="matrix(1 0 0 1 323.718 3353)">neutral</text><text fill="#FF0000" font-family="Arial,Arial_MSFontService,sans-serif" font-weight="400" font-size="32" transform="matrix(1 0 0 1 323.718 3392)">biased</text><rect x="649" y="2754" width="139" height="36.9998" fill="#FFFFFF"/><text font-family="Arial,Arial_MSFontService,sans-serif" font-weight="400" font-size="32" transform="matrix(1 0 0 1 652.588 2785)">260 km/h</text></g></svg>